<?xml version="1.0" encoding="utf-8" standalone="no"?>
<!DOCTYPE svg PUBLIC "-//W3C//DTD SVG 1.1//EN"
  "http://www.w3.org/Graphics/SVG/1.1/DTD/svg11.dtd">
<svg xmlns:xlink="http://www.w3.org/1999/xlink" width="1088.05625pt" height="637.599764pt" viewBox="0 0 1088.05625 637.599764" xmlns="http://www.w3.org/2000/svg" version="1.1">
 <metadata>
  <rdf:RDF xmlns:dc="http://purl.org/dc/elements/1.1/" xmlns:cc="http://creativecommons.org/ns#" xmlns:rdf="http://www.w3.org/1999/02/22-rdf-syntax-ns#">
   <cc:Work>
    <dc:type rdf:resource="http://purl.org/dc/dcmitype/StillImage"/>
    <dc:date>2024-05-02T10:56:20.358812</dc:date>
    <dc:format>image/svg+xml</dc:format>
    <dc:creator>
     <cc:Agent>
      <dc:title>Matplotlib v3.5.2, https://matplotlib.org/</dc:title>
     </cc:Agent>
    </dc:creator>
   </cc:Work>
  </rdf:RDF>
 </metadata>
 <defs>
  <style type="text/css">*{stroke-linejoin: round; stroke-linecap: butt}</style>
 </defs>
 <g id="figure_1">
  <g id="patch_1">
   <path d="M 0 637.599764 
L 1088.05625 637.599764 
L 1088.05625 0 
L 0 0 
z
" style="fill: #ffffff"/>
  </g>
  <g id="axes_1">
   <g id="patch_2">
    <path d="M 76.45625 142.920543 
L 344.807395 142.920543 
L 344.807395 8.697385 
L 76.45625 8.697385 
z
" style="fill: #ffffff"/>
   </g>
   <g id="patch_3">
    <path d="M 119.073943 142.920543 
L 119.073943 8.697385 
L 200.193611 8.697385 
L 200.193611 142.920543 
z
" clip-path="url(#p498075b63f)" style="fill: #808080; opacity: 0.2"/>
   </g>
   <g id="matplotlib.axis_1">
    <g id="xtick_1">
     <g id="line2d_1">
      <defs>
       <path id="m99ee80481c" d="M 0 0 
L 0 3.5 
" style="stroke: #000000; stroke-width: 0.8"/>
      </defs>
      <g>
       <use xlink:href="#m99ee80481c" x="119.073943" y="147.920543" style="stroke: #000000; stroke-width: 0.8"/>
      </g>
     </g>
     <g id="text_1">
      <!-- 0.0 -->
      <g transform="translate(103.170818 170.117418)scale(0.2 -0.2)">
       <defs>
        <path id="DejaVuSans-30" d="M 2034 4250 
Q 1547 4250 1301 3770 
Q 1056 3291 1056 2328 
Q 1056 1369 1301 889 
Q 1547 409 2034 409 
Q 2525 409 2770 889 
Q 3016 1369 3016 2328 
Q 3016 3291 2770 3770 
Q 2525 4250 2034 4250 
z
M 2034 4750 
Q 2819 4750 3233 4129 
Q 3647 3509 3647 2328 
Q 3647 1150 3233 529 
Q 2819 -91 2034 -91 
Q 1250 -91 836 529 
Q 422 1150 422 2328 
Q 422 3509 836 4129 
Q 1250 4750 2034 4750 
z
" transform="scale(0.015625)"/>
        <path id="DejaVuSans-2e" d="M 684 794 
L 1344 794 
L 1344 0 
L 684 0 
L 684 794 
z
" transform="scale(0.015625)"/>
       </defs>
       <use xlink:href="#DejaVuSans-30"/>
       <use xlink:href="#DejaVuSans-2e" x="63.623047"/>
       <use xlink:href="#DejaVuSans-30" x="95.410156"/>
      </g>
     </g>
    </g>
    <g id="xtick_2">
     <g id="line2d_2">
      <g>
       <use xlink:href="#m99ee80481c" x="195.421866" y="147.920543" style="stroke: #000000; stroke-width: 0.8"/>
      </g>
     </g>
     <g id="text_2">
      <!-- 0.5 -->
      <g transform="translate(179.518741 170.117418)scale(0.2 -0.2)">
       <defs>
        <path id="DejaVuSans-35" d="M 691 4666 
L 3169 4666 
L 3169 4134 
L 1269 4134 
L 1269 2991 
Q 1406 3038 1543 3061 
Q 1681 3084 1819 3084 
Q 2600 3084 3056 2656 
Q 3513 2228 3513 1497 
Q 3513 744 3044 326 
Q 2575 -91 1722 -91 
Q 1428 -91 1123 -41 
Q 819 9 494 109 
L 494 744 
Q 775 591 1075 516 
Q 1375 441 1709 441 
Q 2250 441 2565 725 
Q 2881 1009 2881 1497 
Q 2881 1984 2565 2268 
Q 2250 2553 1709 2553 
Q 1456 2553 1204 2497 
Q 953 2441 691 2322 
L 691 4666 
z
" transform="scale(0.015625)"/>
       </defs>
       <use xlink:href="#DejaVuSans-30"/>
       <use xlink:href="#DejaVuSans-2e" x="63.623047"/>
       <use xlink:href="#DejaVuSans-35" x="95.410156"/>
      </g>
     </g>
    </g>
    <g id="xtick_3">
     <g id="line2d_3">
      <g>
       <use xlink:href="#m99ee80481c" x="271.769788" y="147.920543" style="stroke: #000000; stroke-width: 0.8"/>
      </g>
     </g>
     <g id="text_3">
      <!-- 1.0 -->
      <g transform="translate(255.866663 170.117418)scale(0.2 -0.2)">
       <defs>
        <path id="DejaVuSans-31" d="M 794 531 
L 1825 531 
L 1825 4091 
L 703 3866 
L 703 4441 
L 1819 4666 
L 2450 4666 
L 2450 531 
L 3481 531 
L 3481 0 
L 794 0 
L 794 531 
z
" transform="scale(0.015625)"/>
       </defs>
       <use xlink:href="#DejaVuSans-31"/>
       <use xlink:href="#DejaVuSans-2e" x="63.623047"/>
       <use xlink:href="#DejaVuSans-30" x="95.410156"/>
      </g>
     </g>
    </g>
   </g>
   <g id="matplotlib.axis_2">
    <g id="ytick_1">
     <g id="line2d_4">
      <defs>
       <path id="m4bda91f07e" d="M 0 0 
L -3.5 0 
" style="stroke: #000000; stroke-width: 0.8"/>
      </defs>
      <g>
       <use xlink:href="#m4bda91f07e" x="71.45625" y="136.81949" style="stroke: #000000; stroke-width: 0.8"/>
      </g>
     </g>
     <g id="text_4">
      <!-- 0.0 -->
      <g transform="translate(32.65 144.417928)scale(0.2 -0.2)">
       <use xlink:href="#DejaVuSans-30"/>
       <use xlink:href="#DejaVuSans-2e" x="63.623047"/>
       <use xlink:href="#DejaVuSans-30" x="95.410156"/>
      </g>
     </g>
    </g>
    <g id="ytick_2">
     <g id="line2d_5">
      <g>
       <use xlink:href="#m4bda91f07e" x="71.45625" y="75.808964" style="stroke: #000000; stroke-width: 0.8"/>
      </g>
     </g>
     <g id="text_5">
      <!-- 0.5 -->
      <g transform="translate(32.65 83.407401)scale(0.2 -0.2)">
       <use xlink:href="#DejaVuSans-30"/>
       <use xlink:href="#DejaVuSans-2e" x="63.623047"/>
       <use xlink:href="#DejaVuSans-35" x="95.410156"/>
      </g>
     </g>
    </g>
    <g id="ytick_3">
     <g id="line2d_6">
      <g>
       <use xlink:href="#m4bda91f07e" x="71.45625" y="14.798438" style="stroke: #000000; stroke-width: 0.8"/>
      </g>
     </g>
     <g id="text_6">
      <!-- 1.0 -->
      <g transform="translate(32.65 22.396875)scale(0.2 -0.2)">
       <use xlink:href="#DejaVuSans-31"/>
       <use xlink:href="#DejaVuSans-2e" x="63.623047"/>
       <use xlink:href="#DejaVuSans-30" x="95.410156"/>
      </g>
     </g>
    </g>
   </g>
   <g id="line2d_7">
    <path d="M 88.654029 136.81949 
L 119.670373 136.735466 
L 120.863386 136.509043 
L 121.758031 136.076338 
L 122.354461 135.548903 
L 122.951043 134.721644 
L 123.547473 133.471597 
L 124.143903 131.651561 
L 124.740333 129.097952 
L 125.336916 125.644931 
L 125.933346 121.14447 
L 126.827991 112.215169 
L 127.722788 100.649514 
L 128.915648 81.904729 
L 131.301521 42.470226 
L 132.196319 30.815074 
L 133.090963 22.250486 
L 133.687393 18.394197 
L 134.283823 15.981099 
L 134.582038 15.281534 
L 134.880406 14.894678 
L 135.178621 14.798438 
L 135.476836 14.969071 
L 135.775051 15.381843 
L 136.371481 16.833437 
L 136.968064 18.956447 
L 137.862709 23.007411 
L 139.652151 32.499178 
L 141.739809 43.361611 
L 143.230884 50.165231 
L 144.722111 56.045895 
L 146.213186 61.070261 
L 147.704414 65.352884 
L 149.195642 69.012045 
L 150.686717 72.153411 
L 152.476159 75.363648 
L 154.265602 78.079171 
L 156.055044 80.396151 
L 157.844334 82.38923 
L 159.931992 84.382025 
L 162.01965 86.084033 
L 164.405522 87.742446 
L 167.08961 89.315344 
L 170.071912 90.775405 
L 173.352582 92.107474 
L 176.931315 93.305787 
L 180.808415 94.371343 
L 185.281945 95.369769 
L 190.351906 96.273982 
L 196.316511 97.107437 
L 203.772496 98.101006 
L 204.965356 98.537777 
L 205.860001 99.09084 
L 206.754799 99.937699 
L 207.649444 101.17062 
L 208.544241 102.859951 
L 209.438886 105.029984 
L 210.631746 108.59501 
L 212.719404 115.84653 
L 214.508846 121.780259 
L 215.701706 125.089163 
L 216.894719 127.767761 
L 218.087732 129.85257 
L 219.280592 131.438819 
L 220.473451 132.635053 
L 221.666464 133.538112 
L 223.157692 134.369506 
L 224.946982 135.068172 
L 227.034639 135.617437 
L 229.718727 136.067802 
L 233.297612 136.414135 
L 238.367572 136.651606 
L 246.718203 136.781392 
L 268.787486 136.818922 
L 332.609616 136.81949 
L 332.609616 136.81949 
" clip-path="url(#p498075b63f)" style="fill: none; stroke: #e9a700; stroke-width: 1.5; stroke-linecap: square"/>
   </g>
   <g id="line2d_8">
    <path d="M 88.654029 136.81949 
L 120.266803 136.733982 
L 121.459816 136.522967 
L 122.354461 136.13711 
L 122.951043 135.680558 
L 123.547473 134.980891 
L 124.143903 133.946158 
L 124.740333 132.468888 
L 125.336916 130.432047 
L 125.933346 127.718718 
L 126.529776 124.224938 
L 127.424573 117.364825 
L 128.319218 108.51651 
L 129.512078 94.031328 
L 133.389178 43.0694 
L 134.283823 34.324116 
L 135.178621 27.406449 
L 136.073266 22.258834 
L 136.968064 18.68854 
L 137.564494 17.056932 
L 138.160924 15.928423 
L 138.757354 15.223442 
L 139.353784 14.868556 
L 139.950366 14.798438 
L 140.546796 14.956724 
L 141.441441 15.521114 
L 142.336239 16.369056 
L 143.827314 18.180081 
L 145.914971 21.166686 
L 149.195642 26.311369 
L 157.546119 39.601777 
L 160.82679 44.309063 
L 163.809092 48.188857 
L 166.791395 51.676249 
L 169.773697 54.788779 
L 172.756 57.557634 
L 175.738455 60.018734 
L 178.720758 62.207882 
L 182.001275 64.341536 
L 185.58016 66.386216 
L 189.158893 68.178629 
L 193.035993 69.879024 
L 197.211308 71.473475 
L 202.281268 73.156558 
L 204.667141 74.015228 
L 206.158216 74.797908 
L 207.351229 75.738097 
L 208.245874 76.718292 
L 209.140671 77.991155 
L 210.035316 79.585421 
L 211.228329 82.203006 
L 212.719404 86.117799 
L 218.385947 101.867621 
L 220.175237 105.880966 
L 221.964679 109.331647 
L 223.754122 112.296806 
L 225.543564 114.857719 
L 227.631222 117.427499 
L 229.718727 119.630694 
L 231.806384 121.534778 
L 234.192257 123.410221 
L 236.57813 125.020874 
L 239.262217 126.572156 
L 242.244672 128.029556 
L 245.52519 129.368731 
L 249.103923 130.574203 
L 252.981023 131.637765 
L 257.156338 132.557077 
L 261.928083 133.380382 
L 267.296258 134.082775 
L 273.857446 134.705323 
L 281.909709 135.229014 
L 292.347997 135.670569 
L 307.259662 136.06137 
L 329.03073 136.393449 
L 332.609616 136.41253 
L 332.609616 136.41253 
" clip-path="url(#p498075b63f)" style="fill: none; stroke: #30408d; stroke-width: 1.5; stroke-linecap: square"/>
   </g>
   <g id="line2d_9">
    <path d="M 88.654029 136.81949 
L 121.161601 136.708394 
L 122.354461 136.467194 
L 123.249258 136.055593 
L 123.845688 135.591348 
L 124.442118 134.906824 
L 125.038548 133.931641 
L 125.635131 132.588716 
L 126.231561 130.800084 
L 127.126206 127.129855 
L 128.021003 122.135073 
L 128.915648 115.788405 
L 130.108661 105.493569 
L 132.196319 84.757341 
L 134.283823 64.859945 
L 135.775051 52.91023 
L 136.968064 44.898011 
L 138.160924 38.144273 
L 139.353784 32.493435 
L 140.546796 27.808415 
L 141.739809 23.983022 
L 142.932669 20.932895 
L 144.125529 18.58395 
L 145.020326 17.239794 
L 145.914971 16.220694 
L 146.809769 15.497338 
L 147.704414 15.040947 
L 148.599059 14.823658 
L 149.493857 14.818873 
L 150.388502 15.001539 
L 151.581514 15.496635 
L 152.774374 16.233527 
L 154.265602 17.427673 
L 156.055044 19.164873 
L 158.440764 21.83077 
L 162.01965 26.221588 
L 170.071912 36.204115 
L 173.949012 40.635113 
L 177.527745 44.416254 
L 181.10663 47.889639 
L 184.685515 51.062363 
L 188.264248 53.950651 
L 192.141348 56.782501 
L 196.018296 59.332631 
L 200.193611 61.796471 
L 206.754799 65.566556 
L 207.947659 66.552364 
L 209.140671 67.806656 
L 210.333531 69.394946 
L 211.526544 71.340278 
L 213.017619 74.22544 
L 215.105276 78.836522 
L 220.473451 90.991453 
L 223.157692 96.386877 
L 225.543564 100.690003 
L 227.929437 104.547992 
L 230.31531 107.994815 
L 232.701182 111.068315 
L 235.087055 113.805868 
L 237.771142 116.527808 
L 240.45523 118.91507 
L 243.139317 121.009062 
L 246.12162 123.0365 
L 249.103923 124.791754 
L 252.384593 126.453792 
L 255.963325 127.995047 
L 259.542211 129.298197 
L 263.717526 130.569039 
L 268.190903 131.686197 
L 273.261016 132.706667 
L 278.927406 133.603705 
L 285.190379 134.364908 
L 292.646212 135.035843 
L 301.294904 135.584288 
L 312.031407 136.03307 
L 325.750213 136.373713 
L 332.609616 136.452461 
L 332.609616 136.452461 
" clip-path="url(#p498075b63f)" style="fill: none; stroke: #bb2666; stroke-width: 1.5; stroke-linecap: square"/>
   </g>
   <g id="line2d_10">
    <path d="M 76.45625 136.81949 
L 344.807395 136.81949 
" clip-path="url(#p498075b63f)" style="fill: none; stroke: #808080; stroke-opacity: 0.5; stroke-width: 0.5; stroke-linecap: square"/>
   </g>
   <g id="patch_4">
    <path d="M 71.45625 142.920543 
L 71.45625 8.697385 
" style="fill: none; stroke: #000000; stroke-width: 0.8; stroke-linejoin: miter; stroke-linecap: square"/>
   </g>
   <g id="patch_5">
    <path d="M 76.45625 147.920543 
L 344.807395 147.920543 
" style="fill: none; stroke: #000000; stroke-width: 0.8; stroke-linejoin: miter; stroke-linecap: square"/>
   </g>
  </g>
  <g id="axes_2">
   <g id="patch_6">
    <path d="M 444.480677 142.920543 
L 620.825716 142.920543 
L 620.825716 8.697385 
L 444.480677 8.697385 
z
" style="fill: #ffffff"/>
   </g>
   <g id="patch_7">
    <path d="M 472.48659 142.920543 
L 472.48659 8.697385 
L 525.7938 8.697385 
L 525.7938 142.920543 
z
" clip-path="url(#pcbe3b012fb)" style="fill: #808080; opacity: 0.2"/>
   </g>
   <g id="matplotlib.axis_3">
    <g id="xtick_4">
     <g id="line2d_11">
      <g>
       <use xlink:href="#m99ee80481c" x="472.48659" y="147.920543" style="stroke: #000000; stroke-width: 0.8"/>
      </g>
     </g>
     <g id="text_7">
      <!-- 0.0 -->
      <g transform="translate(456.583465 170.117418)scale(0.2 -0.2)">
       <use xlink:href="#DejaVuSans-30"/>
       <use xlink:href="#DejaVuSans-2e" x="63.623047"/>
       <use xlink:href="#DejaVuSans-30" x="95.410156"/>
      </g>
     </g>
    </g>
    <g id="xtick_5">
     <g id="line2d_12">
      <g>
       <use xlink:href="#m99ee80481c" x="522.658082" y="147.920543" style="stroke: #000000; stroke-width: 0.8"/>
      </g>
     </g>
     <g id="text_8">
      <!-- 0.5 -->
      <g transform="translate(506.754957 170.117418)scale(0.2 -0.2)">
       <use xlink:href="#DejaVuSans-30"/>
       <use xlink:href="#DejaVuSans-2e" x="63.623047"/>
       <use xlink:href="#DejaVuSans-35" x="95.410156"/>
      </g>
     </g>
    </g>
    <g id="xtick_6">
     <g id="line2d_13">
      <g>
       <use xlink:href="#m99ee80481c" x="572.829574" y="147.920543" style="stroke: #000000; stroke-width: 0.8"/>
      </g>
     </g>
     <g id="text_9">
      <!-- 1.0 -->
      <g transform="translate(556.926449 170.117418)scale(0.2 -0.2)">
       <use xlink:href="#DejaVuSans-31"/>
       <use xlink:href="#DejaVuSans-2e" x="63.623047"/>
       <use xlink:href="#DejaVuSans-30" x="95.410156"/>
      </g>
     </g>
    </g>
   </g>
   <g id="matplotlib.axis_4">
    <g id="ytick_4">
     <g id="line2d_14">
      <g>
       <use xlink:href="#m4bda91f07e" x="439.480677" y="136.81949" style="stroke: #000000; stroke-width: 0.8"/>
      </g>
     </g>
     <g id="text_10">
      <!-- 0.0 -->
      <g transform="translate(400.674427 144.417928)scale(0.2 -0.2)">
       <use xlink:href="#DejaVuSans-30"/>
       <use xlink:href="#DejaVuSans-2e" x="63.623047"/>
       <use xlink:href="#DejaVuSans-30" x="95.410156"/>
      </g>
     </g>
    </g>
    <g id="ytick_5">
     <g id="line2d_15">
      <g>
       <use xlink:href="#m4bda91f07e" x="439.480677" y="75.808964" style="stroke: #000000; stroke-width: 0.8"/>
      </g>
     </g>
     <g id="text_11">
      <!-- 0.5 -->
      <g transform="translate(400.674427 83.407401)scale(0.2 -0.2)">
       <use xlink:href="#DejaVuSans-30"/>
       <use xlink:href="#DejaVuSans-2e" x="63.623047"/>
       <use xlink:href="#DejaVuSans-35" x="95.410156"/>
      </g>
     </g>
    </g>
    <g id="ytick_6">
     <g id="line2d_16">
      <g>
       <use xlink:href="#m4bda91f07e" x="439.480677" y="14.798438" style="stroke: #000000; stroke-width: 0.8"/>
      </g>
     </g>
     <g id="text_12">
      <!-- 1.0 -->
      <g transform="translate(400.674427 22.396875)scale(0.2 -0.2)">
       <use xlink:href="#DejaVuSans-31"/>
       <use xlink:href="#DejaVuSans-2e" x="63.623047"/>
       <use xlink:href="#DejaVuSans-30" x="95.410156"/>
      </g>
     </g>
    </g>
   </g>
   <g id="line2d_17">
    <path d="M 452.496361 136.81949 
L 478.366087 136.81949 
L 478.758027 131.036431 
L 479.541906 111.690086 
L 480.913795 77.731239 
L 481.893745 59.810823 
L 482.677624 49.136787 
L 483.461604 41.030466 
L 484.245584 34.895145 
L 485.029463 30.24751 
L 485.813342 26.716353 
L 486.597322 24.022976 
L 487.381302 21.959987 
L 488.361151 20.036941 
L 489.341101 18.643721 
L 490.32095 17.629092 
L 491.496869 16.764149 
L 492.672789 16.166827 
L 494.240648 15.644907 
L 496.200447 15.264027 
L 498.748255 15.012924 
L 502.863823 14.859802 
L 512.075008 14.802128 
L 531.673297 14.798438 
L 531.869267 16.685737 
L 532.261207 24.04519 
L 535.004985 88.360607 
L 535.788865 100.020689 
L 536.572844 108.926735 
L 537.356724 115.676821 
L 538.140704 120.776908 
L 538.924583 124.627708 
L 539.708563 127.537201 
L 540.492442 129.738637 
L 541.276422 131.407411 
L 542.256271 132.941353 
L 543.236221 134.0327 
L 544.21617 134.811702 
L 545.391989 135.460514 
L 546.763879 135.954297 
L 548.527708 136.332836 
L 550.879546 136.591894 
L 554.603174 136.750335 
L 562.63854 136.814057 
L 612.810032 136.81949 
L 612.810032 136.81949 
" clip-path="url(#pcbe3b012fb)" style="fill: none; stroke: #e9a700; stroke-opacity: 0.3; stroke-width: 1.5; stroke-linecap: square"/>
   </g>
   <g id="line2d_18">
    <path d="M 452.496361 136.81949 
L 478.562057 136.743887 
L 478.953996 136.352781 
L 479.345936 135.593184 
L 479.933946 133.763978 
L 480.717825 130.207665 
L 481.697775 124.462684 
L 483.461604 112.350949 
L 486.401352 92.223624 
L 488.165181 81.664384 
L 489.92901 72.487672 
L 491.496869 65.427544 
L 493.064729 59.288684 
L 494.632588 53.953407 
L 496.396417 48.772572 
L 498.160246 44.325425 
L 499.924175 40.491503 
L 501.688004 37.170532 
L 503.647803 33.982212 
L 505.607602 31.233481 
L 507.5674 28.850494 
L 509.723269 26.5811 
L 511.879038 24.619298 
L 514.230877 22.770928 
L 516.778585 21.05374 
L 519.522364 19.478085 
L 522.462112 18.048246 
L 525.59783 16.763716 
L 529.125488 15.559224 
L 531.869267 14.798438 
L 532.261207 14.937277 
L 532.653146 15.398927 
L 533.045186 16.223012 
L 533.633096 18.127479 
L 534.417076 21.748419 
L 535.396925 27.537107 
L 537.160754 39.665413 
L 539.904532 58.386357 
L 541.668361 68.865958 
L 543.236221 76.943013 
L 544.80408 83.918358 
L 546.371939 89.914942 
L 547.939798 95.068861 
L 549.507657 99.50887 
L 551.075516 103.348488 
L 552.839345 107.069941 
L 554.603174 110.266587 
L 556.367103 113.029774 
L 558.326902 115.680246 
L 560.286701 117.9656 
L 562.44247 120.132411 
L 564.794309 122.155572 
L 567.146047 123.887169 
L 569.693856 125.493183 
L 572.437634 126.965038 
L 575.377383 128.299516 
L 578.709071 129.565754 
L 582.432699 130.732402 
L 586.548367 131.780131 
L 591.251944 132.735422 
L 596.543431 133.574149 
L 602.618898 134.307349 
L 609.870284 134.95033 
L 612.810032 135.156684 
L 612.810032 135.156684 
" clip-path="url(#pcbe3b012fb)" style="fill: none; stroke-dasharray: 7.4,3.2; stroke-dashoffset: 0; stroke: #e9a700; stroke-width: 2"/>
   </g>
   <g id="line2d_19">
    <path d="M 444.480677 136.81949 
L 620.825716 136.81949 
" clip-path="url(#pcbe3b012fb)" style="fill: none; stroke: #808080; stroke-opacity: 0.5; stroke-width: 0.5; stroke-linecap: square"/>
   </g>
   <g id="patch_8">
    <path d="M 439.480677 142.920543 
L 439.480677 8.697385 
" style="fill: none; stroke: #000000; stroke-width: 0.8; stroke-linejoin: miter; stroke-linecap: square"/>
   </g>
   <g id="patch_9">
    <path d="M 444.480677 147.920543 
L 620.825716 147.920543 
" style="fill: none; stroke: #000000; stroke-width: 0.8; stroke-linejoin: miter; stroke-linecap: square"/>
   </g>
  </g>
  <g id="axes_3">
   <g id="patch_10">
    <path d="M 674.495945 142.920543 
L 850.840983 142.920543 
L 850.840983 8.697385 
L 674.495945 8.697385 
z
" style="fill: #ffffff"/>
   </g>
   <g id="patch_11">
    <path d="M 702.501857 142.920543 
L 702.501857 8.697385 
L 755.809068 8.697385 
L 755.809068 142.920543 
z
" clip-path="url(#p137d931e58)" style="fill: #808080; opacity: 0.2"/>
   </g>
   <g id="matplotlib.axis_5">
    <g id="xtick_7">
     <g id="line2d_20">
      <g>
       <use xlink:href="#m99ee80481c" x="702.501857" y="147.920543" style="stroke: #000000; stroke-width: 0.8"/>
      </g>
     </g>
     <g id="text_13">
      <!-- 0.0 -->
      <g transform="translate(686.598732 170.117418)scale(0.2 -0.2)">
       <use xlink:href="#DejaVuSans-30"/>
       <use xlink:href="#DejaVuSans-2e" x="63.623047"/>
       <use xlink:href="#DejaVuSans-30" x="95.410156"/>
      </g>
     </g>
    </g>
    <g id="xtick_8">
     <g id="line2d_21">
      <g>
       <use xlink:href="#m99ee80481c" x="752.673349" y="147.920543" style="stroke: #000000; stroke-width: 0.8"/>
      </g>
     </g>
     <g id="text_14">
      <!-- 0.5 -->
      <g transform="translate(736.770224 170.117418)scale(0.2 -0.2)">
       <use xlink:href="#DejaVuSans-30"/>
       <use xlink:href="#DejaVuSans-2e" x="63.623047"/>
       <use xlink:href="#DejaVuSans-35" x="95.410156"/>
      </g>
     </g>
    </g>
    <g id="xtick_9">
     <g id="line2d_22">
      <g>
       <use xlink:href="#m99ee80481c" x="802.844841" y="147.920543" style="stroke: #000000; stroke-width: 0.8"/>
      </g>
     </g>
     <g id="text_15">
      <!-- 1.0 -->
      <g transform="translate(786.941716 170.117418)scale(0.2 -0.2)">
       <use xlink:href="#DejaVuSans-31"/>
       <use xlink:href="#DejaVuSans-2e" x="63.623047"/>
       <use xlink:href="#DejaVuSans-30" x="95.410156"/>
      </g>
     </g>
    </g>
   </g>
   <g id="matplotlib.axis_6">
    <g id="ytick_7">
     <g id="line2d_23">
      <g>
       <use xlink:href="#m4bda91f07e" x="669.495945" y="136.81949" style="stroke: #000000; stroke-width: 0.8"/>
      </g>
     </g>
     <g id="text_16">
      <!-- 0.0 -->
      <g transform="translate(630.689695 144.417928)scale(0.2 -0.2)">
       <use xlink:href="#DejaVuSans-30"/>
       <use xlink:href="#DejaVuSans-2e" x="63.623047"/>
       <use xlink:href="#DejaVuSans-30" x="95.410156"/>
      </g>
     </g>
    </g>
    <g id="ytick_8">
     <g id="line2d_24">
      <g>
       <use xlink:href="#m4bda91f07e" x="669.495945" y="75.808964" style="stroke: #000000; stroke-width: 0.8"/>
      </g>
     </g>
     <g id="text_17">
      <!-- 0.5 -->
      <g transform="translate(630.689695 83.407401)scale(0.2 -0.2)">
       <use xlink:href="#DejaVuSans-30"/>
       <use xlink:href="#DejaVuSans-2e" x="63.623047"/>
       <use xlink:href="#DejaVuSans-35" x="95.410156"/>
      </g>
     </g>
    </g>
    <g id="ytick_9">
     <g id="line2d_25">
      <g>
       <use xlink:href="#m4bda91f07e" x="669.495945" y="14.798438" style="stroke: #000000; stroke-width: 0.8"/>
      </g>
     </g>
     <g id="text_18">
      <!-- 1.0 -->
      <g transform="translate(630.689695 22.396875)scale(0.2 -0.2)">
       <use xlink:href="#DejaVuSans-31"/>
       <use xlink:href="#DejaVuSans-2e" x="63.623047"/>
       <use xlink:href="#DejaVuSans-30" x="95.410156"/>
      </g>
     </g>
    </g>
   </g>
   <g id="line2d_26">
    <path d="M 682.511628 136.81949 
L 708.381354 136.81949 
L 708.773294 135.769229 
L 709.361203 132.837478 
L 710.341153 126.037623 
L 714.84876 92.226058 
L 716.612589 81.447065 
L 718.180448 73.122987 
L 719.748308 65.852124 
L 721.316167 59.510113 
L 722.884026 53.982445 
L 724.647855 48.608827 
L 726.411684 44.004151 
L 728.175513 40.05359 
L 729.939442 36.65753 
L 731.703271 33.730378 
L 733.4671 31.199225 
L 735.426899 28.776628 
L 737.386698 26.696566 
L 739.542567 24.735436 
L 741.894305 22.916231 
L 744.442114 21.250772 
L 747.185792 19.74213 
L 750.125541 18.387179 
L 753.457229 17.110307 
L 757.180957 15.938531 
L 761.296625 14.887361 
L 761.688564 14.798438 
L 761.884534 15.065113 
L 762.276474 16.345062 
L 762.864383 19.593161 
L 763.844333 26.936248 
L 767.960001 60.007347 
L 769.52786 70.375574 
L 771.095719 79.362602 
L 772.663578 87.110637 
L 774.231437 93.769082 
L 775.799296 99.478178 
L 777.367156 104.365659 
L 778.935015 108.546287 
L 780.502874 112.121998 
L 782.070733 115.182323 
L 783.638592 117.805055 
L 785.402421 120.315539 
L 787.16625 122.437267 
L 788.930079 124.237164 
L 790.889878 125.926412 
L 793.045747 127.477285 
L 795.397485 128.875333 
L 797.945294 130.116891 
L 800.689073 131.20616 
L 803.824791 132.208693 
L 807.352449 133.101992 
L 811.468117 133.910628 
L 816.367664 134.634803 
L 822.051091 135.244679 
L 829.106507 135.76676 
L 837.925652 136.181952 
L 842.825299 136.336962 
L 842.825299 136.336962 
" clip-path="url(#p137d931e58)" style="fill: none; stroke: #30408d; stroke-opacity: 0.3; stroke-width: 1.5; stroke-linecap: square"/>
   </g>
   <g id="line2d_27">
    <path d="M 682.511628 136.81949 
L 709.165233 136.723296 
L 709.949213 136.404812 
L 710.733093 135.823471 
L 711.517072 134.975703 
L 712.496921 133.563415 
L 713.672841 131.410434 
L 715.04473 128.374688 
L 716.808559 123.840083 
L 719.160398 117.059482 
L 723.079996 104.89887 
L 728.959492 86.729246 
L 732.68312 75.961709 
L 736.014808 66.974554 
L 739.346597 58.622167 
L 742.678285 50.891842 
L 745.814003 44.158703 
L 748.949721 37.921176 
L 752.08544 32.147548 
L 755.417128 26.485923 
L 758.748816 21.275443 
L 761.884534 16.756753 
L 762.864383 15.611371 
L 763.648363 15.033185 
L 764.236273 14.826999 
L 764.824283 14.816095 
L 765.412192 14.992042 
L 766.196172 15.495003 
L 766.980051 16.272037 
L 767.960001 17.572826 
L 769.13582 19.527335 
L 770.703779 22.63189 
L 772.859548 27.497725 
L 776.779146 37.063065 
L 781.482723 48.37366 
L 784.814411 55.822271 
L 787.950129 62.307568 
L 791.085848 68.278968 
L 794.221566 73.759083 
L 797.357284 78.780325 
L 800.493002 83.377215 
L 803.628721 87.583204 
L 806.764439 91.429612 
L 810.096227 95.154864 
L 813.427916 98.539125 
L 816.759604 101.612171 
L 820.287262 104.557415 
L 823.81492 107.215024 
L 827.538648 109.739142 
L 831.458245 112.11678 
L 835.377943 114.239466 
L 839.689581 116.314474 
L 842.825299 117.671662 
L 842.825299 117.671662 
" clip-path="url(#p137d931e58)" style="fill: none; stroke-dasharray: 7.4,3.2; stroke-dashoffset: 0; stroke: #30408d; stroke-width: 2"/>
   </g>
   <g id="line2d_28">
    <path d="M 674.495945 136.81949 
L 850.840983 136.81949 
" clip-path="url(#p137d931e58)" style="fill: none; stroke: #808080; stroke-opacity: 0.5; stroke-width: 0.5; stroke-linecap: square"/>
   </g>
   <g id="patch_12">
    <path d="M 669.495945 142.920543 
L 669.495945 8.697385 
" style="fill: none; stroke: #000000; stroke-width: 0.8; stroke-linejoin: miter; stroke-linecap: square"/>
   </g>
   <g id="patch_13">
    <path d="M 674.495945 147.920543 
L 850.840983 147.920543 
" style="fill: none; stroke: #000000; stroke-width: 0.8; stroke-linejoin: miter; stroke-linecap: square"/>
   </g>
  </g>
  <g id="axes_4">
   <g id="patch_14">
    <path d="M 904.511212 142.920543 
L 1080.85625 142.920543 
L 1080.85625 8.697385 
L 904.511212 8.697385 
z
" style="fill: #ffffff"/>
   </g>
   <g id="patch_15">
    <path d="M 932.517124 142.920543 
L 932.517124 8.697385 
L 985.824335 8.697385 
L 985.824335 142.920543 
z
" clip-path="url(#pf749758127)" style="fill: #808080; opacity: 0.2"/>
   </g>
   <g id="matplotlib.axis_7">
    <g id="xtick_10">
     <g id="line2d_29">
      <g>
       <use xlink:href="#m99ee80481c" x="932.517124" y="147.920543" style="stroke: #000000; stroke-width: 0.8"/>
      </g>
     </g>
     <g id="text_19">
      <!-- 0.0 -->
      <g transform="translate(916.613999 170.117418)scale(0.2 -0.2)">
       <use xlink:href="#DejaVuSans-30"/>
       <use xlink:href="#DejaVuSans-2e" x="63.623047"/>
       <use xlink:href="#DejaVuSans-30" x="95.410156"/>
      </g>
     </g>
    </g>
    <g id="xtick_11">
     <g id="line2d_30">
      <g>
       <use xlink:href="#m99ee80481c" x="982.688616" y="147.920543" style="stroke: #000000; stroke-width: 0.8"/>
      </g>
     </g>
     <g id="text_20">
      <!-- 0.5 -->
      <g transform="translate(966.785491 170.117418)scale(0.2 -0.2)">
       <use xlink:href="#DejaVuSans-30"/>
       <use xlink:href="#DejaVuSans-2e" x="63.623047"/>
       <use xlink:href="#DejaVuSans-35" x="95.410156"/>
      </g>
     </g>
    </g>
    <g id="xtick_12">
     <g id="line2d_31">
      <g>
       <use xlink:href="#m99ee80481c" x="1032.860109" y="147.920543" style="stroke: #000000; stroke-width: 0.8"/>
      </g>
     </g>
     <g id="text_21">
      <!-- 1.0 -->
      <g transform="translate(1016.956984 170.117418)scale(0.2 -0.2)">
       <use xlink:href="#DejaVuSans-31"/>
       <use xlink:href="#DejaVuSans-2e" x="63.623047"/>
       <use xlink:href="#DejaVuSans-30" x="95.410156"/>
      </g>
     </g>
    </g>
   </g>
   <g id="matplotlib.axis_8">
    <g id="ytick_10">
     <g id="line2d_32">
      <g>
       <use xlink:href="#m4bda91f07e" x="899.511212" y="136.81949" style="stroke: #000000; stroke-width: 0.8"/>
      </g>
     </g>
     <g id="text_22">
      <!-- 0.0 -->
      <g transform="translate(860.704962 144.417928)scale(0.2 -0.2)">
       <use xlink:href="#DejaVuSans-30"/>
       <use xlink:href="#DejaVuSans-2e" x="63.623047"/>
       <use xlink:href="#DejaVuSans-30" x="95.410156"/>
      </g>
     </g>
    </g>
    <g id="ytick_11">
     <g id="line2d_33">
      <g>
       <use xlink:href="#m4bda91f07e" x="899.511212" y="75.808964" style="stroke: #000000; stroke-width: 0.8"/>
      </g>
     </g>
     <g id="text_23">
      <!-- 0.5 -->
      <g transform="translate(860.704962 83.407401)scale(0.2 -0.2)">
       <use xlink:href="#DejaVuSans-30"/>
       <use xlink:href="#DejaVuSans-2e" x="63.623047"/>
       <use xlink:href="#DejaVuSans-35" x="95.410156"/>
      </g>
     </g>
    </g>
    <g id="ytick_12">
     <g id="line2d_34">
      <g>
       <use xlink:href="#m4bda91f07e" x="899.511212" y="14.798438" style="stroke: #000000; stroke-width: 0.8"/>
      </g>
     </g>
     <g id="text_24">
      <!-- 1.0 -->
      <g transform="translate(860.704962 22.396875)scale(0.2 -0.2)">
       <use xlink:href="#DejaVuSans-31"/>
       <use xlink:href="#DejaVuSans-2e" x="63.623047"/>
       <use xlink:href="#DejaVuSans-30" x="95.410156"/>
      </g>
     </g>
    </g>
   </g>
   <g id="line2d_35">
    <path d="M 912.526895 136.81949 
L 938.396621 136.81949 
L 938.788561 136.337536 
L 939.180501 135.426021 
L 939.76851 133.419419 
L 940.55239 129.89233 
L 941.924279 122.42836 
L 947.019796 93.536689 
L 949.175665 82.956914 
L 951.331434 73.525178 
L 953.291233 65.885789 
L 955.251032 59.071463 
L 957.210931 53.018797 
L 959.17073 47.664968 
L 961.130528 42.947845 
L 963.090428 38.806539 
L 965.050226 35.182244 
L 967.010025 32.019086 
L 968.969824 29.26481 
L 970.929623 26.871239 
L 973.085492 24.602677 
L 975.24126 22.665184 
L 977.39713 21.012501 
L 979.748868 19.486938 
L 982.296677 18.109861 
L 985.040455 16.892932 
L 987.980103 15.839098 
L 991.311892 14.894787 
L 991.703832 14.798438 
L 991.899801 14.913191 
L 992.291741 15.560564 
L 992.879651 17.355201 
L 993.66363 20.803783 
L 994.83955 27.229306 
L 1000.915016 62.271813 
L 1003.070785 72.737982 
L 1005.030584 81.188795 
L 1006.990483 88.67523 
L 1008.950282 95.261992 
L 1010.910081 101.022691 
L 1012.67391 105.565391 
L 1014.437739 109.559413 
L 1016.201568 113.060792 
L 1018.161467 116.438296 
L 1020.121266 119.341699 
L 1022.081064 121.833099 
L 1024.040863 123.968167 
L 1026.000762 125.796212 
L 1028.156531 127.503909 
L 1030.3123 128.942136 
L 1032.664139 130.253516 
L 1035.211947 131.422881 
L 1037.955626 132.444059 
L 1041.091344 133.369913 
L 1044.619102 134.172445 
L 1048.73467 134.868718 
L 1053.634217 135.45568 
L 1059.513714 135.92477 
L 1067.157039 136.295232 
L 1072.840566 136.463595 
L 1072.840566 136.463595 
" clip-path="url(#pf749758127)" style="fill: none; stroke: #bb2666; stroke-opacity: 0.3; stroke-width: 1.5; stroke-linecap: square"/>
   </g>
   <g id="line2d_36">
    <path d="M 912.526895 136.81949 
L 939.180501 136.731731 
L 939.96448 136.418573 
L 940.74836 135.81754 
L 941.532339 134.914911 
L 942.512189 133.388492 
L 943.688108 131.060533 
L 945.059997 127.829257 
L 947.019796 122.615348 
L 951.527404 109.757477 
L 956.622921 95.516778 
L 961.522468 82.490922 
L 966.422116 70.076787 
L 971.125693 58.758675 
L 975.43723 48.960184 
L 979.552898 40.17101 
L 983.472496 32.340113 
L 987.196224 25.397997 
L 990.919852 18.937607 
L 992.683681 16.183976 
L 993.46766 15.358165 
L 994.05557 14.979979 
L 994.64358 14.810361 
L 995.231489 14.837977 
L 996.015369 15.150286 
L 996.799349 15.731497 
L 997.779298 16.759245 
L 998.955117 18.317581 
L 1000.719047 21.069985 
L 1003.854765 26.48751 
L 1015.809628 47.410569 
L 1022.081064 57.945924 
L 1026.784642 65.43457 
L 1030.90031 71.589792 
L 1034.819907 77.058154 
L 1038.543635 81.878625 
L 1042.267263 86.332436 
L 1045.990891 90.42872 
L 1049.714619 94.183721 
L 1053.438247 97.617948 
L 1057.161975 100.754057 
L 1061.081573 103.758804 
L 1065.00117 106.485886 
L 1069.116838 109.078503 
L 1072.840566 111.207922 
L 1072.840566 111.207922 
" clip-path="url(#pf749758127)" style="fill: none; stroke-dasharray: 7.4,3.2; stroke-dashoffset: 0; stroke: #bb2666; stroke-width: 2"/>
   </g>
   <g id="line2d_37">
    <path d="M 904.511212 136.81949 
L 1080.85625 136.81949 
" clip-path="url(#pf749758127)" style="fill: none; stroke: #808080; stroke-opacity: 0.5; stroke-width: 0.5; stroke-linecap: square"/>
   </g>
   <g id="patch_16">
    <path d="M 899.511212 142.920543 
L 899.511212 8.697385 
" style="fill: none; stroke: #000000; stroke-width: 0.8; stroke-linejoin: miter; stroke-linecap: square"/>
   </g>
   <g id="patch_17">
    <path d="M 904.511212 147.920543 
L 1080.85625 147.920543 
" style="fill: none; stroke: #000000; stroke-width: 0.8; stroke-linejoin: miter; stroke-linecap: square"/>
   </g>
  </g>
  <g id="axes_5">
   <g id="patch_18">
    <path d="M 76.45625 317.994227 
L 344.807395 317.994227 
L 344.807395 183.771069 
L 76.45625 183.771069 
z
" style="fill: #ffffff"/>
   </g>
   <g id="patch_19">
    <path d="M 119.073943 317.994227 
L 119.073943 183.771069 
L 139.353784 183.771069 
L 139.353784 317.994227 
z
" clip-path="url(#pe1bb98348e)" style="fill: #808080; opacity: 0.2"/>
   </g>
   <g id="patch_20">
    <path d="M 220.473451 317.994227 
L 220.473451 183.771069 
L 241.05166 183.771069 
L 241.05166 317.994227 
z
" clip-path="url(#pe1bb98348e)" style="fill: #808080; opacity: 0.2"/>
   </g>
   <g id="matplotlib.axis_9">
    <g id="xtick_13">
     <g id="line2d_38">
      <g>
       <use xlink:href="#m99ee80481c" x="119.073943" y="322.994227" style="stroke: #000000; stroke-width: 0.8"/>
      </g>
     </g>
     <g id="text_25">
      <!-- 0.0 -->
      <g transform="translate(103.170818 345.191102)scale(0.2 -0.2)">
       <use xlink:href="#DejaVuSans-30"/>
       <use xlink:href="#DejaVuSans-2e" x="63.623047"/>
       <use xlink:href="#DejaVuSans-30" x="95.410156"/>
      </g>
     </g>
    </g>
    <g id="xtick_14">
     <g id="line2d_39">
      <g>
       <use xlink:href="#m99ee80481c" x="195.421866" y="322.994227" style="stroke: #000000; stroke-width: 0.8"/>
      </g>
     </g>
     <g id="text_26">
      <!-- 0.5 -->
      <g transform="translate(179.518741 345.191102)scale(0.2 -0.2)">
       <use xlink:href="#DejaVuSans-30"/>
       <use xlink:href="#DejaVuSans-2e" x="63.623047"/>
       <use xlink:href="#DejaVuSans-35" x="95.410156"/>
      </g>
     </g>
    </g>
    <g id="xtick_15">
     <g id="line2d_40">
      <g>
       <use xlink:href="#m99ee80481c" x="271.769788" y="322.994227" style="stroke: #000000; stroke-width: 0.8"/>
      </g>
     </g>
     <g id="text_27">
      <!-- 1.0 -->
      <g transform="translate(255.866663 345.191102)scale(0.2 -0.2)">
       <use xlink:href="#DejaVuSans-31"/>
       <use xlink:href="#DejaVuSans-2e" x="63.623047"/>
       <use xlink:href="#DejaVuSans-30" x="95.410156"/>
      </g>
     </g>
    </g>
   </g>
   <g id="matplotlib.axis_10">
    <g id="ytick_13">
     <g id="line2d_41">
      <g>
       <use xlink:href="#m4bda91f07e" x="71.45625" y="311.893174" style="stroke: #000000; stroke-width: 0.8"/>
      </g>
     </g>
     <g id="text_28">
      <!-- 0.0 -->
      <g transform="translate(32.65 319.491612)scale(0.2 -0.2)">
       <use xlink:href="#DejaVuSans-30"/>
       <use xlink:href="#DejaVuSans-2e" x="63.623047"/>
       <use xlink:href="#DejaVuSans-30" x="95.410156"/>
      </g>
     </g>
    </g>
    <g id="ytick_14">
     <g id="line2d_42">
      <g>
       <use xlink:href="#m4bda91f07e" x="71.45625" y="250.882648" style="stroke: #000000; stroke-width: 0.8"/>
      </g>
     </g>
     <g id="text_29">
      <!-- 0.5 -->
      <g transform="translate(32.65 258.481086)scale(0.2 -0.2)">
       <use xlink:href="#DejaVuSans-30"/>
       <use xlink:href="#DejaVuSans-2e" x="63.623047"/>
       <use xlink:href="#DejaVuSans-35" x="95.410156"/>
      </g>
     </g>
    </g>
    <g id="ytick_15">
     <g id="line2d_43">
      <g>
       <use xlink:href="#m4bda91f07e" x="71.45625" y="189.872122" style="stroke: #000000; stroke-width: 0.8"/>
      </g>
     </g>
     <g id="text_30">
      <!-- 1.0 -->
      <g transform="translate(32.65 197.470559)scale(0.2 -0.2)">
       <use xlink:href="#DejaVuSans-31"/>
       <use xlink:href="#DejaVuSans-2e" x="63.623047"/>
       <use xlink:href="#DejaVuSans-30" x="95.410156"/>
      </g>
     </g>
    </g>
   </g>
   <g id="line2d_44">
    <path d="M 88.654029 311.893174 
L 119.670373 311.808291 
L 120.863386 311.579738 
L 121.758031 311.143157 
L 122.354461 310.611179 
L 122.951043 309.777053 
L 123.547473 308.517057 
L 124.143903 306.683212 
L 124.740333 304.111268 
L 125.336916 300.634998 
L 125.933346 296.106447 
L 126.827991 287.127661 
L 127.722788 275.508821 
L 128.915648 256.702681 
L 131.301521 217.258646 
L 132.196319 205.649831 
L 133.090963 197.151549 
L 133.687393 193.345426 
L 134.283823 190.983337 
L 134.582038 190.308604 
L 134.880406 189.945663 
L 135.178621 189.872122 
L 135.476836 190.063985 
L 135.775051 190.496311 
L 136.371481 191.981409 
L 136.968064 194.130032 
L 137.862709 198.205176 
L 139.950366 209.327448 
L 142.038024 220.109045 
L 144.722111 232.580637 
L 146.511554 241.379892 
L 148.002629 250.048357 
L 149.493857 260.115011 
L 152.774374 283.092626 
L 153.967387 289.924502 
L 155.160247 295.430962 
L 156.055044 298.708103 
L 156.949689 301.337535 
L 157.844334 303.420146 
L 158.739132 305.058983 
L 159.931992 306.712574 
L 161.125005 307.919481 
L 162.317864 308.810309 
L 163.809092 309.616706 
L 165.598535 310.284762 
L 167.68604 310.803292 
L 170.37028 311.222628 
L 173.949012 311.539153 
L 179.018973 311.750457 
L 187.966033 311.865242 
L 215.403491 311.893051 
L 221.368249 311.793737 
L 222.561109 311.539784 
L 223.455907 311.067655 
L 224.052337 310.503251 
L 224.648767 309.63208 
L 225.245197 308.33635 
L 225.841779 306.479033 
L 226.438209 303.912902 
L 227.034639 300.495069 
L 227.929437 293.522034 
L 228.824082 284.183879 
L 230.016942 268.422071 
L 233.297612 221.096634 
L 234.192257 211.983459 
L 234.788687 207.477274 
L 235.38527 204.25453 
L 235.9817 202.256932 
L 236.279915 201.683785 
L 236.57813 201.371204 
L 236.876345 201.299611 
L 237.174712 201.448382 
L 237.472927 201.796368 
L 238.069357 203.005495 
L 238.665787 204.763425 
L 239.560432 208.108838 
L 241.349875 215.962855 
L 244.033962 227.578001 
L 247.911063 243.554556 
L 249.103923 249.559158 
L 250.59515 258.401482 
L 253.279238 276.479757 
L 254.770465 285.776168 
L 255.963325 292.003358 
L 257.156338 296.975349 
L 258.050983 299.919316 
L 258.945781 302.277374 
L 259.840426 304.145867 
L 260.73507 305.619463 
L 261.928083 307.11246 
L 263.120943 308.208518 
L 264.313956 309.022569 
L 265.805183 309.764379 
L 267.594473 310.38333 
L 269.682131 310.867018 
L 272.366218 311.260487 
L 276.243319 311.576098 
L 281.909709 311.778446 
L 292.049629 311.875266 
L 331.714818 311.893167 
L 332.609616 311.893168 
L 332.609616 311.893168 
" clip-path="url(#pe1bb98348e)" style="fill: none; stroke: #e9a700; stroke-width: 1.5; stroke-linecap: square"/>
   </g>
   <g id="line2d_45">
    <path d="M 88.654029 311.893174 
L 120.266803 311.806252 
L 121.459816 311.591951 
L 122.354461 311.200317 
L 122.951043 310.737143 
L 123.547473 310.027622 
L 124.143903 308.978794 
L 124.740333 307.482137 
L 125.336916 305.419679 
L 125.933346 302.673844 
L 126.529776 299.14049 
L 127.424573 292.209008 
L 128.319218 283.27953 
L 129.512078 268.685985 
L 133.389178 217.623857 
L 134.283823 208.929282 
L 135.178621 202.08071 
L 136.073266 197.012691 
L 136.968064 193.525537 
L 137.564494 191.948786 
L 138.160924 190.873576 
L 138.757354 190.219956 
L 139.353784 189.914668 
L 139.950366 189.893231 
L 140.546796 190.101009 
L 141.441441 190.748102 
L 142.336239 191.70567 
L 143.529099 193.371672 
L 144.722111 195.483341 
L 145.914971 198.161942 
L 146.809769 200.663949 
L 147.704414 203.687185 
L 148.897274 208.627717 
L 150.090287 214.597365 
L 151.879729 225.011515 
L 155.756677 248.22504 
L 157.546119 257.246857 
L 159.037347 263.676578 
L 160.528422 269.19828 
L 162.01965 273.9355 
L 163.510877 278.013043 
L 165.001952 281.541178 
L 166.791395 285.177949 
L 168.580837 288.28198 
L 170.37028 290.951504 
L 172.15957 293.262725 
L 174.247227 295.585128 
L 176.334885 297.574275 
L 178.720758 299.512181 
L 181.10663 301.155101 
L 183.790718 302.714057 
L 186.474805 304.020774 
L 189.457261 305.230117 
L 192.737778 306.319544 
L 196.316511 307.275892 
L 200.491826 308.150005 
L 205.263571 308.905891 
L 210.929961 309.560145 
L 217.789364 310.114231 
L 221.964679 310.290311 
L 223.157692 310.17473 
L 224.052337 309.899964 
L 224.648767 309.555835 
L 225.245197 309.018391 
L 225.841779 308.217688 
L 226.438209 307.072973 
L 227.034639 305.497343 
L 227.631222 303.404957 
L 228.525867 299.137707 
L 229.420512 293.385532 
L 230.31531 286.163305 
L 231.508169 274.658208 
L 235.087055 238.168181 
L 236.279915 228.990086 
L 237.174712 223.636005 
L 238.069357 219.546096 
L 238.964002 216.579783 
L 239.8588 214.553047 
L 240.45523 213.628738 
L 241.05166 212.983146 
L 241.64809 212.568423 
L 242.244672 212.343487 
L 243.139317 212.290238 
L 244.033962 212.508647 
L 244.92876 212.957418 
L 245.823405 213.63517 
L 246.718203 214.57833 
L 247.612848 215.854714 
L 248.507493 217.550468 
L 249.40229 219.75005 
L 250.296935 222.512416 
L 251.489948 227.08376 
L 252.981023 234.0095 
L 258.647413 262.145643 
L 260.13864 268.009528 
L 261.629868 273.056927 
L 263.120943 277.384883 
L 264.612171 281.103743 
L 266.103398 284.315225 
L 267.892688 287.619414 
L 269.682131 290.435422 
L 271.471573 292.855238 
L 273.559231 295.271255 
L 275.646889 297.32974 
L 277.734394 299.095667 
L 280.120419 300.819303 
L 282.506139 302.283528 
L 285.190379 303.675786 
L 288.172682 304.963006 
L 291.453199 306.122382 
L 295.032084 307.140352 
L 298.909032 308.011785 
L 303.382562 308.784555 
L 308.452522 309.434367 
L 314.715495 310.004377 
L 322.767758 310.495973 
L 331.118388 310.802316 
L 332.609616 310.815128 
L 332.609616 310.815128 
" clip-path="url(#pe1bb98348e)" style="fill: none; stroke: #30408d; stroke-width: 1.5; stroke-linecap: square"/>
   </g>
   <g id="line2d_46">
    <path d="M 88.654029 311.893174 
L 120.863386 311.810325 
L 122.056246 311.620534 
L 122.951043 311.286816 
L 123.547473 310.902366 
L 124.143903 310.325577 
L 124.740333 309.48969 
L 125.336916 308.319015 
L 125.933346 306.733733 
L 126.529776 304.656866 
L 127.424573 300.481675 
L 128.319218 294.930433 
L 129.213863 288.031611 
L 130.406876 277.110117 
L 134.880406 233.486499 
L 136.371481 222.204395 
L 137.564494 214.70721 
L 138.757354 208.412168 
L 139.950366 203.168495 
L 141.143226 198.858999 
L 142.336239 195.405259 
L 143.230884 193.350628 
L 144.125529 191.752145 
L 145.020326 190.623646 
L 145.616756 190.146308 
L 146.213186 189.902423 
L 146.809769 189.905142 
L 147.406199 190.167462 
L 148.002629 190.700457 
L 148.599059 191.511445 
L 149.493857 193.251555 
L 150.388502 195.597933 
L 151.581514 199.566031 
L 153.072589 205.563571 
L 155.458462 216.38785 
L 159.037347 232.492923 
L 161.42322 242.106694 
L 163.510877 249.622358 
L 165.598535 256.328308 
L 167.68604 262.288619 
L 169.773697 267.577693 
L 171.861355 272.269323 
L 173.949012 276.432183 
L 176.03667 280.128285 
L 178.124328 283.412794 
L 180.5102 286.724732 
L 182.896073 289.625894 
L 185.281945 292.170909 
L 187.667818 294.406786 
L 190.351906 296.602756 
L 193.035993 298.507584 
L 196.018296 300.332805 
L 199.000751 301.897322 
L 202.281268 303.364339 
L 205.860001 304.710731 
L 209.737101 305.92212 
L 213.912416 306.991931 
L 218.684162 307.974838 
L 222.262894 308.511407 
L 223.754122 308.514789 
L 224.648767 308.309598 
L 225.543564 307.809167 
L 226.139994 307.231319 
L 226.736424 306.391957 
L 227.332854 305.23164 
L 227.929437 303.694729 
L 228.824082 300.589859 
L 229.718727 296.471659 
L 230.911739 289.529475 
L 232.701182 277.178085 
L 234.788687 262.979367 
L 236.279915 254.554498 
L 237.472927 249.026096 
L 238.665787 244.386211 
L 240.157015 239.471134 
L 241.946457 234.407994 
L 243.735747 230.001309 
L 245.226975 226.838632 
L 246.419835 224.730164 
L 247.314633 223.465859 
L 248.209278 222.53848 
L 248.805708 222.138485 
L 249.40229 221.933596 
L 249.99872 221.938391 
L 250.59515 222.163144 
L 251.19158 222.612618 
L 251.788163 223.285318 
L 252.682808 224.693964 
L 253.577453 226.534875 
L 254.770465 229.534891 
L 256.559908 234.804793 
L 263.419158 255.860731 
L 265.805183 262.178373 
L 268.190903 267.834236 
L 270.576928 272.862045 
L 272.962648 277.314323 
L 275.348674 281.248691 
L 277.734394 284.721703 
L 280.120419 287.786201 
L 282.506139 290.490329 
L 284.892164 292.877316 
L 287.576252 295.231286 
L 290.260339 297.280398 
L 292.944427 299.066139 
L 295.926729 300.784657 
L 299.2074 302.39985 
L 302.487917 303.77161 
L 306.06665 305.035536 
L 309.94375 306.177136 
L 314.41728 307.253944 
L 319.189025 308.174397 
L 324.5572 308.988068 
L 329.62716 309.548728 
L 332.609616 309.679755 
L 332.609616 309.679755 
" clip-path="url(#pe1bb98348e)" style="fill: none; stroke: #bb2666; stroke-width: 1.5; stroke-linecap: square"/>
   </g>
   <g id="line2d_47">
    <path d="M 76.45625 311.893174 
L 344.807395 311.893174 
" clip-path="url(#pe1bb98348e)" style="fill: none; stroke: #808080; stroke-opacity: 0.5; stroke-width: 0.5; stroke-linecap: square"/>
   </g>
   <g id="patch_21">
    <path d="M 71.45625 317.994227 
L 71.45625 183.771069 
" style="fill: none; stroke: #000000; stroke-width: 0.8; stroke-linejoin: miter; stroke-linecap: square"/>
   </g>
   <g id="patch_22">
    <path d="M 76.45625 322.994227 
L 344.807395 322.994227 
" style="fill: none; stroke: #000000; stroke-width: 0.8; stroke-linejoin: miter; stroke-linecap: square"/>
   </g>
  </g>
  <g id="axes_6">
   <g id="patch_23">
    <path d="M 444.480677 317.994227 
L 620.825716 317.994227 
L 620.825716 183.771069 
L 444.480677 183.771069 
z
" style="fill: #ffffff"/>
   </g>
   <g id="patch_24">
    <path d="M 472.48659 317.994227 
L 472.48659 183.771069 
L 485.813342 183.771069 
L 485.813342 317.994227 
z
" clip-path="url(#pcbd8378fba)" style="fill: #808080; opacity: 0.2"/>
   </g>
   <g id="patch_25">
    <path d="M 539.120553 317.994227 
L 539.120553 183.771069 
L 552.643375 183.771069 
L 552.643375 317.994227 
z
" clip-path="url(#pcbd8378fba)" style="fill: #808080; opacity: 0.2"/>
   </g>
   <g id="matplotlib.axis_11">
    <g id="xtick_16">
     <g id="line2d_48">
      <g>
       <use xlink:href="#m99ee80481c" x="472.48659" y="322.994227" style="stroke: #000000; stroke-width: 0.8"/>
      </g>
     </g>
     <g id="text_31">
      <!-- 0.0 -->
      <g transform="translate(456.583465 345.191102)scale(0.2 -0.2)">
       <use xlink:href="#DejaVuSans-30"/>
       <use xlink:href="#DejaVuSans-2e" x="63.623047"/>
       <use xlink:href="#DejaVuSans-30" x="95.410156"/>
      </g>
     </g>
    </g>
    <g id="xtick_17">
     <g id="line2d_49">
      <g>
       <use xlink:href="#m99ee80481c" x="522.658082" y="322.994227" style="stroke: #000000; stroke-width: 0.8"/>
      </g>
     </g>
     <g id="text_32">
      <!-- 0.5 -->
      <g transform="translate(506.754957 345.191102)scale(0.2 -0.2)">
       <use xlink:href="#DejaVuSans-30"/>
       <use xlink:href="#DejaVuSans-2e" x="63.623047"/>
       <use xlink:href="#DejaVuSans-35" x="95.410156"/>
      </g>
     </g>
    </g>
    <g id="xtick_18">
     <g id="line2d_50">
      <g>
       <use xlink:href="#m99ee80481c" x="572.829574" y="322.994227" style="stroke: #000000; stroke-width: 0.8"/>
      </g>
     </g>
     <g id="text_33">
      <!-- 1.0 -->
      <g transform="translate(556.926449 345.191102)scale(0.2 -0.2)">
       <use xlink:href="#DejaVuSans-31"/>
       <use xlink:href="#DejaVuSans-2e" x="63.623047"/>
       <use xlink:href="#DejaVuSans-30" x="95.410156"/>
      </g>
     </g>
    </g>
   </g>
   <g id="matplotlib.axis_12">
    <g id="ytick_16">
     <g id="line2d_51">
      <g>
       <use xlink:href="#m4bda91f07e" x="439.480677" y="311.893174" style="stroke: #000000; stroke-width: 0.8"/>
      </g>
     </g>
     <g id="text_34">
      <!-- 0.0 -->
      <g transform="translate(400.674427 319.491612)scale(0.2 -0.2)">
       <use xlink:href="#DejaVuSans-30"/>
       <use xlink:href="#DejaVuSans-2e" x="63.623047"/>
       <use xlink:href="#DejaVuSans-30" x="95.410156"/>
      </g>
     </g>
    </g>
    <g id="ytick_17">
     <g id="line2d_52">
      <g>
       <use xlink:href="#m4bda91f07e" x="439.480677" y="250.882648" style="stroke: #000000; stroke-width: 0.8"/>
      </g>
     </g>
     <g id="text_35">
      <!-- 0.5 -->
      <g transform="translate(400.674427 258.481086)scale(0.2 -0.2)">
       <use xlink:href="#DejaVuSans-30"/>
       <use xlink:href="#DejaVuSans-2e" x="63.623047"/>
       <use xlink:href="#DejaVuSans-35" x="95.410156"/>
      </g>
     </g>
    </g>
    <g id="ytick_18">
     <g id="line2d_53">
      <g>
       <use xlink:href="#m4bda91f07e" x="439.480677" y="189.872122" style="stroke: #000000; stroke-width: 0.8"/>
      </g>
     </g>
     <g id="text_36">
      <!-- 1.0 -->
      <g transform="translate(400.674427 197.470559)scale(0.2 -0.2)">
       <use xlink:href="#DejaVuSans-31"/>
       <use xlink:href="#DejaVuSans-2e" x="63.623047"/>
       <use xlink:href="#DejaVuSans-30" x="95.410156"/>
      </g>
     </g>
    </g>
   </g>
   <g id="line2d_54">
    <path d="M 452.496361 311.893174 
L 478.366087 311.893174 
L 478.758027 306.026373 
L 479.541906 286.399878 
L 480.913795 251.949283 
L 481.893745 233.769366 
L 482.677624 222.940761 
L 483.461604 214.717055 
L 484.245584 208.49289 
L 485.029463 203.777955 
L 485.813342 200.195663 
L 486.597322 197.463284 
L 487.381302 195.370421 
L 488.361151 193.419529 
L 489.341101 192.006134 
L 490.32095 190.976813 
L 491.496869 190.099344 
L 491.692839 189.982238 
L 491.888809 191.785304 
L 492.280849 199.044668 
L 493.456668 229.715473 
L 494.436618 252.421612 
L 495.416567 269.582824 
L 496.200447 279.80626 
L 496.984426 287.577907 
L 497.768306 293.455822 
L 498.552286 297.893827 
L 499.336165 301.245026 
L 500.120145 303.778427 
L 500.904024 305.696856 
L 501.883974 307.458142 
L 502.863823 308.709539 
L 503.843773 309.601633 
L 505.019692 310.343678 
L 506.391581 310.907649 
L 507.95944 311.30292 
L 510.115209 311.599593 
L 513.250927 311.785804 
L 519.326394 311.877567 
L 545.00005 311.89317 
L 545.391989 306.026368 
L 546.175969 286.399874 
L 547.547858 251.949279 
L 548.527708 233.769363 
L 549.311687 222.940759 
L 550.095667 214.717054 
L 550.879546 208.492889 
L 551.663426 203.777953 
L 552.447406 200.195662 
L 553.231385 197.463284 
L 554.015265 195.370421 
L 554.995214 193.419528 
L 555.975063 192.006133 
L 556.955013 190.976812 
L 558.130932 190.099344 
L 558.522872 189.872122 
L 558.718842 191.681826 
L 559.110782 198.953438 
L 560.286701 229.65355 
L 561.266651 252.377096 
L 562.2465 269.550947 
L 563.03048 279.7819 
L 563.814359 287.559309 
L 564.598339 293.441631 
L 565.382218 297.883002 
L 566.166198 301.236767 
L 566.950077 303.772125 
L 567.734057 305.692044 
L 568.713906 307.454705 
L 569.693856 308.707081 
L 570.673805 309.599874 
L 571.849625 310.342498 
L 573.221514 310.906906 
L 574.789373 311.302481 
L 576.945242 311.59938 
L 580.08096 311.785728 
L 586.156327 311.877557 
L 612.613962 311.893171 
L 612.810032 311.893171 
L 612.810032 311.893171 
" clip-path="url(#pcbd8378fba)" style="fill: none; stroke: #e9a700; stroke-opacity: 0.3; stroke-width: 1.5; stroke-linecap: square"/>
   </g>
   <g id="line2d_55">
    <path d="M 452.496361 311.893174 
L 478.366087 311.893174 
L 478.758027 311.537017 
L 479.149966 310.639557 
L 479.541906 309.15372 
L 480.129916 305.878081 
L 480.913795 299.873087 
L 482.089715 288.490849 
L 484.833493 258.34677 
L 486.989262 236.191128 
L 488.753091 220.353479 
L 490.32095 208.083532 
L 491.888809 197.437667 
L 492.476819 194.539437 
L 492.868759 193.362034 
L 493.260698 192.826034 
L 493.456668 192.791511 
L 493.652738 192.9049 
L 494.044678 193.54525 
L 494.436618 194.680827 
L 495.024527 197.15886 
L 495.808507 201.555892 
L 496.984426 209.567162 
L 501.295964 240.207557 
L 502.863823 249.446589 
L 504.431682 257.405267 
L 505.999541 264.191447 
L 507.5674 269.957102 
L 509.135259 274.857758 
L 510.703119 279.035123 
L 512.270978 282.611311 
L 513.838837 285.688478 
L 515.602766 288.657915 
L 517.366595 291.198504 
L 519.326394 293.611211 
L 521.286193 295.671568 
L 523.441961 297.607334 
L 525.7938 299.398824 
L 528.341609 301.035952 
L 531.085287 302.515924 
L 534.025036 303.841202 
L 537.356724 305.084449 
L 541.080452 306.217847 
L 545.00005 307.182857 
L 545.391989 307.032559 
L 545.784029 306.364389 
L 546.175969 305.094508 
L 546.763879 302.094267 
L 547.547858 296.373474 
L 548.527708 287.287312 
L 550.487607 266.27571 
L 553.035315 239.412915 
L 554.799144 223.045135 
L 556.563073 208.825969 
L 558.130932 197.894222 
L 559.110782 192.226091 
L 559.502822 190.806892 
L 559.894761 190.024539 
L 560.090731 189.872122 
L 560.286701 189.873476 
L 560.482671 190.022381 
L 560.874611 190.732636 
L 561.266651 191.936552 
L 561.85456 194.514027 
L 562.63854 199.037755 
L 564.010329 208.681163 
L 567.734057 235.844424 
L 569.497886 246.689197 
L 571.065745 254.94297 
L 572.633604 261.992401 
L 574.201463 267.988776 
L 575.769323 273.090125 
L 577.337182 277.441773 
L 578.905041 281.16957 
L 580.4729 284.379103 
L 582.236729 287.478144 
L 584.000558 290.131286 
L 585.960357 292.652536 
L 587.920256 294.807073 
L 590.076025 296.832787 
L 592.231793 298.564243 
L 594.583632 300.179718 
L 597.131441 301.667535 
L 599.875119 303.02241 
L 603.010837 304.318052 
L 606.538596 305.51905 
L 610.458193 306.603195 
L 612.810032 307.151616 
L 612.810032 307.151616 
" clip-path="url(#pcbd8378fba)" style="fill: none; stroke-dasharray: 7.4,3.2; stroke-dashoffset: 0; stroke: #e9a700; stroke-width: 2"/>
   </g>
   <g id="line2d_56">
    <path d="M 444.480677 311.893174 
L 620.825716 311.893174 
" clip-path="url(#pcbd8378fba)" style="fill: none; stroke: #808080; stroke-opacity: 0.5; stroke-width: 0.5; stroke-linecap: square"/>
   </g>
   <g id="patch_26">
    <path d="M 439.480677 317.994227 
L 439.480677 183.771069 
" style="fill: none; stroke: #000000; stroke-width: 0.8; stroke-linejoin: miter; stroke-linecap: square"/>
   </g>
   <g id="patch_27">
    <path d="M 444.480677 322.994227 
L 620.825716 322.994227 
" style="fill: none; stroke: #000000; stroke-width: 0.8; stroke-linejoin: miter; stroke-linecap: square"/>
   </g>
  </g>
  <g id="axes_7">
   <g id="patch_28">
    <path d="M 674.495945 317.994227 
L 850.840983 317.994227 
L 850.840983 183.771069 
L 674.495945 183.771069 
z
" style="fill: #ffffff"/>
   </g>
   <g id="patch_29">
    <path d="M 702.501857 317.994227 
L 702.501857 183.771069 
L 715.82861 183.771069 
L 715.82861 317.994227 
z
" clip-path="url(#p1a3f41b747)" style="fill: #808080; opacity: 0.2"/>
   </g>
   <g id="patch_30">
    <path d="M 769.13582 317.994227 
L 769.13582 183.771069 
L 782.658643 183.771069 
L 782.658643 317.994227 
z
" clip-path="url(#p1a3f41b747)" style="fill: #808080; opacity: 0.2"/>
   </g>
   <g id="matplotlib.axis_13">
    <g id="xtick_19">
     <g id="line2d_57">
      <g>
       <use xlink:href="#m99ee80481c" x="702.501857" y="322.994227" style="stroke: #000000; stroke-width: 0.8"/>
      </g>
     </g>
     <g id="text_37">
      <!-- 0.0 -->
      <g transform="translate(686.598732 345.191102)scale(0.2 -0.2)">
       <use xlink:href="#DejaVuSans-30"/>
       <use xlink:href="#DejaVuSans-2e" x="63.623047"/>
       <use xlink:href="#DejaVuSans-30" x="95.410156"/>
      </g>
     </g>
    </g>
    <g id="xtick_20">
     <g id="line2d_58">
      <g>
       <use xlink:href="#m99ee80481c" x="752.673349" y="322.994227" style="stroke: #000000; stroke-width: 0.8"/>
      </g>
     </g>
     <g id="text_38">
      <!-- 0.5 -->
      <g transform="translate(736.770224 345.191102)scale(0.2 -0.2)">
       <use xlink:href="#DejaVuSans-30"/>
       <use xlink:href="#DejaVuSans-2e" x="63.623047"/>
       <use xlink:href="#DejaVuSans-35" x="95.410156"/>
      </g>
     </g>
    </g>
    <g id="xtick_21">
     <g id="line2d_59">
      <g>
       <use xlink:href="#m99ee80481c" x="802.844841" y="322.994227" style="stroke: #000000; stroke-width: 0.8"/>
      </g>
     </g>
     <g id="text_39">
      <!-- 1.0 -->
      <g transform="translate(786.941716 345.191102)scale(0.2 -0.2)">
       <use xlink:href="#DejaVuSans-31"/>
       <use xlink:href="#DejaVuSans-2e" x="63.623047"/>
       <use xlink:href="#DejaVuSans-30" x="95.410156"/>
      </g>
     </g>
    </g>
   </g>
   <g id="matplotlib.axis_14">
    <g id="ytick_19">
     <g id="line2d_60">
      <g>
       <use xlink:href="#m4bda91f07e" x="669.495945" y="311.893174" style="stroke: #000000; stroke-width: 0.8"/>
      </g>
     </g>
     <g id="text_40">
      <!-- 0.0 -->
      <g transform="translate(630.689695 319.491612)scale(0.2 -0.2)">
       <use xlink:href="#DejaVuSans-30"/>
       <use xlink:href="#DejaVuSans-2e" x="63.623047"/>
       <use xlink:href="#DejaVuSans-30" x="95.410156"/>
      </g>
     </g>
    </g>
    <g id="ytick_20">
     <g id="line2d_61">
      <g>
       <use xlink:href="#m4bda91f07e" x="669.495945" y="250.882648" style="stroke: #000000; stroke-width: 0.8"/>
      </g>
     </g>
     <g id="text_41">
      <!-- 0.5 -->
      <g transform="translate(630.689695 258.481086)scale(0.2 -0.2)">
       <use xlink:href="#DejaVuSans-30"/>
       <use xlink:href="#DejaVuSans-2e" x="63.623047"/>
       <use xlink:href="#DejaVuSans-35" x="95.410156"/>
      </g>
     </g>
    </g>
    <g id="ytick_21">
     <g id="line2d_62">
      <g>
       <use xlink:href="#m4bda91f07e" x="669.495945" y="189.872122" style="stroke: #000000; stroke-width: 0.8"/>
      </g>
     </g>
     <g id="text_42">
      <!-- 1.0 -->
      <g transform="translate(630.689695 197.470559)scale(0.2 -0.2)">
       <use xlink:href="#DejaVuSans-31"/>
       <use xlink:href="#DejaVuSans-2e" x="63.623047"/>
       <use xlink:href="#DejaVuSans-30" x="95.410156"/>
      </g>
     </g>
    </g>
   </g>
   <g id="line2d_63">
    <path d="M 682.511628 311.893174 
L 708.381354 311.893174 
L 708.773294 310.306454 
L 709.361203 305.877203 
L 710.145183 297.827631 
L 715.43667 238.828526 
L 717.200499 223.322501 
L 718.768358 211.365966 
L 720.336217 200.928796 
L 721.708106 192.898466 
L 721.904076 192.289721 
L 722.100046 192.088723 
L 722.296116 192.233356 
L 722.688056 193.353463 
L 723.275966 196.512685 
L 724.059945 202.319857 
L 729.155462 243.321363 
L 730.723321 253.201268 
L 732.291181 261.715436 
L 733.85904 269.015358 
L 735.426899 275.248826 
L 736.994758 280.553207 
L 738.562617 285.054238 
L 740.130476 288.86563 
L 741.698335 292.088883 
L 743.266194 294.813396 
L 744.834054 297.116933 
L 746.597883 299.288138 
L 748.361712 301.091411 
L 750.125541 302.593371 
L 752.08544 303.97508 
L 754.241208 305.215275 
L 756.592947 306.305867 
L 759.336725 307.31324 
L 762.472444 308.204342 
L 766.000102 308.967159 
L 770.311739 309.658766 
L 775.015317 310.207203 
L 775.407256 308.664666 
L 775.995266 304.274023 
L 776.779146 296.263179 
L 779.326954 266.22277 
L 781.286753 245.056618 
L 783.050582 228.55755 
L 784.618441 215.816684 
L 786.1863 204.693676 
L 787.75416 194.998779 
L 788.538139 190.631317 
L 788.734109 190.047849 
L 788.930079 189.872122 
L 789.126049 190.041992 
L 789.518089 191.212384 
L 790.105998 194.446275 
L 790.889878 200.350984 
L 795.789525 240.547023 
L 797.357284 250.747385 
L 798.925244 259.549936 
L 800.493002 267.106425 
L 802.060962 273.566893 
L 803.628721 279.071295 
L 805.19668 283.747961 
L 806.764439 287.713141 
L 808.332398 291.070784 
L 809.900157 293.9126 
L 811.468117 296.318495 
L 813.035876 298.357326 
L 814.799805 300.285092 
L 816.563634 301.892658 
L 818.523433 303.37327 
L 820.679201 304.703872 
L 823.03104 305.875419 
L 825.578749 306.88997 
L 828.518497 307.811935 
L 831.850185 308.619181 
L 835.769883 309.337528 
L 840.47346 309.970758 
L 842.825299 310.219439 
L 842.825299 310.219439 
" clip-path="url(#p1a3f41b747)" style="fill: none; stroke: #30408d; stroke-opacity: 0.3; stroke-width: 1.5; stroke-linecap: square"/>
   </g>
   <g id="line2d_64">
    <path d="M 682.511628 311.893174 
L 708.773294 311.829104 
L 709.361203 311.507168 
L 709.949213 310.843309 
L 710.537123 309.803338 
L 711.321102 307.823517 
L 712.104982 305.193036 
L 713.084931 301.070418 
L 714.260851 295.061845 
L 715.63264 286.859422 
L 717.396569 274.901715 
L 719.944277 255.843769 
L 723.471935 229.216732 
L 724.451885 223.686807 
L 725.431835 219.394383 
L 726.215714 216.788627 
L 726.999694 214.841564 
L 727.783573 213.476069 
L 728.567553 212.616997 
L 729.155462 212.262713 
L 729.743372 212.126677 
L 730.331382 212.183928 
L 731.115261 212.521812 
L 731.899241 213.114626 
L 732.87909 214.150204 
L 734.05501 215.73324 
L 735.622869 218.261429 
L 737.778637 222.220144 
L 742.286245 231.130073 
L 746.597883 239.440017 
L 750.125541 245.749934 
L 753.457229 251.24138 
L 756.789017 256.281643 
L 759.924735 260.634108 
L 763.256423 264.870962 
L 766.588112 268.738253 
L 769.9198 272.265274 
L 773.251488 275.479578 
L 775.603327 277.487837 
L 776.191236 277.654698 
L 776.583176 277.577413 
L 776.975216 277.332964 
L 777.563125 276.640702 
L 778.151035 275.557379 
L 778.935015 273.52719 
L 779.718894 270.874667 
L 780.698844 266.778107 
L 781.874763 260.884448 
L 783.442622 251.71066 
L 785.402421 238.738684 
L 788.342169 217.510277 
L 789.910029 206.50995 
L 790.889878 200.954505 
L 791.869827 196.641546 
L 792.653807 194.050469 
L 793.437687 192.153968 
L 794.221566 190.876213 
L 794.809576 190.277639 
L 795.397485 189.952714 
L 795.985495 189.872122 
L 796.573405 190.008611 
L 797.357284 190.485226 
L 798.141264 191.249844 
L 799.121214 192.539401 
L 800.297033 194.47375 
L 801.864892 197.529188 
L 804.020761 202.283309 
L 808.528368 212.952713 
L 812.839906 222.908989 
L 816.171594 230.074811 
L 819.503382 236.703329 
L 822.6391 242.450812 
L 825.774819 247.74327 
L 828.910537 252.608985 
L 832.046255 257.077948 
L 835.181973 261.179583 
L 838.513662 265.166407 
L 841.84535 268.801792 
L 842.825299 269.808495 
L 842.825299 269.808495 
" clip-path="url(#p1a3f41b747)" style="fill: none; stroke-dasharray: 7.4,3.2; stroke-dashoffset: 0; stroke: #30408d; stroke-width: 2"/>
   </g>
   <g id="line2d_65">
    <path d="M 674.495945 311.893174 
L 850.840983 311.893174 
" clip-path="url(#p1a3f41b747)" style="fill: none; stroke: #808080; stroke-opacity: 0.5; stroke-width: 0.5; stroke-linecap: square"/>
   </g>
   <g id="patch_31">
    <path d="M 669.495945 317.994227 
L 669.495945 183.771069 
" style="fill: none; stroke: #000000; stroke-width: 0.8; stroke-linejoin: miter; stroke-linecap: square"/>
   </g>
   <g id="patch_32">
    <path d="M 674.495945 322.994227 
L 850.840983 322.994227 
" style="fill: none; stroke: #000000; stroke-width: 0.8; stroke-linejoin: miter; stroke-linecap: square"/>
   </g>
  </g>
  <g id="axes_8">
   <g id="patch_33">
    <path d="M 904.511212 317.994227 
L 1080.85625 317.994227 
L 1080.85625 183.771069 
L 904.511212 183.771069 
z
" style="fill: #ffffff"/>
   </g>
   <g id="patch_34">
    <path d="M 932.517124 317.994227 
L 932.517124 183.771069 
L 945.843877 183.771069 
L 945.843877 317.994227 
z
" clip-path="url(#p53d7359a0c)" style="fill: #808080; opacity: 0.2"/>
   </g>
   <g id="patch_35">
    <path d="M 999.151087 317.994227 
L 999.151087 183.771069 
L 1012.67391 183.771069 
L 1012.67391 317.994227 
z
" clip-path="url(#p53d7359a0c)" style="fill: #808080; opacity: 0.2"/>
   </g>
   <g id="matplotlib.axis_15">
    <g id="xtick_22">
     <g id="line2d_66">
      <g>
       <use xlink:href="#m99ee80481c" x="932.517124" y="322.994227" style="stroke: #000000; stroke-width: 0.8"/>
      </g>
     </g>
     <g id="text_43">
      <!-- 0.0 -->
      <g transform="translate(916.613999 345.191102)scale(0.2 -0.2)">
       <use xlink:href="#DejaVuSans-30"/>
       <use xlink:href="#DejaVuSans-2e" x="63.623047"/>
       <use xlink:href="#DejaVuSans-30" x="95.410156"/>
      </g>
     </g>
    </g>
    <g id="xtick_23">
     <g id="line2d_67">
      <g>
       <use xlink:href="#m99ee80481c" x="982.688616" y="322.994227" style="stroke: #000000; stroke-width: 0.8"/>
      </g>
     </g>
     <g id="text_44">
      <!-- 0.5 -->
      <g transform="translate(966.785491 345.191102)scale(0.2 -0.2)">
       <use xlink:href="#DejaVuSans-30"/>
       <use xlink:href="#DejaVuSans-2e" x="63.623047"/>
       <use xlink:href="#DejaVuSans-35" x="95.410156"/>
      </g>
     </g>
    </g>
    <g id="xtick_24">
     <g id="line2d_68">
      <g>
       <use xlink:href="#m99ee80481c" x="1032.860109" y="322.994227" style="stroke: #000000; stroke-width: 0.8"/>
      </g>
     </g>
     <g id="text_45">
      <!-- 1.0 -->
      <g transform="translate(1016.956984 345.191102)scale(0.2 -0.2)">
       <use xlink:href="#DejaVuSans-31"/>
       <use xlink:href="#DejaVuSans-2e" x="63.623047"/>
       <use xlink:href="#DejaVuSans-30" x="95.410156"/>
      </g>
     </g>
    </g>
   </g>
   <g id="matplotlib.axis_16">
    <g id="ytick_22">
     <g id="line2d_69">
      <g>
       <use xlink:href="#m4bda91f07e" x="899.511212" y="311.893174" style="stroke: #000000; stroke-width: 0.8"/>
      </g>
     </g>
     <g id="text_46">
      <!-- 0.0 -->
      <g transform="translate(860.704962 319.491612)scale(0.2 -0.2)">
       <use xlink:href="#DejaVuSans-30"/>
       <use xlink:href="#DejaVuSans-2e" x="63.623047"/>
       <use xlink:href="#DejaVuSans-30" x="95.410156"/>
      </g>
     </g>
    </g>
    <g id="ytick_23">
     <g id="line2d_70">
      <g>
       <use xlink:href="#m4bda91f07e" x="899.511212" y="250.882648" style="stroke: #000000; stroke-width: 0.8"/>
      </g>
     </g>
     <g id="text_47">
      <!-- 0.5 -->
      <g transform="translate(860.704962 258.481086)scale(0.2 -0.2)">
       <use xlink:href="#DejaVuSans-30"/>
       <use xlink:href="#DejaVuSans-2e" x="63.623047"/>
       <use xlink:href="#DejaVuSans-35" x="95.410156"/>
      </g>
     </g>
    </g>
    <g id="ytick_24">
     <g id="line2d_71">
      <g>
       <use xlink:href="#m4bda91f07e" x="899.511212" y="189.872122" style="stroke: #000000; stroke-width: 0.8"/>
      </g>
     </g>
     <g id="text_48">
      <!-- 1.0 -->
      <g transform="translate(860.704962 197.470559)scale(0.2 -0.2)">
       <use xlink:href="#DejaVuSans-31"/>
       <use xlink:href="#DejaVuSans-2e" x="63.623047"/>
       <use xlink:href="#DejaVuSans-30" x="95.410156"/>
      </g>
     </g>
    </g>
   </g>
   <g id="line2d_72">
    <path d="M 912.526895 311.893174 
L 938.396621 311.893174 
L 938.788561 311.028897 
L 939.180501 309.394298 
L 939.76851 305.795904 
L 940.55239 299.470857 
L 941.924279 286.085891 
L 947.019796 234.275118 
L 949.175665 215.30265 
L 951.331434 198.388933 
L 951.919343 194.400958 
L 952.311383 192.928551 
L 952.703323 192.313162 
L 952.899293 192.269586 
L 953.095263 192.375996 
L 953.487203 192.972035 
L 954.075212 194.616508 
L 954.859092 197.766049 
L 956.035011 203.630173 
L 963.286397 241.919853 
L 965.442166 251.46229 
L 967.597935 259.970974 
L 969.557834 266.830437 
L 971.517633 272.897211 
L 973.477432 278.225503 
L 975.43723 282.877917 
L 977.39713 286.920784 
L 979.356928 290.420477 
L 981.316727 293.440805 
L 983.276526 296.041343 
L 985.236425 298.276511 
L 987.196224 300.195209 
L 989.351993 301.991874 
L 991.507862 303.508402 
L 993.8596 304.894044 
L 996.407409 306.132125 
L 999.151087 307.215433 
L 1002.286805 308.199545 
L 1005.030584 308.884015 
L 1005.226554 308.65175 
L 1005.618594 307.531498 
L 1006.206503 304.52598 
L 1006.990483 298.746699 
L 1008.166302 287.855904 
L 1014.829678 222.181795 
L 1016.985547 204.533899 
L 1018.749376 191.852149 
L 1019.141316 190.440666 
L 1019.533356 189.885708 
L 1019.729326 189.872122 
L 1020.121266 190.277265 
L 1020.513205 191.153207 
L 1021.101115 193.126288 
L 1021.885095 196.590573 
L 1023.256984 203.850009 
L 1028.744441 234.041 
L 1031.09628 245.319607 
L 1033.252048 254.553406 
L 1035.211947 262.036073 
L 1037.171746 268.682534 
L 1039.131545 274.541452 
L 1041.091344 279.672916 
L 1043.051143 284.143275 
L 1045.011042 288.020818 
L 1046.970841 291.372532 
L 1048.930639 294.261901 
L 1050.890539 296.747567 
L 1052.850337 298.882678 
L 1055.006106 300.882889 
L 1057.161975 302.571678 
L 1059.513714 304.114868 
L 1061.865452 305.39712 
L 1064.413261 306.542995 
L 1067.353009 307.609678 
L 1070.488728 308.507428 
L 1072.840566 309.050916 
L 1072.840566 309.050916 
" clip-path="url(#p53d7359a0c)" style="fill: none; stroke: #bb2666; stroke-opacity: 0.3; stroke-width: 1.5; stroke-linecap: square"/>
   </g>
   <g id="line2d_73">
    <path d="M 912.526895 311.893174 
L 938.788561 311.836744 
L 939.37647 311.53429 
L 939.96448 310.875755 
L 940.55239 309.803806 
L 941.1404 308.299627 
L 941.924279 305.638264 
L 942.904229 301.355203 
L 944.080048 295.058515 
L 945.647907 285.25249 
L 947.999746 268.865695 
L 953.095263 232.673109 
L 954.075212 227.647238 
L 954.859092 224.639991 
L 955.643072 222.465397 
L 956.426951 221.011351 
L 957.014961 220.318036 
L 957.60287 219.90711 
L 958.19078 219.730069 
L 958.77879 219.743255 
L 959.562669 219.991361 
L 960.542619 220.568262 
L 961.914508 221.679915 
L 964.462216 224.118786 
L 978.964989 238.572835 
L 983.864536 244.078084 
L 996.995318 259.023511 
L 1001.698896 263.935938 
L 1005.226554 267.365787 
L 1005.814564 267.742234 
L 1006.206503 267.827485 
L 1006.598443 267.748535 
L 1006.990483 267.488959 
L 1007.578393 266.743448 
L 1008.166302 265.568107 
L 1008.950282 263.362773 
L 1009.930131 259.689719 
L 1011.106051 254.1851 
L 1012.67391 245.513844 
L 1014.829678 232.1655 
L 1020.121266 198.731706 
L 1020.905145 195.352731 
L 1021.689125 192.865071 
L 1022.473004 191.201294 
L 1023.061014 190.427796 
L 1023.648924 190.002302 
L 1024.236833 189.872122 
L 1024.824843 189.987537 
L 1025.608722 190.446067 
L 1026.588672 191.381617 
L 1027.764591 192.851239 
L 1029.72439 195.715957 
L 1037.563686 207.491341 
L 1046.382931 220.53148 
L 1060.101623 241.107583 
L 1064.609231 247.351371 
L 1068.724899 252.678251 
L 1072.644496 257.392708 
L 1072.840566 257.619083 
L 1072.840566 257.619083 
" clip-path="url(#p53d7359a0c)" style="fill: none; stroke-dasharray: 7.4,3.2; stroke-dashoffset: 0; stroke: #bb2666; stroke-width: 2"/>
   </g>
   <g id="line2d_74">
    <path d="M 904.511212 311.893174 
L 1080.85625 311.893174 
" clip-path="url(#p53d7359a0c)" style="fill: none; stroke: #808080; stroke-opacity: 0.5; stroke-width: 0.5; stroke-linecap: square"/>
   </g>
   <g id="patch_36">
    <path d="M 899.511212 317.994227 
L 899.511212 183.771069 
" style="fill: none; stroke: #000000; stroke-width: 0.8; stroke-linejoin: miter; stroke-linecap: square"/>
   </g>
   <g id="patch_37">
    <path d="M 904.511212 322.994227 
L 1080.85625 322.994227 
" style="fill: none; stroke: #000000; stroke-width: 0.8; stroke-linejoin: miter; stroke-linecap: square"/>
   </g>
  </g>
  <g id="axes_9">
   <g id="patch_38">
    <path d="M 76.45625 563.097385 
L 252.801288 563.097385 
L 252.801288 428.874227 
L 76.45625 428.874227 
z
" style="fill: #ffffff"/>
   </g>
   <g id="line2d_75">
    <path d="M 105.84709 556.996332 
L 105.84709 551.314178 
" clip-path="url(#p69f7528583)" style="fill: none; stroke: #e9a700; stroke-width: 1.5; stroke-linecap: square"/>
   </g>
   <g id="line2d_76">
    <path d="M 164.628769 503.306154 
L 164.628769 462.585596 
" clip-path="url(#p69f7528583)" style="fill: none; stroke: #30408d; stroke-width: 1.5; stroke-linecap: square"/>
   </g>
   <g id="line2d_77">
    <path d="M 223.410448 451.094774 
L 223.410448 434.97528 
" clip-path="url(#p69f7528583)" style="fill: none; stroke: #bb2666; stroke-width: 1.5; stroke-linecap: square"/>
   </g>
   <g id="PathCollection_1">
    <defs>
     <path id="m09ea451ada" d="M 0 6.123724 
C 1.624031 6.123724 3.181764 5.47849 4.330127 4.330127 
C 5.47849 3.181764 6.123724 1.624031 6.123724 0 
C 6.123724 -1.624031 5.47849 -3.181764 4.330127 -4.330127 
C 3.181764 -5.47849 1.624031 -6.123724 0 -6.123724 
C -1.624031 -6.123724 -3.181764 -5.47849 -4.330127 -4.330127 
C -5.47849 -3.181764 -6.123724 -1.624031 -6.123724 0 
C -6.123724 1.624031 -5.47849 3.181764 -4.330127 4.330127 
C -3.181764 5.47849 -1.624031 6.123724 0 6.123724 
z
" style="stroke: #ffffff"/>
    </defs>
    <g clip-path="url(#p69f7528583)">
     <use xlink:href="#m09ea451ada" x="105.84709" y="552.383278" style="fill: #e9a700; stroke: #ffffff"/>
    </g>
   </g>
   <g id="PathCollection_2">
    <defs>
     <path id="madd8a30269" d="M 0 6.123724 
C 1.624031 6.123724 3.181764 5.47849 4.330127 4.330127 
C 5.47849 3.181764 6.123724 1.624031 6.123724 0 
C 6.123724 -1.624031 5.47849 -3.181764 4.330127 -4.330127 
C 3.181764 -5.47849 1.624031 -6.123724 0 -6.123724 
C -1.624031 -6.123724 -3.181764 -5.47849 -4.330127 -4.330127 
C -5.47849 -3.181764 -6.123724 -1.624031 -6.123724 0 
C -6.123724 1.624031 -5.47849 3.181764 -4.330127 4.330127 
C -3.181764 5.47849 -1.624031 6.123724 0 6.123724 
z
" style="stroke: #ffffff"/>
    </defs>
    <g clip-path="url(#p69f7528583)">
     <use xlink:href="#madd8a30269" x="164.628769" y="496.628065" style="fill: #30408d; stroke: #ffffff"/>
    </g>
   </g>
   <g id="PathCollection_3">
    <defs>
     <path id="m4bf3d34288" d="M 0 6.123724 
C 1.624031 6.123724 3.181764 5.47849 4.330127 4.330127 
C 5.47849 3.181764 6.123724 1.624031 6.123724 0 
C 6.123724 -1.624031 5.47849 -3.181764 4.330127 -4.330127 
C 3.181764 -5.47849 1.624031 -6.123724 0 -6.123724 
C -1.624031 -6.123724 -3.181764 -5.47849 -4.330127 -4.330127 
C -5.47849 -3.181764 -6.123724 -1.624031 -6.123724 0 
C -6.123724 1.624031 -5.47849 3.181764 -4.330127 4.330127 
C -3.181764 5.47849 -1.624031 6.123724 0 6.123724 
z
" style="stroke: #ffffff"/>
    </defs>
    <g clip-path="url(#p69f7528583)">
     <use xlink:href="#m4bf3d34288" x="223.410448" y="439.497083" style="fill: #bb2666; stroke: #ffffff"/>
    </g>
   </g>
   <g id="matplotlib.axis_17">
    <g id="xtick_25">
     <g id="line2d_78">
      <g>
       <use xlink:href="#m99ee80481c" x="105.84709" y="568.097385" style="stroke: #000000; stroke-width: 0.8"/>
      </g>
     </g>
     <g id="text_49">
      <!-- V1-V3 -->
      <g transform="translate(88.941713 627.458642)rotate(-45)scale(0.2 -0.2)">
       <defs>
        <path id="DejaVuSans-56" d="M 1831 0 
L 50 4666 
L 709 4666 
L 2188 738 
L 3669 4666 
L 4325 4666 
L 2547 0 
L 1831 0 
z
" transform="scale(0.015625)"/>
        <path id="DejaVuSans-2d" d="M 313 2009 
L 1997 2009 
L 1997 1497 
L 313 1497 
L 313 2009 
z
" transform="scale(0.015625)"/>
        <path id="DejaVuSans-33" d="M 2597 2516 
Q 3050 2419 3304 2112 
Q 3559 1806 3559 1356 
Q 3559 666 3084 287 
Q 2609 -91 1734 -91 
Q 1441 -91 1130 -33 
Q 819 25 488 141 
L 488 750 
Q 750 597 1062 519 
Q 1375 441 1716 441 
Q 2309 441 2620 675 
Q 2931 909 2931 1356 
Q 2931 1769 2642 2001 
Q 2353 2234 1838 2234 
L 1294 2234 
L 1294 2753 
L 1863 2753 
Q 2328 2753 2575 2939 
Q 2822 3125 2822 3475 
Q 2822 3834 2567 4026 
Q 2313 4219 1838 4219 
Q 1578 4219 1281 4162 
Q 984 4106 628 3988 
L 628 4550 
Q 988 4650 1302 4700 
Q 1616 4750 1894 4750 
Q 2613 4750 3031 4423 
Q 3450 4097 3450 3541 
Q 3450 3153 3228 2886 
Q 3006 2619 2597 2516 
z
" transform="scale(0.015625)"/>
       </defs>
       <use xlink:href="#DejaVuSans-56"/>
       <use xlink:href="#DejaVuSans-31" x="68.408203"/>
       <use xlink:href="#DejaVuSans-2d" x="132.03125"/>
       <use xlink:href="#DejaVuSans-56" x="162.240234"/>
       <use xlink:href="#DejaVuSans-33" x="230.648438"/>
      </g>
     </g>
    </g>
    <g id="xtick_26">
     <g id="line2d_79">
      <g>
       <use xlink:href="#m99ee80481c" x="164.628769" y="568.097385" style="stroke: #000000; stroke-width: 0.8"/>
      </g>
     </g>
     <g id="text_50">
      <!-- VOTC -->
      <g transform="translate(149.410505 624.084417)rotate(-45)scale(0.2 -0.2)">
       <defs>
        <path id="DejaVuSans-4f" d="M 2522 4238 
Q 1834 4238 1429 3725 
Q 1025 3213 1025 2328 
Q 1025 1447 1429 934 
Q 1834 422 2522 422 
Q 3209 422 3611 934 
Q 4013 1447 4013 2328 
Q 4013 3213 3611 3725 
Q 3209 4238 2522 4238 
z
M 2522 4750 
Q 3503 4750 4090 4092 
Q 4678 3434 4678 2328 
Q 4678 1225 4090 567 
Q 3503 -91 2522 -91 
Q 1538 -91 948 565 
Q 359 1222 359 2328 
Q 359 3434 948 4092 
Q 1538 4750 2522 4750 
z
" transform="scale(0.015625)"/>
        <path id="DejaVuSans-54" d="M -19 4666 
L 3928 4666 
L 3928 4134 
L 2272 4134 
L 2272 0 
L 1638 0 
L 1638 4134 
L -19 4134 
L -19 4666 
z
" transform="scale(0.015625)"/>
        <path id="DejaVuSans-43" d="M 4122 4306 
L 4122 3641 
Q 3803 3938 3442 4084 
Q 3081 4231 2675 4231 
Q 1875 4231 1450 3742 
Q 1025 3253 1025 2328 
Q 1025 1406 1450 917 
Q 1875 428 2675 428 
Q 3081 428 3442 575 
Q 3803 722 4122 1019 
L 4122 359 
Q 3791 134 3420 21 
Q 3050 -91 2638 -91 
Q 1578 -91 968 557 
Q 359 1206 359 2328 
Q 359 3453 968 4101 
Q 1578 4750 2638 4750 
Q 3056 4750 3426 4639 
Q 3797 4528 4122 4306 
z
" transform="scale(0.015625)"/>
       </defs>
       <use xlink:href="#DejaVuSans-56"/>
       <use xlink:href="#DejaVuSans-4f" x="66.658203"/>
       <use xlink:href="#DejaVuSans-54" x="145.369141"/>
       <use xlink:href="#DejaVuSans-43" x="200.578125"/>
      </g>
     </g>
    </g>
    <g id="xtick_27">
     <g id="line2d_80">
      <g>
       <use xlink:href="#m99ee80481c" x="223.410448" y="568.097385" style="stroke: #000000; stroke-width: 0.8"/>
      </g>
     </g>
     <g id="text_51">
      <!-- LOTC -->
      <g transform="translate(209.221909 622.024968)rotate(-45)scale(0.2 -0.2)">
       <defs>
        <path id="DejaVuSans-4c" d="M 628 4666 
L 1259 4666 
L 1259 531 
L 3531 531 
L 3531 0 
L 628 0 
L 628 4666 
z
" transform="scale(0.015625)"/>
       </defs>
       <use xlink:href="#DejaVuSans-4c"/>
       <use xlink:href="#DejaVuSans-4f" x="52.087891"/>
       <use xlink:href="#DejaVuSans-54" x="130.798828"/>
       <use xlink:href="#DejaVuSans-43" x="186.007812"/>
      </g>
     </g>
    </g>
   </g>
   <g id="matplotlib.axis_18">
    <g id="ytick_25">
     <g id="line2d_81">
      <g>
       <use xlink:href="#m4bda91f07e" x="71.45625" y="538.090811" style="stroke: #000000; stroke-width: 0.8"/>
      </g>
     </g>
     <g id="text_52">
      <!-- 0.025 -->
      <g transform="translate(7.2 545.689249)scale(0.2 -0.2)">
       <defs>
        <path id="DejaVuSans-32" d="M 1228 531 
L 3431 531 
L 3431 0 
L 469 0 
L 469 531 
Q 828 903 1448 1529 
Q 2069 2156 2228 2338 
Q 2531 2678 2651 2914 
Q 2772 3150 2772 3378 
Q 2772 3750 2511 3984 
Q 2250 4219 1831 4219 
Q 1534 4219 1204 4116 
Q 875 4013 500 3803 
L 500 4441 
Q 881 4594 1212 4672 
Q 1544 4750 1819 4750 
Q 2544 4750 2975 4387 
Q 3406 4025 3406 3419 
Q 3406 3131 3298 2873 
Q 3191 2616 2906 2266 
Q 2828 2175 2409 1742 
Q 1991 1309 1228 531 
z
" transform="scale(0.015625)"/>
       </defs>
       <use xlink:href="#DejaVuSans-30"/>
       <use xlink:href="#DejaVuSans-2e" x="63.623047"/>
       <use xlink:href="#DejaVuSans-30" x="95.410156"/>
       <use xlink:href="#DejaVuSans-32" x="159.033203"/>
       <use xlink:href="#DejaVuSans-35" x="222.65625"/>
      </g>
     </g>
    </g>
    <g id="ytick_26">
     <g id="line2d_82">
      <g>
       <use xlink:href="#m4bda91f07e" x="71.45625" y="494.645033" style="stroke: #000000; stroke-width: 0.8"/>
      </g>
     </g>
     <g id="text_53">
      <!-- 0.050 -->
      <g transform="translate(7.2 502.24347)scale(0.2 -0.2)">
       <use xlink:href="#DejaVuSans-30"/>
       <use xlink:href="#DejaVuSans-2e" x="63.623047"/>
       <use xlink:href="#DejaVuSans-30" x="95.410156"/>
       <use xlink:href="#DejaVuSans-35" x="159.033203"/>
       <use xlink:href="#DejaVuSans-30" x="222.65625"/>
      </g>
     </g>
    </g>
    <g id="ytick_27">
     <g id="line2d_83">
      <g>
       <use xlink:href="#m4bda91f07e" x="71.45625" y="451.199254" style="stroke: #000000; stroke-width: 0.8"/>
      </g>
     </g>
     <g id="text_54">
      <!-- 0.075 -->
      <g transform="translate(7.2 458.797691)scale(0.2 -0.2)">
       <defs>
        <path id="DejaVuSans-37" d="M 525 4666 
L 3525 4666 
L 3525 4397 
L 1831 0 
L 1172 0 
L 2766 4134 
L 525 4134 
L 525 4666 
z
" transform="scale(0.015625)"/>
       </defs>
       <use xlink:href="#DejaVuSans-30"/>
       <use xlink:href="#DejaVuSans-2e" x="63.623047"/>
       <use xlink:href="#DejaVuSans-30" x="95.410156"/>
       <use xlink:href="#DejaVuSans-37" x="159.033203"/>
       <use xlink:href="#DejaVuSans-35" x="222.65625"/>
      </g>
     </g>
    </g>
   </g>
   <g id="patch_39">
    <path d="M 71.45625 563.097385 
L 71.45625 428.874227 
" style="fill: none; stroke: #000000; stroke-width: 0.8; stroke-linejoin: miter; stroke-linecap: square"/>
   </g>
   <g id="patch_40">
    <path d="M 76.45625 568.097385 
L 252.801288 568.097385 
" style="fill: none; stroke: #000000; stroke-width: 0.8; stroke-linejoin: miter; stroke-linecap: square"/>
   </g>
   <g id="text_55">
    <!-- $\tau_{1}$ -->
    <g transform="translate(152.748769 422.874227)scale(0.22 -0.22)">
     <defs>
      <path id="DejaVuSans-Oblique-3c4" d="M 2103 638 
Q 2188 488 2525 488 
L 2800 488 
L 2706 0 
L 2363 0 
Q 1800 0 1600 300 
Q 1403 606 1534 1269 
L 1856 2925 
L 541 2925 
L 653 3500 
L 3881 3500 
L 3769 2925 
L 2444 2925 
L 2113 1234 
Q 2025 781 2103 638 
z
" transform="scale(0.015625)"/>
     </defs>
     <use xlink:href="#DejaVuSans-Oblique-3c4" transform="translate(0 0.3125)"/>
     <use xlink:href="#DejaVuSans-31" transform="translate(60.205078 -16.09375)scale(0.7)"/>
    </g>
   </g>
  </g>
  <g id="axes_10">
   <g id="patch_41">
    <path d="M 352.474571 563.097385 
L 528.819609 563.097385 
L 528.819609 428.874227 
L 352.474571 428.874227 
z
" style="fill: #ffffff"/>
   </g>
   <g id="line2d_84">
    <path d="M 381.86541 556.996332 
L 381.86541 535.057509 
" clip-path="url(#p8789af1345)" style="fill: none; stroke: #e9a700; stroke-width: 1.5; stroke-linecap: square"/>
   </g>
   <g id="line2d_85">
    <path d="M 440.64709 513.801091 
L 440.64709 471.572857 
" clip-path="url(#p8789af1345)" style="fill: none; stroke: #30408d; stroke-width: 1.5; stroke-linecap: square"/>
   </g>
   <g id="line2d_86">
    <path d="M 499.428769 477.663462 
L 499.428769 434.97528 
" clip-path="url(#p8789af1345)" style="fill: none; stroke: #bb2666; stroke-width: 1.5; stroke-linecap: square"/>
   </g>
   <g id="PathCollection_4">
    <g clip-path="url(#p8789af1345)">
     <use xlink:href="#m09ea451ada" x="381.86541" y="545.118227" style="fill: #e9a700; stroke: #ffffff"/>
    </g>
   </g>
   <g id="PathCollection_5">
    <g clip-path="url(#p8789af1345)">
     <use xlink:href="#madd8a30269" x="440.64709" y="496.68148" style="fill: #30408d; stroke: #ffffff"/>
    </g>
   </g>
   <g id="PathCollection_6">
    <g clip-path="url(#p8789af1345)">
     <use xlink:href="#m4bf3d34288" x="499.428769" y="453.919172" style="fill: #bb2666; stroke: #ffffff"/>
    </g>
   </g>
   <g id="matplotlib.axis_19">
    <g id="xtick_28">
     <g id="line2d_87">
      <g>
       <use xlink:href="#m99ee80481c" x="381.86541" y="568.097385" style="stroke: #000000; stroke-width: 0.8"/>
      </g>
     </g>
     <g id="text_56">
      <!-- V1-V3 -->
      <g transform="translate(364.960034 627.458642)rotate(-45)scale(0.2 -0.2)">
       <use xlink:href="#DejaVuSans-56"/>
       <use xlink:href="#DejaVuSans-31" x="68.408203"/>
       <use xlink:href="#DejaVuSans-2d" x="132.03125"/>
       <use xlink:href="#DejaVuSans-56" x="162.240234"/>
       <use xlink:href="#DejaVuSans-33" x="230.648438"/>
      </g>
     </g>
    </g>
    <g id="xtick_29">
     <g id="line2d_88">
      <g>
       <use xlink:href="#m99ee80481c" x="440.64709" y="568.097385" style="stroke: #000000; stroke-width: 0.8"/>
      </g>
     </g>
     <g id="text_57">
      <!-- VOTC -->
      <g transform="translate(425.428826 624.084417)rotate(-45)scale(0.2 -0.2)">
       <use xlink:href="#DejaVuSans-56"/>
       <use xlink:href="#DejaVuSans-4f" x="66.658203"/>
       <use xlink:href="#DejaVuSans-54" x="145.369141"/>
       <use xlink:href="#DejaVuSans-43" x="200.578125"/>
      </g>
     </g>
    </g>
    <g id="xtick_30">
     <g id="line2d_89">
      <g>
       <use xlink:href="#m99ee80481c" x="499.428769" y="568.097385" style="stroke: #000000; stroke-width: 0.8"/>
      </g>
     </g>
     <g id="text_58">
      <!-- LOTC -->
      <g transform="translate(485.24023 622.024968)rotate(-45)scale(0.2 -0.2)">
       <use xlink:href="#DejaVuSans-4c"/>
       <use xlink:href="#DejaVuSans-4f" x="52.087891"/>
       <use xlink:href="#DejaVuSans-54" x="130.798828"/>
       <use xlink:href="#DejaVuSans-43" x="186.007812"/>
      </g>
     </g>
    </g>
   </g>
   <g id="matplotlib.axis_20">
    <g id="ytick_28">
     <g id="line2d_90">
      <g>
       <use xlink:href="#m4bda91f07e" x="347.474571" y="521.030915" style="stroke: #000000; stroke-width: 0.8"/>
      </g>
     </g>
     <g id="text_59">
      <!-- 0.2 -->
      <g transform="translate(308.668321 528.629352)scale(0.2 -0.2)">
       <use xlink:href="#DejaVuSans-30"/>
       <use xlink:href="#DejaVuSans-2e" x="63.623047"/>
       <use xlink:href="#DejaVuSans-32" x="95.410156"/>
      </g>
     </g>
    </g>
    <g id="ytick_29">
     <g id="line2d_91">
      <g>
       <use xlink:href="#m4bda91f07e" x="347.474571" y="450.367493" style="stroke: #000000; stroke-width: 0.8"/>
      </g>
     </g>
     <g id="text_60">
      <!-- 0.4 -->
      <g transform="translate(308.668321 457.965931)scale(0.2 -0.2)">
       <defs>
        <path id="DejaVuSans-34" d="M 2419 4116 
L 825 1625 
L 2419 1625 
L 2419 4116 
z
M 2253 4666 
L 3047 4666 
L 3047 1625 
L 3713 1625 
L 3713 1100 
L 3047 1100 
L 3047 0 
L 2419 0 
L 2419 1100 
L 313 1100 
L 313 1709 
L 2253 4666 
z
" transform="scale(0.015625)"/>
       </defs>
       <use xlink:href="#DejaVuSans-30"/>
       <use xlink:href="#DejaVuSans-2e" x="63.623047"/>
       <use xlink:href="#DejaVuSans-34" x="95.410156"/>
      </g>
     </g>
    </g>
   </g>
   <g id="patch_42">
    <path d="M 347.474571 563.097385 
L 347.474571 428.874227 
" style="fill: none; stroke: #000000; stroke-width: 0.8; stroke-linejoin: miter; stroke-linecap: square"/>
   </g>
   <g id="patch_43">
    <path d="M 352.474571 568.097385 
L 528.819609 568.097385 
" style="fill: none; stroke: #000000; stroke-width: 0.8; stroke-linejoin: miter; stroke-linecap: square"/>
   </g>
   <g id="text_61">
    <!-- $\tau_{2}$ -->
    <g transform="translate(428.76709 422.874227)scale(0.22 -0.22)">
     <use xlink:href="#DejaVuSans-Oblique-3c4" transform="translate(0 0.3125)"/>
     <use xlink:href="#DejaVuSans-32" transform="translate(60.205078 -16.09375)scale(0.7)"/>
    </g>
   </g>
  </g>
  <g id="axes_11">
   <g id="patch_44">
    <path d="M 628.492891 563.097385 
L 804.837929 563.097385 
L 804.837929 428.874227 
L 628.492891 428.874227 
z
" style="fill: #ffffff"/>
   </g>
   <g id="line2d_92">
    <path d="M 657.883731 556.996332 
L 657.883731 450.214986 
" clip-path="url(#p647e64d53b)" style="fill: none; stroke: #e9a700; stroke-width: 1.5; stroke-linecap: square"/>
   </g>
   <g id="line2d_93">
    <path d="M 716.66541 515.679431 
L 716.66541 434.97528 
" clip-path="url(#p647e64d53b)" style="fill: none; stroke: #30408d; stroke-width: 1.5; stroke-linecap: square"/>
   </g>
   <g id="line2d_94">
    <path d="M 775.44709 555.479408 
L 775.44709 471.539851 
" clip-path="url(#p647e64d53b)" style="fill: none; stroke: #bb2666; stroke-width: 1.5; stroke-linecap: square"/>
   </g>
   <g id="PathCollection_7">
    <g clip-path="url(#p647e64d53b)">
     <use xlink:href="#m09ea451ada" x="657.883731" y="521.026361" style="fill: #e9a700; stroke: #ffffff"/>
    </g>
   </g>
   <g id="PathCollection_8">
    <g clip-path="url(#p647e64d53b)">
     <use xlink:href="#madd8a30269" x="716.66541" y="496.571819" style="fill: #30408d; stroke: #ffffff"/>
    </g>
   </g>
   <g id="PathCollection_9">
    <g clip-path="url(#p647e64d53b)">
     <use xlink:href="#m4bf3d34288" x="775.44709" y="541.712283" style="fill: #bb2666; stroke: #ffffff"/>
    </g>
   </g>
   <g id="matplotlib.axis_21">
    <g id="xtick_31">
     <g id="line2d_95">
      <g>
       <use xlink:href="#m99ee80481c" x="657.883731" y="568.097385" style="stroke: #000000; stroke-width: 0.8"/>
      </g>
     </g>
     <g id="text_62">
      <!-- V1-V3 -->
      <g transform="translate(640.978355 627.458642)rotate(-45)scale(0.2 -0.2)">
       <use xlink:href="#DejaVuSans-56"/>
       <use xlink:href="#DejaVuSans-31" x="68.408203"/>
       <use xlink:href="#DejaVuSans-2d" x="132.03125"/>
       <use xlink:href="#DejaVuSans-56" x="162.240234"/>
       <use xlink:href="#DejaVuSans-33" x="230.648438"/>
      </g>
     </g>
    </g>
    <g id="xtick_32">
     <g id="line2d_96">
      <g>
       <use xlink:href="#m99ee80481c" x="716.66541" y="568.097385" style="stroke: #000000; stroke-width: 0.8"/>
      </g>
     </g>
     <g id="text_63">
      <!-- VOTC -->
      <g transform="translate(701.447147 624.084417)rotate(-45)scale(0.2 -0.2)">
       <use xlink:href="#DejaVuSans-56"/>
       <use xlink:href="#DejaVuSans-4f" x="66.658203"/>
       <use xlink:href="#DejaVuSans-54" x="145.369141"/>
       <use xlink:href="#DejaVuSans-43" x="200.578125"/>
      </g>
     </g>
    </g>
    <g id="xtick_33">
     <g id="line2d_97">
      <g>
       <use xlink:href="#m99ee80481c" x="775.44709" y="568.097385" style="stroke: #000000; stroke-width: 0.8"/>
      </g>
     </g>
     <g id="text_64">
      <!-- LOTC -->
      <g transform="translate(761.25855 622.024968)rotate(-45)scale(0.2 -0.2)">
       <use xlink:href="#DejaVuSans-4c"/>
       <use xlink:href="#DejaVuSans-4f" x="52.087891"/>
       <use xlink:href="#DejaVuSans-54" x="130.798828"/>
       <use xlink:href="#DejaVuSans-43" x="186.007812"/>
      </g>
     </g>
    </g>
   </g>
   <g id="matplotlib.axis_22">
    <g id="ytick_30">
     <g id="line2d_98">
      <g>
       <use xlink:href="#m4bda91f07e" x="623.492891" y="519.093239" style="stroke: #000000; stroke-width: 0.8"/>
      </g>
     </g>
     <g id="text_65">
      <!-- 1.0 -->
      <g transform="translate(584.686641 526.691676)scale(0.2 -0.2)">
       <use xlink:href="#DejaVuSans-31"/>
       <use xlink:href="#DejaVuSans-2e" x="63.623047"/>
       <use xlink:href="#DejaVuSans-30" x="95.410156"/>
      </g>
     </g>
    </g>
    <g id="ytick_31">
     <g id="line2d_99">
      <g>
       <use xlink:href="#m4bda91f07e" x="623.492891" y="453.392901" style="stroke: #000000; stroke-width: 0.8"/>
      </g>
     </g>
     <g id="text_66">
      <!-- 1.1 -->
      <g transform="translate(584.686641 460.991339)scale(0.2 -0.2)">
       <use xlink:href="#DejaVuSans-31"/>
       <use xlink:href="#DejaVuSans-2e" x="63.623047"/>
       <use xlink:href="#DejaVuSans-31" x="95.410156"/>
      </g>
     </g>
    </g>
   </g>
   <g id="patch_45">
    <path d="M 623.492891 563.097385 
L 623.492891 428.874227 
" style="fill: none; stroke: #000000; stroke-width: 0.8; stroke-linejoin: miter; stroke-linecap: square"/>
   </g>
   <g id="patch_46">
    <path d="M 628.492891 568.097385 
L 804.837929 568.097385 
" style="fill: none; stroke: #000000; stroke-width: 0.8; stroke-linejoin: miter; stroke-linecap: square"/>
   </g>
   <g id="text_67">
    <!-- $n$ -->
    <g transform="translate(709.62541 422.874227)scale(0.22 -0.22)">
     <defs>
      <path id="DejaVuSans-Oblique-6e" d="M 3566 2113 
L 3156 0 
L 2578 0 
L 2988 2091 
Q 3016 2238 3031 2350 
Q 3047 2463 3047 2528 
Q 3047 2791 2881 2937 
Q 2716 3084 2419 3084 
Q 1956 3084 1622 2776 
Q 1288 2469 1184 1941 
L 800 0 
L 225 0 
L 903 3500 
L 1478 3500 
L 1363 2950 
Q 1603 3253 1940 3418 
Q 2278 3584 2650 3584 
Q 3113 3584 3367 3334 
Q 3622 3084 3622 2631 
Q 3622 2519 3608 2391 
Q 3594 2263 3566 2113 
z
" transform="scale(0.015625)"/>
     </defs>
     <use xlink:href="#DejaVuSans-Oblique-6e"/>
    </g>
   </g>
  </g>
  <g id="axes_12">
   <g id="patch_47">
    <path d="M 904.511212 563.097385 
L 1080.85625 563.097385 
L 1080.85625 428.874227 
L 904.511212 428.874227 
z
" style="fill: #ffffff"/>
   </g>
   <g id="line2d_100">
    <path d="M 933.902052 556.996332 
L 933.902052 517.257997 
" clip-path="url(#pfb2ba196ad)" style="fill: none; stroke: #e9a700; stroke-width: 1.5; stroke-linecap: square"/>
   </g>
   <g id="line2d_101">
    <path d="M 992.683731 547.015429 
L 992.683731 434.97528 
" clip-path="url(#pfb2ba196ad)" style="fill: none; stroke: #30408d; stroke-width: 1.5; stroke-linecap: square"/>
   </g>
   <g id="line2d_102">
    <path d="M 1051.46541 550.551975 
L 1051.46541 478.136579 
" clip-path="url(#pfb2ba196ad)" style="fill: none; stroke: #bb2666; stroke-width: 1.5; stroke-linecap: square"/>
   </g>
   <g id="PathCollection_10">
    <g clip-path="url(#pfb2ba196ad)">
     <use xlink:href="#m09ea451ada" x="933.902052" y="533.583334" style="fill: #e9a700; stroke: #ffffff"/>
    </g>
   </g>
   <g id="PathCollection_11">
    <g clip-path="url(#pfb2ba196ad)">
     <use xlink:href="#madd8a30269" x="992.683731" y="508.191517" style="fill: #30408d; stroke: #ffffff"/>
    </g>
   </g>
   <g id="PathCollection_12">
    <g clip-path="url(#pfb2ba196ad)">
     <use xlink:href="#m4bf3d34288" x="1051.46541" y="521.531027" style="fill: #bb2666; stroke: #ffffff"/>
    </g>
   </g>
   <g id="matplotlib.axis_23">
    <g id="xtick_34">
     <g id="line2d_103">
      <g>
       <use xlink:href="#m99ee80481c" x="933.902052" y="568.097385" style="stroke: #000000; stroke-width: 0.8"/>
      </g>
     </g>
     <g id="text_68">
      <!-- V1-V3 -->
      <g transform="translate(916.996675 627.458642)rotate(-45)scale(0.2 -0.2)">
       <use xlink:href="#DejaVuSans-56"/>
       <use xlink:href="#DejaVuSans-31" x="68.408203"/>
       <use xlink:href="#DejaVuSans-2d" x="132.03125"/>
       <use xlink:href="#DejaVuSans-56" x="162.240234"/>
       <use xlink:href="#DejaVuSans-33" x="230.648438"/>
      </g>
     </g>
    </g>
    <g id="xtick_35">
     <g id="line2d_104">
      <g>
       <use xlink:href="#m99ee80481c" x="992.683731" y="568.097385" style="stroke: #000000; stroke-width: 0.8"/>
      </g>
     </g>
     <g id="text_69">
      <!-- VOTC -->
      <g transform="translate(977.465467 624.084417)rotate(-45)scale(0.2 -0.2)">
       <use xlink:href="#DejaVuSans-56"/>
       <use xlink:href="#DejaVuSans-4f" x="66.658203"/>
       <use xlink:href="#DejaVuSans-54" x="145.369141"/>
       <use xlink:href="#DejaVuSans-43" x="200.578125"/>
      </g>
     </g>
    </g>
    <g id="xtick_36">
     <g id="line2d_105">
      <g>
       <use xlink:href="#m99ee80481c" x="1051.46541" y="568.097385" style="stroke: #000000; stroke-width: 0.8"/>
      </g>
     </g>
     <g id="text_70">
      <!-- LOTC -->
      <g transform="translate(1037.276871 622.024968)rotate(-45)scale(0.2 -0.2)">
       <use xlink:href="#DejaVuSans-4c"/>
       <use xlink:href="#DejaVuSans-4f" x="52.087891"/>
       <use xlink:href="#DejaVuSans-54" x="130.798828"/>
       <use xlink:href="#DejaVuSans-43" x="186.007812"/>
      </g>
     </g>
    </g>
   </g>
   <g id="matplotlib.axis_24">
    <g id="ytick_32">
     <g id="line2d_106">
      <g>
       <use xlink:href="#m4bda91f07e" x="899.511212" y="543.27527" style="stroke: #000000; stroke-width: 0.8"/>
      </g>
     </g>
     <g id="text_71">
      <!-- 0.3 -->
      <g transform="translate(860.704962 550.873707)scale(0.2 -0.2)">
       <use xlink:href="#DejaVuSans-30"/>
       <use xlink:href="#DejaVuSans-2e" x="63.623047"/>
       <use xlink:href="#DejaVuSans-33" x="95.410156"/>
      </g>
     </g>
    </g>
    <g id="ytick_33">
     <g id="line2d_107">
      <g>
       <use xlink:href="#m4bda91f07e" x="899.511212" y="484.490182" style="stroke: #000000; stroke-width: 0.8"/>
      </g>
     </g>
     <g id="text_72">
      <!-- 0.4 -->
      <g transform="translate(860.704962 492.08862)scale(0.2 -0.2)">
       <use xlink:href="#DejaVuSans-30"/>
       <use xlink:href="#DejaVuSans-2e" x="63.623047"/>
       <use xlink:href="#DejaVuSans-34" x="95.410156"/>
      </g>
     </g>
    </g>
   </g>
   <g id="patch_48">
    <path d="M 899.511212 563.097385 
L 899.511212 428.874227 
" style="fill: none; stroke: #000000; stroke-width: 0.8; stroke-linejoin: miter; stroke-linecap: square"/>
   </g>
   <g id="patch_49">
    <path d="M 904.511212 568.097385 
L 1080.85625 568.097385 
" style="fill: none; stroke: #000000; stroke-width: 0.8; stroke-linejoin: miter; stroke-linecap: square"/>
   </g>
   <g id="text_73">
    <!-- $\sigma$ -->
    <g transform="translate(985.643731 422.874227)scale(0.22 -0.22)">
     <defs>
      <path id="DejaVuSans-Oblique-3c3" d="M 2219 3044 
Q 1744 3044 1422 2700 
Q 1081 2341 969 1747 
Q 844 1119 1044 756 
Q 1241 397 1706 397 
Q 2166 397 2503 759 
Q 2844 1122 2966 1747 
Q 3075 2319 2881 2700 
Q 2700 3044 2219 3044 
z
M 2309 3503 
L 4219 3500 
L 4106 2925 
L 3463 2925 
Q 3706 2438 3575 1747 
Q 3406 888 2884 400 
Q 2359 -91 1609 -91 
Q 856 -91 525 400 
Q 194 888 363 1747 
Q 528 2609 1050 3097 
Q 1484 3503 2309 3503 
z
" transform="scale(0.015625)"/>
     </defs>
     <use xlink:href="#DejaVuSans-Oblique-3c3" transform="translate(0 0.265625)"/>
    </g>
   </g>
  </g>
 </g>
 <defs>
  <clipPath id="p498075b63f">
   <rect x="76.45625" y="8.697385" width="268.351145" height="134.223158"/>
  </clipPath>
  <clipPath id="pcbe3b012fb">
   <rect x="444.480677" y="8.697385" width="176.345038" height="134.223158"/>
  </clipPath>
  <clipPath id="p137d931e58">
   <rect x="674.495945" y="8.697385" width="176.345038" height="134.223158"/>
  </clipPath>
  <clipPath id="pf749758127">
   <rect x="904.511212" y="8.697385" width="176.345038" height="134.223158"/>
  </clipPath>
  <clipPath id="pe1bb98348e">
   <rect x="76.45625" y="183.771069" width="268.351145" height="134.223158"/>
  </clipPath>
  <clipPath id="pcbd8378fba">
   <rect x="444.480677" y="183.771069" width="176.345038" height="134.223158"/>
  </clipPath>
  <clipPath id="p1a3f41b747">
   <rect x="674.495945" y="183.771069" width="176.345038" height="134.223158"/>
  </clipPath>
  <clipPath id="p53d7359a0c">
   <rect x="904.511212" y="183.771069" width="176.345038" height="134.223158"/>
  </clipPath>
  <clipPath id="p69f7528583">
   <rect x="76.45625" y="428.874227" width="176.345038" height="134.223158"/>
  </clipPath>
  <clipPath id="p8789af1345">
   <rect x="352.474571" y="428.874227" width="176.345038" height="134.223158"/>
  </clipPath>
  <clipPath id="p647e64d53b">
   <rect x="628.492891" y="428.874227" width="176.345038" height="134.223158"/>
  </clipPath>
  <clipPath id="pfb2ba196ad">
   <rect x="904.511212" y="428.874227" width="176.345038" height="134.223158"/>
  </clipPath>
 </defs>
</svg>
