<?xml version="1.0" encoding="utf-8" standalone="no"?>
<!DOCTYPE svg PUBLIC "-//W3C//DTD SVG 1.1//EN"
  "http://www.w3.org/Graphics/SVG/1.1/DTD/svg11.dtd">
<svg xmlns:xlink="http://www.w3.org/1999/xlink" width="1144.83625pt" height="208.103778pt" viewBox="0 0 1144.83625 208.103778" xmlns="http://www.w3.org/2000/svg" version="1.1">
 <metadata>
  <rdf:RDF xmlns:dc="http://purl.org/dc/elements/1.1/" xmlns:cc="http://creativecommons.org/ns#" xmlns:rdf="http://www.w3.org/1999/02/22-rdf-syntax-ns#">
   <cc:Work>
    <dc:type rdf:resource="http://purl.org/dc/dcmitype/StillImage"/>
    <dc:date>2024-05-02T10:59:29.534338</dc:date>
    <dc:format>image/svg+xml</dc:format>
    <dc:creator>
     <cc:Agent>
      <dc:title>Matplotlib v3.5.2, https://matplotlib.org/</dc:title>
     </cc:Agent>
    </dc:creator>
   </cc:Work>
  </rdf:RDF>
 </metadata>
 <defs>
  <style type="text/css">*{stroke-linejoin: round; stroke-linecap: butt}</style>
 </defs>
 <g id="figure_1">
  <g id="patch_1">
   <path d="M 0 208.103778 
L 1144.83625 208.103778 
L 1144.83625 0 
L 0 0 
z
" style="fill: #ffffff"/>
  </g>
  <g id="axes_1">
   <g id="patch_2">
    <path d="M 56.00625 164.547528 
L 376.83625 164.547528 
L 376.83625 7.667528 
L 56.00625 7.667528 
z
" style="fill: #ffffff"/>
   </g>
   <g id="patch_3">
    <path d="M 106.958276 164.547528 
L 106.958276 7.667528 
L 131.20405 7.667528 
L 131.20405 164.547528 
z
" clip-path="url(#p861b157964)" style="fill: #808080; opacity: 0.2"/>
   </g>
   <g id="patch_4">
    <path d="M 228.187512 164.547528 
L 228.187512 7.667528 
L 252.790003 7.667528 
L 252.790003 164.547528 
z
" clip-path="url(#p861b157964)" style="fill: #808080; opacity: 0.2"/>
   </g>
   <g id="matplotlib.axis_1">
    <g id="xtick_1">
     <g id="line2d_1">
      <defs>
       <path id="m9cf08d9af9" d="M 0 0 
L 0 3.5 
" style="stroke: #000000; stroke-width: 0.8"/>
      </defs>
      <g>
       <use xlink:href="#m9cf08d9af9" x="106.958276" y="174.547528" style="stroke: #000000; stroke-width: 0.8"/>
      </g>
     </g>
     <g id="text_1">
      <!-- 0.0 -->
      <g transform="translate(91.055151 196.744403)scale(0.2 -0.2)">
       <defs>
        <path id="DejaVuSans-30" d="M 2034 4250 
Q 1547 4250 1301 3770 
Q 1056 3291 1056 2328 
Q 1056 1369 1301 889 
Q 1547 409 2034 409 
Q 2525 409 2770 889 
Q 3016 1369 3016 2328 
Q 3016 3291 2770 3770 
Q 2525 4250 2034 4250 
z
M 2034 4750 
Q 2819 4750 3233 4129 
Q 3647 3509 3647 2328 
Q 3647 1150 3233 529 
Q 2819 -91 2034 -91 
Q 1250 -91 836 529 
Q 422 1150 422 2328 
Q 422 3509 836 4129 
Q 1250 4750 2034 4750 
z
" transform="scale(0.015625)"/>
        <path id="DejaVuSans-2e" d="M 684 794 
L 1344 794 
L 1344 0 
L 684 0 
L 684 794 
z
" transform="scale(0.015625)"/>
       </defs>
       <use xlink:href="#DejaVuSans-30"/>
       <use xlink:href="#DejaVuSans-2e" x="63.623047"/>
       <use xlink:href="#DejaVuSans-30" x="95.410156"/>
      </g>
     </g>
    </g>
    <g id="xtick_2">
     <g id="line2d_2">
      <g>
       <use xlink:href="#m9cf08d9af9" x="198.236828" y="174.547528" style="stroke: #000000; stroke-width: 0.8"/>
      </g>
     </g>
     <g id="text_2">
      <!-- 0.5 -->
      <g transform="translate(182.333703 196.744403)scale(0.2 -0.2)">
       <defs>
        <path id="DejaVuSans-35" d="M 691 4666 
L 3169 4666 
L 3169 4134 
L 1269 4134 
L 1269 2991 
Q 1406 3038 1543 3061 
Q 1681 3084 1819 3084 
Q 2600 3084 3056 2656 
Q 3513 2228 3513 1497 
Q 3513 744 3044 326 
Q 2575 -91 1722 -91 
Q 1428 -91 1123 -41 
Q 819 9 494 109 
L 494 744 
Q 775 591 1075 516 
Q 1375 441 1709 441 
Q 2250 441 2565 725 
Q 2881 1009 2881 1497 
Q 2881 1984 2565 2268 
Q 2250 2553 1709 2553 
Q 1456 2553 1204 2497 
Q 953 2441 691 2322 
L 691 4666 
z
" transform="scale(0.015625)"/>
       </defs>
       <use xlink:href="#DejaVuSans-30"/>
       <use xlink:href="#DejaVuSans-2e" x="63.623047"/>
       <use xlink:href="#DejaVuSans-35" x="95.410156"/>
      </g>
     </g>
    </g>
    <g id="xtick_3">
     <g id="line2d_3">
      <g>
       <use xlink:href="#m9cf08d9af9" x="289.51538" y="174.547528" style="stroke: #000000; stroke-width: 0.8"/>
      </g>
     </g>
     <g id="text_3">
      <!-- 1.0 -->
      <g transform="translate(273.612255 196.744403)scale(0.2 -0.2)">
       <defs>
        <path id="DejaVuSans-31" d="M 794 531 
L 1825 531 
L 1825 4091 
L 703 3866 
L 703 4441 
L 1819 4666 
L 2450 4666 
L 2450 531 
L 3481 531 
L 3481 0 
L 794 0 
L 794 531 
z
" transform="scale(0.015625)"/>
       </defs>
       <use xlink:href="#DejaVuSans-31"/>
       <use xlink:href="#DejaVuSans-2e" x="63.623047"/>
       <use xlink:href="#DejaVuSans-30" x="95.410156"/>
      </g>
     </g>
    </g>
   </g>
   <g id="matplotlib.axis_2">
    <g id="ytick_1">
     <g id="line2d_4">
      <defs>
       <path id="m63c464bd3b" d="M 0 0 
L -3.5 0 
" style="stroke: #000000; stroke-width: 0.8"/>
      </defs>
      <g>
       <use xlink:href="#m63c464bd3b" x="46.00625" y="157.416619" style="stroke: #000000; stroke-width: 0.8"/>
      </g>
     </g>
     <g id="text_4">
      <!-- 0.0 -->
      <g transform="translate(7.2 165.015057)scale(0.2 -0.2)">
       <use xlink:href="#DejaVuSans-30"/>
       <use xlink:href="#DejaVuSans-2e" x="63.623047"/>
       <use xlink:href="#DejaVuSans-30" x="95.410156"/>
      </g>
     </g>
    </g>
    <g id="ytick_2">
     <g id="line2d_5">
      <g>
       <use xlink:href="#m63c464bd3b" x="46.00625" y="86.107528" style="stroke: #000000; stroke-width: 0.8"/>
      </g>
     </g>
     <g id="text_5">
      <!-- 0.5 -->
      <g transform="translate(7.2 93.705966)scale(0.2 -0.2)">
       <use xlink:href="#DejaVuSans-30"/>
       <use xlink:href="#DejaVuSans-2e" x="63.623047"/>
       <use xlink:href="#DejaVuSans-35" x="95.410156"/>
      </g>
     </g>
    </g>
    <g id="ytick_3">
     <g id="line2d_6">
      <g>
       <use xlink:href="#m63c464bd3b" x="46.00625" y="14.798437" style="stroke: #000000; stroke-width: 0.8"/>
      </g>
     </g>
     <g id="text_6">
      <!-- 1.0 -->
      <g transform="translate(7.2 22.396875)scale(0.2 -0.2)">
       <use xlink:href="#DejaVuSans-31"/>
       <use xlink:href="#DejaVuSans-2e" x="63.623047"/>
       <use xlink:href="#DejaVuSans-30" x="95.410156"/>
      </g>
     </g>
    </g>
   </g>
   <g id="line2d_7">
    <path d="M 56.00625 157.416619 
L 376.83625 157.416619 
" clip-path="url(#p861b157964)" style="fill: none; stroke: #808080; stroke-opacity: 0.5; stroke-width: 0.5; stroke-linecap: square"/>
   </g>
   <g id="line2d_8">
    <path d="M 70.589432 157.416619 
L 109.097662 157.309333 
L 110.523798 157.071056 
L 111.593583 156.659267 
L 112.306651 156.190586 
L 113.019719 155.494182 
L 113.732787 154.494116 
L 114.446038 153.105272 
L 115.159106 151.238728 
L 115.872174 148.809207 
L 116.585242 145.743879 
L 117.655027 139.849062 
L 118.724629 132.36961 
L 120.150947 120.182426 
L 121.933618 102.510799 
L 125.142606 70.018898 
L 126.925459 54.521656 
L 128.351778 44.161568 
L 129.777914 35.676628 
L 130.847516 30.475036 
L 131.9173 26.177896 
L 132.986903 22.691303 
L 134.056687 19.924653 
L 135.126289 17.800043 
L 136.195891 16.259575 
L 136.908959 15.539596 
L 137.62221 15.060528 
L 138.335278 14.824014 
L 139.048346 14.836015 
L 139.761597 15.105631 
L 140.474665 15.64345 
L 141.187733 16.45953 
L 141.900801 17.561249 
L 142.970586 19.753533 
L 144.040188 22.574332 
L 145.466506 27.212152 
L 147.249176 34.096383 
L 150.101631 46.364328 
L 153.667154 61.53333 
L 156.163075 71.192066 
L 158.658995 79.880693 
L 160.798382 86.57365 
L 162.937769 92.62248 
L 165.076973 98.086747 
L 167.21636 103.026204 
L 169.71228 108.20014 
L 172.208201 112.816036 
L 174.704122 116.944021 
L 177.200043 120.644758 
L 179.695963 123.970449 
L 182.191702 126.965934 
L 185.044156 130.034183 
L 187.896611 132.770326 
L 190.749066 135.21586 
L 193.958055 137.663453 
L 197.167226 139.830333 
L 200.732749 141.952109 
L 204.298272 143.812432 
L 208.220511 145.597084 
L 212.142568 147.143348 
L 216.421159 148.594141 
L 221.056466 149.925573 
L 226.048308 151.12073 
L 229.970364 151.850928 
L 231.753217 151.95964 
L 232.822819 151.814136 
L 233.535887 151.558781 
L 234.249138 151.119999 
L 234.962206 150.438767 
L 235.675274 149.449645 
L 236.388342 148.085346 
L 237.101593 146.282925 
L 237.814661 143.99093 
L 238.884263 139.569682 
L 239.954047 133.974751 
L 241.380184 124.945778 
L 243.51957 109.469481 
L 246.015491 91.79393 
L 247.441627 83.090032 
L 248.867946 75.74809 
L 250.294082 69.770811 
L 251.363866 66.102349 
L 252.433469 63.0376 
L 253.503071 60.484276 
L 254.929389 57.727543 
L 256.355525 55.562412 
L 257.781844 53.887596 
L 258.851446 52.934825 
L 259.921231 52.259243 
L 260.990833 51.899092 
L 261.703901 51.859421 
L 262.416969 51.998976 
L 263.13022 52.3325 
L 263.843288 52.871432 
L 264.556356 53.622314 
L 265.62614 55.145351 
L 266.695742 57.119146 
L 268.121878 60.352677 
L 269.904731 65.095317 
L 273.470254 75.514562 
L 276.679425 84.633808 
L 279.531698 92.045089 
L 282.027618 97.926214 
L 284.523539 103.261572 
L 287.01946 108.090381 
L 289.51538 112.457846 
L 292.011301 116.409063 
L 294.507222 119.986469 
L 297.359677 123.66681 
L 300.212131 126.961198 
L 303.064586 129.914974 
L 305.917041 132.567622 
L 309.12603 135.234438 
L 312.335019 137.605529 
L 315.544007 139.716957 
L 319.10953 141.795974 
L 322.675236 143.628811 
L 326.597292 145.396903 
L 330.875883 147.067637 
L 335.154657 148.503909 
L 339.789964 149.829885 
L 344.781623 151.026972 
L 350.129999 152.08456 
L 355.834908 152.991257 
L 359.757147 153.422144 
L 362.253068 153.523739 
L 362.253068 153.523739 
" clip-path="url(#p861b157964)" style="fill: none; stroke: #1e90ff; stroke-width: 1.5; stroke-linecap: square"/>
   </g>
   <g id="line2d_9">
    <path d="M 70.589432 157.416619 
L 108.384412 157.327473 
L 109.81073 157.112779 
L 110.880333 156.725492 
L 111.593583 156.271837 
L 112.306651 155.582546 
L 113.019719 154.571961 
L 113.732787 153.141656 
L 114.446038 151.186469 
L 115.159106 148.603635 
L 115.872174 145.304249 
L 116.941959 138.884361 
L 118.011561 130.673763 
L 119.437697 117.296485 
L 121.577084 94.267579 
L 123.71647 71.684787 
L 125.142606 58.571028 
L 126.568925 47.525238 
L 127.995061 38.559524 
L 129.064846 33.086599 
L 130.134448 28.559505 
L 131.20405 24.857583 
L 132.273835 21.866963 
L 133.343437 19.488153 
L 134.413221 17.640743 
L 135.482823 16.267869 
L 136.552425 15.34025 
L 137.265676 14.968254 
L 137.978744 14.801276 
L 138.691812 14.851921 
L 139.40488 15.136682 
L 140.118131 15.6741 
L 140.831199 16.482433 
L 141.544267 17.577048 
L 142.613869 19.775381 
L 143.683654 22.638151 
L 144.753256 26.118748 
L 146.179574 31.559156 
L 148.318778 40.819847 
L 153.31062 62.821314 
L 155.806541 72.543648 
L 157.945927 80.008001 
L 160.085314 86.714352 
L 162.224518 92.733939 
L 164.363905 98.141811 
L 166.503292 103.008294 
L 168.642678 107.396322 
L 171.138417 111.984244 
L 173.634337 116.071303 
L 176.130258 119.721512 
L 178.626179 122.989174 
L 181.122099 125.920463 
L 183.974554 128.908884 
L 186.827009 131.559118 
L 189.679464 133.913302 
L 192.888453 136.252404 
L 196.097441 138.305789 
L 199.30643 140.110725 
L 202.872136 141.863618 
L 206.794192 143.527683 
L 210.716249 144.955477 
L 214.995023 146.28426 
L 219.63033 147.496176 
L 224.621989 148.580316 
L 228.900762 149.320016 
L 230.683433 149.456959 
L 231.753217 149.367737 
L 232.822819 149.011639 
L 233.535887 148.536874 
L 234.249138 147.790647 
L 234.962206 146.690974 
L 235.675274 145.150727 
L 236.388342 143.085602 
L 237.101593 140.424106 
L 238.171195 135.217502 
L 239.240797 128.553367 
L 240.667115 117.754379 
L 245.658957 77.286394 
L 247.085093 68.682308 
L 248.154878 63.444976 
L 249.22448 59.157959 
L 250.294082 55.693858 
L 251.363866 52.914999 
L 252.433469 50.690931 
L 253.503071 48.907767 
L 254.572855 47.472895 
L 255.998991 45.984979 
L 257.42531 44.90024 
L 258.494912 44.341803 
L 259.564697 44.03026 
L 260.634299 44.017648 
L 261.347367 44.208812 
L 262.060435 44.584907 
L 262.773686 45.166095 
L 263.486754 45.968644 
L 264.556356 47.607865 
L 265.62614 49.767906 
L 266.695742 52.408051 
L 268.121878 56.537396 
L 270.261265 63.53635 
L 274.896573 78.91693 
L 277.392493 86.317615 
L 279.888414 92.944547 
L 282.384335 98.851654 
L 284.880073 104.11958 
L 287.375994 108.827121 
L 289.871914 113.043971 
L 292.367835 116.83003 
L 294.863756 120.236478 
L 297.359677 123.307115 
L 300.212131 126.453246 
L 303.064586 129.257737 
L 305.917041 131.761332 
L 309.12603 134.261363 
L 312.335019 136.466851 
L 315.544007 138.414044 
L 319.10953 140.312719 
L 322.675236 141.968599 
L 326.597292 143.548057 
L 330.875883 145.0235 
L 335.511191 146.374919 
L 340.503032 147.589277 
L 345.851408 148.660241 
L 351.912851 149.639666 
L 357.617761 150.351917 
L 361.183284 150.597595 
L 362.253068 150.616975 
L 362.253068 150.616975 
" clip-path="url(#p861b157964)" style="fill: none; stroke: #dc143c; stroke-width: 1.5; stroke-linecap: square"/>
   </g>
   <g id="patch_5">
    <path d="M 46.00625 164.547528 
L 46.00625 7.667528 
" style="fill: none; stroke: #000000; stroke-width: 0.8; stroke-linejoin: miter; stroke-linecap: square"/>
   </g>
   <g id="patch_6">
    <path d="M 56.00625 174.547528 
L 376.83625 174.547528 
" style="fill: none; stroke: #000000; stroke-width: 0.8; stroke-linejoin: miter; stroke-linecap: square"/>
   </g>
  </g>
  <g id="axes_2">
   <g id="patch_7">
    <path d="M 512.48625 164.547528 
L 757.23625 164.547528 
L 757.23625 7.667528 
L 512.48625 7.667528 
z
" style="fill: #ffffff"/>
   </g>
   <g id="patch_8">
    <path d="M 551.355771 164.547528 
L 551.355771 7.667528 
L 569.852025 7.667528 
L 569.852025 164.547528 
z
" clip-path="url(#pe19847ed89)" style="fill: #808080; opacity: 0.2"/>
   </g>
   <g id="patch_9">
    <path d="M 643.83732 164.547528 
L 643.83732 7.667528 
L 662.605701 7.667528 
L 662.605701 164.547528 
z
" clip-path="url(#pe19847ed89)" style="fill: #808080; opacity: 0.2"/>
   </g>
   <g id="matplotlib.axis_3">
    <g id="xtick_4">
     <g id="line2d_10">
      <g>
       <use xlink:href="#m9cf08d9af9" x="551.355771" y="174.547528" style="stroke: #000000; stroke-width: 0.8"/>
      </g>
     </g>
     <g id="text_7">
      <!-- 0.0 -->
      <g transform="translate(535.452646 196.744403)scale(0.2 -0.2)">
       <use xlink:href="#DejaVuSans-30"/>
       <use xlink:href="#DejaVuSans-2e" x="63.623047"/>
       <use xlink:href="#DejaVuSans-30" x="95.410156"/>
      </g>
     </g>
    </g>
    <g id="xtick_5">
     <g id="line2d_11">
      <g>
       <use xlink:href="#m9cf08d9af9" x="620.98899" y="174.547528" style="stroke: #000000; stroke-width: 0.8"/>
      </g>
     </g>
     <g id="text_8">
      <!-- 0.5 -->
      <g transform="translate(605.085865 196.744403)scale(0.2 -0.2)">
       <use xlink:href="#DejaVuSans-30"/>
       <use xlink:href="#DejaVuSans-2e" x="63.623047"/>
       <use xlink:href="#DejaVuSans-35" x="95.410156"/>
      </g>
     </g>
    </g>
    <g id="xtick_6">
     <g id="line2d_12">
      <g>
       <use xlink:href="#m9cf08d9af9" x="690.622209" y="174.547528" style="stroke: #000000; stroke-width: 0.8"/>
      </g>
     </g>
     <g id="text_9">
      <!-- 1.0 -->
      <g transform="translate(674.719084 196.744403)scale(0.2 -0.2)">
       <use xlink:href="#DejaVuSans-31"/>
       <use xlink:href="#DejaVuSans-2e" x="63.623047"/>
       <use xlink:href="#DejaVuSans-30" x="95.410156"/>
      </g>
     </g>
    </g>
   </g>
   <g id="matplotlib.axis_4">
    <g id="ytick_4">
     <g id="line2d_13">
      <g>
       <use xlink:href="#m63c464bd3b" x="502.48625" y="157.416619" style="stroke: #000000; stroke-width: 0.8"/>
      </g>
     </g>
     <g id="text_10">
      <!-- 0.0 -->
      <g transform="translate(463.68 165.015057)scale(0.2 -0.2)">
       <use xlink:href="#DejaVuSans-30"/>
       <use xlink:href="#DejaVuSans-2e" x="63.623047"/>
       <use xlink:href="#DejaVuSans-30" x="95.410156"/>
      </g>
     </g>
    </g>
    <g id="ytick_5">
     <g id="line2d_14">
      <g>
       <use xlink:href="#m63c464bd3b" x="502.48625" y="86.107528" style="stroke: #000000; stroke-width: 0.8"/>
      </g>
     </g>
     <g id="text_11">
      <!-- 0.5 -->
      <g transform="translate(463.68 93.705966)scale(0.2 -0.2)">
       <use xlink:href="#DejaVuSans-30"/>
       <use xlink:href="#DejaVuSans-2e" x="63.623047"/>
       <use xlink:href="#DejaVuSans-35" x="95.410156"/>
      </g>
     </g>
    </g>
    <g id="ytick_6">
     <g id="line2d_15">
      <g>
       <use xlink:href="#m63c464bd3b" x="502.48625" y="14.798437" style="stroke: #000000; stroke-width: 0.8"/>
      </g>
     </g>
     <g id="text_12">
      <!-- 1.0 -->
      <g transform="translate(463.68 22.396875)scale(0.2 -0.2)">
       <use xlink:href="#DejaVuSans-31"/>
       <use xlink:href="#DejaVuSans-2e" x="63.623047"/>
       <use xlink:href="#DejaVuSans-30" x="95.410156"/>
      </g>
     </g>
    </g>
   </g>
   <g id="line2d_16">
    <path d="M 512.48625 157.416619 
L 757.23625 157.416619 
" clip-path="url(#pe19847ed89)" style="fill: none; stroke: #808080; stroke-opacity: 0.5; stroke-width: 0.5; stroke-linecap: square"/>
   </g>
   <g id="line2d_17">
    <path d="M 523.61125 157.416619 
L 553.803796 157.308826 
L 554.891885 157.105382 
L 555.707847 156.783669 
L 556.523809 156.215333 
L 557.33991 155.281564 
L 558.155872 153.850459 
L 558.971974 151.797279 
L 559.787936 149.028413 
L 560.603898 145.501562 
L 561.691986 139.65995 
L 563.051923 130.818473 
L 564.955974 116.59655 
L 573.388139 51.253764 
L 575.29219 38.511764 
L 576.652266 30.795875 
L 577.740215 25.895784 
L 578.556177 23.145196 
L 579.372278 21.270206 
L 579.916253 20.518071 
L 580.460228 20.155856 
L 581.004342 20.164733 
L 581.548317 20.517455 
L 582.092291 21.180751 
L 582.908253 22.677397 
L 583.724355 24.664095 
L 584.812304 27.875488 
L 586.444367 33.457092 
L 589.436507 44.705022 
L 594.604545 64.141303 
L 597.596545 74.572698 
L 600.316558 83.314908 
L 603.03671 91.292136 
L 605.484736 97.809889 
L 607.932761 103.716741 
L 610.380787 109.041956 
L 612.828812 113.8227 
L 615.276837 118.100158 
L 617.724863 121.916828 
L 620.173028 125.314713 
L 622.621053 128.334169 
L 625.069079 131.013209 
L 627.517104 133.387139 
L 630.237117 135.706362 
L 632.957269 137.729265 
L 635.677282 139.49201 
L 638.669282 141.168879 
L 641.933409 142.727706 
L 644.925409 143.926636 
L 646.82946 144.479837 
L 647.917409 144.58268 
L 648.73351 144.447346 
L 649.549472 144.021425 
L 650.093447 143.516965 
L 650.637561 142.791804 
L 651.453523 141.211071 
L 652.269485 138.950302 
L 653.085586 135.951152 
L 654.173536 130.808222 
L 655.261625 124.499728 
L 656.893549 113.433137 
L 659.613701 92.944494 
L 664.781739 54.000476 
L 667.229764 37.175171 
L 668.861828 27.468961 
L 669.949777 22.180999 
L 670.765879 19.050372 
L 671.581841 16.74911 
L 672.125955 15.704973 
L 672.669929 15.057607 
L 673.213904 14.798437 
L 673.757879 14.908629 
L 674.301853 15.36093 
L 674.845967 16.122066 
L 675.66193 17.762194 
L 676.750018 20.684524 
L 678.109955 25.148381 
L 680.285993 33.287196 
L 688.990145 66.820616 
L 691.982285 77.081223 
L 694.702298 85.593041 
L 697.150323 92.56842 
L 699.598349 98.904403 
L 702.046374 104.627139 
L 704.4944 109.772705 
L 706.942564 114.382585 
L 709.39059 118.500493 
L 711.838615 122.170202 
L 714.286641 125.434139 
L 716.734666 128.33252 
L 719.182691 130.902863 
L 721.630717 133.179763 
L 724.350869 135.403855 
L 727.070882 137.343815 
L 730.062882 139.191211 
L 733.055021 140.778129 
L 736.319009 142.254277 
L 739.855123 143.594211 
L 742.847123 144.491846 
L 744.751174 144.852366 
L 746.11125 144.946726 
L 746.11125 144.946726 
" clip-path="url(#pe19847ed89)" style="fill: none; stroke: #1e90ff; stroke-opacity: 0.3; stroke-width: 1.5; stroke-linecap: square"/>
   </g>
   <g id="line2d_18">
    <path d="M 523.61125 110.293919 
L 555.707847 110.192248 
L 557.33991 109.941143 
L 558.42786 109.585224 
L 559.515948 108.998089 
L 560.603898 108.11509 
L 561.691986 106.889526 
L 562.779936 105.299674 
L 563.868024 103.34821 
L 565.227961 100.433549 
L 566.860025 96.323344 
L 568.764075 90.834159 
L 570.940113 83.853428 
L 573.932114 73.395211 
L 579.372278 54.05935 
L 581.004342 49.112169 
L 582.364279 45.582249 
L 583.724355 42.643264 
L 585.084431 40.284991 
L 586.17238 38.785266 
L 587.26033 37.594133 
L 588.348418 36.676678 
L 589.436507 35.99905 
L 590.796444 35.441955 
L 592.15652 35.157001 
L 593.516456 35.098132 
L 595.14852 35.27182 
L 597.052571 35.743124 
L 599.228609 36.553526 
L 601.676634 37.721083 
L 604.668634 39.406816 
L 608.476736 41.821326 
L 613.916901 45.565062 
L 637.037218 61.798585 
L 643.293345 65.747183 
L 647.917409 68.440703 
L 650.093447 69.490878 
L 651.453523 69.918823 
L 652.541473 70.037305 
L 653.357574 69.951353 
L 654.173536 69.688343 
L 654.989637 69.23094 
L 656.077587 68.304147 
L 657.165675 67.016977 
L 658.253625 65.389378 
L 659.613701 62.923733 
L 661.245625 59.421125 
L 663.149676 54.719656 
L 665.325714 48.711505 
L 668.317853 39.716965 
L 671.853828 29.141025 
L 673.485891 24.905065 
L 674.845967 21.919474 
L 676.205904 19.495702 
L 677.293993 17.963768 
L 678.381942 16.7738 
L 679.470031 15.896388 
L 680.55798 15.297897 
L 681.646069 14.944383 
L 682.734019 14.803799 
L 684.094095 14.883406 
L 685.454171 15.200556 
L 687.086095 15.83569 
L 688.990145 16.852949 
L 691.166184 18.2893 
L 693.886336 20.374564 
L 697.422311 23.39335 
L 702.590488 28.132227 
L 720.27078 44.561258 
L 726.25478 49.721967 
L 731.694945 54.130495 
L 736.862984 58.043603 
L 741.21506 61.080282 
L 743.119111 62.194671 
L 744.479187 62.7683 
L 745.567136 63.019508 
L 746.11125 63.062747 
L 746.11125 63.062747 
" clip-path="url(#pe19847ed89)" style="fill: none; stroke-dasharray: 7.4,3.2; stroke-dashoffset: 0; stroke: #1e90ff; stroke-width: 2"/>
   </g>
   <g id="patch_10">
    <path d="M 502.48625 164.547528 
L 502.48625 7.667528 
" style="fill: none; stroke: #000000; stroke-width: 0.8; stroke-linejoin: miter; stroke-linecap: square"/>
   </g>
   <g id="patch_11">
    <path d="M 512.48625 174.547528 
L 757.23625 174.547528 
" style="fill: none; stroke: #000000; stroke-width: 0.8; stroke-linejoin: miter; stroke-linecap: square"/>
   </g>
  </g>
  <g id="axes_3">
   <g id="patch_12">
    <path d="M 892.88625 164.547528 
L 1137.63625 164.547528 
L 1137.63625 7.667528 
L 892.88625 7.667528 
z
" style="fill: #ffffff"/>
   </g>
   <g id="patch_13">
    <path d="M 931.755771 164.547528 
L 931.755771 7.667528 
L 950.252025 7.667528 
L 950.252025 164.547528 
z
" clip-path="url(#pa2abd81162)" style="fill: #808080; opacity: 0.2"/>
   </g>
   <g id="patch_14">
    <path d="M 1024.23732 164.547528 
L 1024.23732 7.667528 
L 1043.005701 7.667528 
L 1043.005701 164.547528 
z
" clip-path="url(#pa2abd81162)" style="fill: #808080; opacity: 0.2"/>
   </g>
   <g id="matplotlib.axis_5">
    <g id="xtick_7">
     <g id="line2d_19">
      <g>
       <use xlink:href="#m9cf08d9af9" x="931.755771" y="174.547528" style="stroke: #000000; stroke-width: 0.8"/>
      </g>
     </g>
     <g id="text_13">
      <!-- 0.0 -->
      <g transform="translate(915.852646 196.744403)scale(0.2 -0.2)">
       <use xlink:href="#DejaVuSans-30"/>
       <use xlink:href="#DejaVuSans-2e" x="63.623047"/>
       <use xlink:href="#DejaVuSans-30" x="95.410156"/>
      </g>
     </g>
    </g>
    <g id="xtick_8">
     <g id="line2d_20">
      <g>
       <use xlink:href="#m9cf08d9af9" x="1001.38899" y="174.547528" style="stroke: #000000; stroke-width: 0.8"/>
      </g>
     </g>
     <g id="text_14">
      <!-- 0.5 -->
      <g transform="translate(985.485865 196.744403)scale(0.2 -0.2)">
       <use xlink:href="#DejaVuSans-30"/>
       <use xlink:href="#DejaVuSans-2e" x="63.623047"/>
       <use xlink:href="#DejaVuSans-35" x="95.410156"/>
      </g>
     </g>
    </g>
    <g id="xtick_9">
     <g id="line2d_21">
      <g>
       <use xlink:href="#m9cf08d9af9" x="1071.022209" y="174.547528" style="stroke: #000000; stroke-width: 0.8"/>
      </g>
     </g>
     <g id="text_15">
      <!-- 1.0 -->
      <g transform="translate(1055.119084 196.744403)scale(0.2 -0.2)">
       <use xlink:href="#DejaVuSans-31"/>
       <use xlink:href="#DejaVuSans-2e" x="63.623047"/>
       <use xlink:href="#DejaVuSans-30" x="95.410156"/>
      </g>
     </g>
    </g>
   </g>
   <g id="matplotlib.axis_6">
    <g id="ytick_7">
     <g id="line2d_22">
      <g>
       <use xlink:href="#m63c464bd3b" x="882.88625" y="157.416619" style="stroke: #000000; stroke-width: 0.8"/>
      </g>
     </g>
     <g id="text_16">
      <!-- 0.0 -->
      <g transform="translate(844.08 165.015057)scale(0.2 -0.2)">
       <use xlink:href="#DejaVuSans-30"/>
       <use xlink:href="#DejaVuSans-2e" x="63.623047"/>
       <use xlink:href="#DejaVuSans-30" x="95.410156"/>
      </g>
     </g>
    </g>
    <g id="ytick_8">
     <g id="line2d_23">
      <g>
       <use xlink:href="#m63c464bd3b" x="882.88625" y="86.107528" style="stroke: #000000; stroke-width: 0.8"/>
      </g>
     </g>
     <g id="text_17">
      <!-- 0.5 -->
      <g transform="translate(844.08 93.705966)scale(0.2 -0.2)">
       <use xlink:href="#DejaVuSans-30"/>
       <use xlink:href="#DejaVuSans-2e" x="63.623047"/>
       <use xlink:href="#DejaVuSans-35" x="95.410156"/>
      </g>
     </g>
    </g>
    <g id="ytick_9">
     <g id="line2d_24">
      <g>
       <use xlink:href="#m63c464bd3b" x="882.88625" y="14.798437" style="stroke: #000000; stroke-width: 0.8"/>
      </g>
     </g>
     <g id="text_18">
      <!-- 1.0 -->
      <g transform="translate(844.08 22.396875)scale(0.2 -0.2)">
       <use xlink:href="#DejaVuSans-31"/>
       <use xlink:href="#DejaVuSans-2e" x="63.623047"/>
       <use xlink:href="#DejaVuSans-30" x="95.410156"/>
      </g>
     </g>
    </g>
   </g>
   <g id="line2d_25">
    <path d="M 892.88625 157.416619 
L 1137.63625 157.416619 
" clip-path="url(#pa2abd81162)" style="fill: none; stroke: #808080; stroke-opacity: 0.5; stroke-width: 0.5; stroke-linecap: square"/>
   </g>
   <g id="line2d_26">
    <path d="M 904.01125 157.416619 
L 934.203796 157.308826 
L 935.291885 157.105382 
L 936.107847 156.783669 
L 936.923809 156.215333 
L 937.73991 155.281564 
L 938.555872 153.850459 
L 939.371974 151.797279 
L 940.187936 149.028413 
L 941.003898 145.501562 
L 942.091986 139.65995 
L 943.451923 130.818473 
L 945.355974 116.59655 
L 953.788139 51.253764 
L 955.69219 38.511764 
L 957.052266 30.795875 
L 958.140215 25.895784 
L 958.956177 23.145196 
L 959.772278 21.270206 
L 960.316253 20.518071 
L 960.860228 20.155856 
L 961.404342 20.164733 
L 961.948317 20.517455 
L 962.492291 21.180751 
L 963.308253 22.677397 
L 964.124355 24.664095 
L 965.212304 27.875488 
L 966.844367 33.457092 
L 969.836507 44.705022 
L 975.004545 64.141303 
L 977.996545 74.572698 
L 980.716558 83.314908 
L 983.43671 91.292136 
L 985.884736 97.809889 
L 988.332761 103.716741 
L 990.780787 109.041956 
L 993.228812 113.8227 
L 995.676837 118.100158 
L 998.124863 121.916828 
L 1000.573028 125.314713 
L 1003.021053 128.334169 
L 1005.469079 131.013209 
L 1007.917104 133.387139 
L 1010.637117 135.706362 
L 1013.357269 137.729265 
L 1016.077282 139.49201 
L 1019.069282 141.168879 
L 1022.333409 142.727706 
L 1025.325409 143.926636 
L 1027.22946 144.479837 
L 1028.317409 144.58268 
L 1029.13351 144.447346 
L 1029.949472 144.021425 
L 1030.493447 143.516965 
L 1031.037561 142.791804 
L 1031.853523 141.211071 
L 1032.669485 138.950302 
L 1033.485586 135.951152 
L 1034.573536 130.808222 
L 1035.661625 124.499728 
L 1037.293549 113.433137 
L 1040.013701 92.944494 
L 1045.181739 54.000476 
L 1047.629764 37.175171 
L 1049.261828 27.468961 
L 1050.349777 22.180999 
L 1051.165879 19.050372 
L 1051.981841 16.74911 
L 1052.525955 15.704973 
L 1053.069929 15.057607 
L 1053.613904 14.798437 
L 1054.157879 14.908629 
L 1054.701853 15.36093 
L 1055.245967 16.122066 
L 1056.06193 17.762194 
L 1057.150018 20.684524 
L 1058.509955 25.148381 
L 1060.685993 33.287196 
L 1069.390145 66.820616 
L 1072.382285 77.081223 
L 1075.102298 85.593041 
L 1077.550323 92.56842 
L 1079.998349 98.904403 
L 1082.446374 104.627139 
L 1084.8944 109.772705 
L 1087.342564 114.382585 
L 1089.79059 118.500493 
L 1092.238615 122.170202 
L 1094.686641 125.434139 
L 1097.134666 128.33252 
L 1099.582691 130.902863 
L 1102.030717 133.179763 
L 1104.750869 135.403855 
L 1107.470882 137.343815 
L 1110.462882 139.191211 
L 1113.455021 140.778129 
L 1116.719009 142.254277 
L 1120.255123 143.594211 
L 1123.247123 144.491846 
L 1125.151174 144.852366 
L 1126.51125 144.946726 
L 1126.51125 144.946726 
" clip-path="url(#pa2abd81162)" style="fill: none; stroke: #dc143c; stroke-opacity: 0.3; stroke-width: 1.5; stroke-linecap: square"/>
   </g>
   <g id="line2d_27">
    <path d="M 904.01125 110.293919 
L 936.107847 110.192248 
L 937.73991 109.941143 
L 938.82786 109.585224 
L 939.915948 108.998089 
L 941.003898 108.11509 
L 942.091986 106.889526 
L 943.179936 105.299674 
L 944.268024 103.34821 
L 945.627961 100.433549 
L 947.260025 96.323344 
L 949.164075 90.834159 
L 951.340113 83.853428 
L 954.332114 73.395211 
L 959.772278 54.05935 
L 961.404342 49.112169 
L 962.764279 45.582249 
L 964.124355 42.643264 
L 965.484431 40.284991 
L 966.57238 38.785266 
L 967.66033 37.594133 
L 968.748418 36.676678 
L 969.836507 35.99905 
L 971.196444 35.441955 
L 972.55652 35.157001 
L 973.916456 35.098132 
L 975.54852 35.27182 
L 977.452571 35.743124 
L 979.628609 36.553526 
L 982.076634 37.721083 
L 985.068634 39.406816 
L 988.876736 41.821326 
L 994.316901 45.565062 
L 1017.437218 61.798585 
L 1023.693345 65.747183 
L 1028.317409 68.440703 
L 1030.493447 69.490878 
L 1031.853523 69.918823 
L 1032.941473 70.037305 
L 1033.757574 69.951353 
L 1034.573536 69.688343 
L 1035.389637 69.23094 
L 1036.477587 68.304147 
L 1037.565675 67.016977 
L 1038.653625 65.389378 
L 1040.013701 62.923733 
L 1041.645625 59.421125 
L 1043.549676 54.719656 
L 1045.725714 48.711505 
L 1048.717853 39.716965 
L 1052.253828 29.141025 
L 1053.885891 24.905065 
L 1055.245967 21.919474 
L 1056.605904 19.495702 
L 1057.693993 17.963768 
L 1058.781942 16.7738 
L 1059.870031 15.896388 
L 1060.95798 15.297897 
L 1062.046069 14.944383 
L 1063.134019 14.803799 
L 1064.494095 14.883406 
L 1065.854171 15.200556 
L 1067.486095 15.83569 
L 1069.390145 16.852949 
L 1071.566184 18.2893 
L 1074.286336 20.374564 
L 1077.822311 23.39335 
L 1082.990488 28.132227 
L 1100.67078 44.561258 
L 1106.65478 49.721967 
L 1112.094945 54.130495 
L 1117.262984 58.043603 
L 1121.61506 61.080282 
L 1123.519111 62.194671 
L 1124.879187 62.7683 
L 1125.967136 63.019508 
L 1126.51125 63.062747 
L 1126.51125 63.062747 
" clip-path="url(#pa2abd81162)" style="fill: none; stroke-dasharray: 7.4,3.2; stroke-dashoffset: 0; stroke: #dc143c; stroke-width: 2"/>
   </g>
   <g id="patch_15">
    <path d="M 882.88625 164.547528 
L 882.88625 7.667528 
" style="fill: none; stroke: #000000; stroke-width: 0.8; stroke-linejoin: miter; stroke-linecap: square"/>
   </g>
   <g id="patch_16">
    <path d="M 892.88625 174.547528 
L 1137.63625 174.547528 
" style="fill: none; stroke: #000000; stroke-width: 0.8; stroke-linejoin: miter; stroke-linecap: square"/>
   </g>
  </g>
 </g>
 <defs>
  <clipPath id="p861b157964">
   <rect x="56.00625" y="7.667528" width="320.83" height="156.88"/>
  </clipPath>
  <clipPath id="pe19847ed89">
   <rect x="512.48625" y="7.667528" width="244.75" height="156.88"/>
  </clipPath>
  <clipPath id="pa2abd81162">
   <rect x="892.88625" y="7.667528" width="244.75" height="156.88"/>
  </clipPath>
 </defs>
</svg>
