<?xml version="1.0" encoding="utf-8" standalone="no"?>
<!DOCTYPE svg PUBLIC "-//W3C//DTD SVG 1.1//EN"
  "http://www.w3.org/Graphics/SVG/1.1/DTD/svg11.dtd">
<svg xmlns:xlink="http://www.w3.org/1999/xlink" width="1144.83625pt" height="208.103778pt" viewBox="0 0 1144.83625 208.103778" xmlns="http://www.w3.org/2000/svg" version="1.1">
 <metadata>
  <rdf:RDF xmlns:dc="http://purl.org/dc/elements/1.1/" xmlns:cc="http://creativecommons.org/ns#" xmlns:rdf="http://www.w3.org/1999/02/22-rdf-syntax-ns#">
   <cc:Work>
    <dc:type rdf:resource="http://purl.org/dc/dcmitype/StillImage"/>
    <dc:date>2023-08-21T12:36:59.042372</dc:date>
    <dc:format>image/svg+xml</dc:format>
    <dc:creator>
     <cc:Agent>
      <dc:title>Matplotlib v3.5.2, https://matplotlib.org/</dc:title>
     </cc:Agent>
    </dc:creator>
   </cc:Work>
  </rdf:RDF>
 </metadata>
 <defs>
  <style type="text/css">*{stroke-linejoin: round; stroke-linecap: butt}</style>
 </defs>
 <g id="figure_1">
  <g id="patch_1">
   <path d="M 0 208.103778 
L 1144.83625 208.103778 
L 1144.83625 0 
L 0 0 
z
" style="fill: #ffffff"/>
  </g>
  <g id="axes_1">
   <g id="patch_2">
    <path d="M 56.00625 164.547528 
L 376.83625 164.547528 
L 376.83625 7.667528 
L 56.00625 7.667528 
z
" style="fill: #ffffff"/>
   </g>
   <g id="patch_3">
    <path d="M 106.958276 164.547528 
L 106.958276 7.667528 
L 131.20405 7.667528 
L 131.20405 164.547528 
z
" clip-path="url(#p8d3ec45b4a)" style="fill: #808080; opacity: 0.2"/>
   </g>
   <g id="patch_4">
    <path d="M 228.187512 164.547528 
L 228.187512 7.667528 
L 252.790003 7.667528 
L 252.790003 164.547528 
z
" clip-path="url(#p8d3ec45b4a)" style="fill: #808080; opacity: 0.2"/>
   </g>
   <g id="matplotlib.axis_1">
    <g id="xtick_1">
     <g id="line2d_1">
      <defs>
       <path id="mb695e77aee" d="M 0 0 
L 0 3.5 
" style="stroke: #000000; stroke-width: 0.8"/>
      </defs>
      <g>
       <use xlink:href="#mb695e77aee" x="106.958276" y="174.547528" style="stroke: #000000; stroke-width: 0.8"/>
      </g>
     </g>
     <g id="text_1">
      <!-- 0.0 -->
      <g transform="translate(91.055151 196.744403)scale(0.2 -0.2)">
       <defs>
        <path id="DejaVuSans-30" d="M 2034 4250 
Q 1547 4250 1301 3770 
Q 1056 3291 1056 2328 
Q 1056 1369 1301 889 
Q 1547 409 2034 409 
Q 2525 409 2770 889 
Q 3016 1369 3016 2328 
Q 3016 3291 2770 3770 
Q 2525 4250 2034 4250 
z
M 2034 4750 
Q 2819 4750 3233 4129 
Q 3647 3509 3647 2328 
Q 3647 1150 3233 529 
Q 2819 -91 2034 -91 
Q 1250 -91 836 529 
Q 422 1150 422 2328 
Q 422 3509 836 4129 
Q 1250 4750 2034 4750 
z
" transform="scale(0.015625)"/>
        <path id="DejaVuSans-2e" d="M 684 794 
L 1344 794 
L 1344 0 
L 684 0 
L 684 794 
z
" transform="scale(0.015625)"/>
       </defs>
       <use xlink:href="#DejaVuSans-30"/>
       <use xlink:href="#DejaVuSans-2e" x="63.623047"/>
       <use xlink:href="#DejaVuSans-30" x="95.410156"/>
      </g>
     </g>
    </g>
    <g id="xtick_2">
     <g id="line2d_2">
      <g>
       <use xlink:href="#mb695e77aee" x="198.236828" y="174.547528" style="stroke: #000000; stroke-width: 0.8"/>
      </g>
     </g>
     <g id="text_2">
      <!-- 0.5 -->
      <g transform="translate(182.333703 196.744403)scale(0.2 -0.2)">
       <defs>
        <path id="DejaVuSans-35" d="M 691 4666 
L 3169 4666 
L 3169 4134 
L 1269 4134 
L 1269 2991 
Q 1406 3038 1543 3061 
Q 1681 3084 1819 3084 
Q 2600 3084 3056 2656 
Q 3513 2228 3513 1497 
Q 3513 744 3044 326 
Q 2575 -91 1722 -91 
Q 1428 -91 1123 -41 
Q 819 9 494 109 
L 494 744 
Q 775 591 1075 516 
Q 1375 441 1709 441 
Q 2250 441 2565 725 
Q 2881 1009 2881 1497 
Q 2881 1984 2565 2268 
Q 2250 2553 1709 2553 
Q 1456 2553 1204 2497 
Q 953 2441 691 2322 
L 691 4666 
z
" transform="scale(0.015625)"/>
       </defs>
       <use xlink:href="#DejaVuSans-30"/>
       <use xlink:href="#DejaVuSans-2e" x="63.623047"/>
       <use xlink:href="#DejaVuSans-35" x="95.410156"/>
      </g>
     </g>
    </g>
    <g id="xtick_3">
     <g id="line2d_3">
      <g>
       <use xlink:href="#mb695e77aee" x="289.51538" y="174.547528" style="stroke: #000000; stroke-width: 0.8"/>
      </g>
     </g>
     <g id="text_3">
      <!-- 1.0 -->
      <g transform="translate(273.612255 196.744403)scale(0.2 -0.2)">
       <defs>
        <path id="DejaVuSans-31" d="M 794 531 
L 1825 531 
L 1825 4091 
L 703 3866 
L 703 4441 
L 1819 4666 
L 2450 4666 
L 2450 531 
L 3481 531 
L 3481 0 
L 794 0 
L 794 531 
z
" transform="scale(0.015625)"/>
       </defs>
       <use xlink:href="#DejaVuSans-31"/>
       <use xlink:href="#DejaVuSans-2e" x="63.623047"/>
       <use xlink:href="#DejaVuSans-30" x="95.410156"/>
      </g>
     </g>
    </g>
   </g>
   <g id="matplotlib.axis_2">
    <g id="ytick_1">
     <g id="line2d_4">
      <defs>
       <path id="mb2b7f7487c" d="M 0 0 
L -3.5 0 
" style="stroke: #000000; stroke-width: 0.8"/>
      </defs>
      <g>
       <use xlink:href="#mb2b7f7487c" x="46.00625" y="157.416619" style="stroke: #000000; stroke-width: 0.8"/>
      </g>
     </g>
     <g id="text_4">
      <!-- 0.0 -->
      <g transform="translate(7.2 165.015057)scale(0.2 -0.2)">
       <use xlink:href="#DejaVuSans-30"/>
       <use xlink:href="#DejaVuSans-2e" x="63.623047"/>
       <use xlink:href="#DejaVuSans-30" x="95.410156"/>
      </g>
     </g>
    </g>
    <g id="ytick_2">
     <g id="line2d_5">
      <g>
       <use xlink:href="#mb2b7f7487c" x="46.00625" y="86.107528" style="stroke: #000000; stroke-width: 0.8"/>
      </g>
     </g>
     <g id="text_5">
      <!-- 0.5 -->
      <g transform="translate(7.2 93.705966)scale(0.2 -0.2)">
       <use xlink:href="#DejaVuSans-30"/>
       <use xlink:href="#DejaVuSans-2e" x="63.623047"/>
       <use xlink:href="#DejaVuSans-35" x="95.410156"/>
      </g>
     </g>
    </g>
    <g id="ytick_3">
     <g id="line2d_6">
      <g>
       <use xlink:href="#mb2b7f7487c" x="46.00625" y="14.798437" style="stroke: #000000; stroke-width: 0.8"/>
      </g>
     </g>
     <g id="text_6">
      <!-- 1.0 -->
      <g transform="translate(7.2 22.396875)scale(0.2 -0.2)">
       <use xlink:href="#DejaVuSans-31"/>
       <use xlink:href="#DejaVuSans-2e" x="63.623047"/>
       <use xlink:href="#DejaVuSans-30" x="95.410156"/>
      </g>
     </g>
    </g>
   </g>
   <g id="line2d_7">
    <path d="M 56.00625 157.416619 
L 376.83625 157.416619 
" clip-path="url(#p8d3ec45b4a)" style="fill: none; stroke: #808080; stroke-opacity: 0.5; stroke-width: 0.5; stroke-linecap: square"/>
   </g>
   <g id="line2d_8">
    <path d="M 70.589432 157.416619 
L 105.53214 157.316126 
L 107.671344 157.080047 
L 109.097662 156.747531 
L 110.523798 156.186388 
L 111.593583 155.551199 
L 112.663185 154.661813 
L 113.732787 153.429306 
L 114.802572 151.736025 
L 115.872174 149.437904 
L 116.941959 146.377453 
L 118.011561 142.406333 
L 119.081163 137.412168 
L 120.150947 131.341047 
L 121.577084 121.608621 
L 123.003402 110.221931 
L 125.142606 90.950495 
L 129.064846 54.688676 
L 130.490982 43.223973 
L 131.9173 33.482734 
L 132.986903 27.491945 
L 134.056687 22.696271 
L 135.126289 19.095035 
L 135.839357 17.335047 
L 136.552425 16.060485 
L 137.265676 15.242042 
L 137.978744 14.847354 
L 138.691812 14.842883 
L 139.40488 15.195543 
L 140.118131 15.873909 
L 140.831199 16.848894 
L 141.900801 18.811043 
L 142.970586 21.306223 
L 144.396722 25.35502 
L 145.82304 30.117182 
L 147.60571 36.909058 
L 149.745097 46.006376 
L 154.023688 65.577391 
L 156.876325 78.128332 
L 159.015529 86.707737 
L 161.154916 94.421589 
L 163.294303 101.261811 
L 165.433507 107.286676 
L 167.572894 112.583108 
L 169.71228 117.243178 
L 171.851667 121.35245 
L 173.991054 124.985917 
L 176.130258 128.207652 
L 178.269645 131.071926 
L 180.765565 134.022693 
L 183.261486 136.610441 
L 185.757407 138.886187 
L 188.609862 141.159559 
L 191.462316 143.134359 
L 194.314771 144.854695 
L 197.52376 146.53129 
L 201.089283 148.122706 
L 204.654806 149.474257 
L 208.577045 150.729506 
L 212.855636 151.868697 
L 217.490943 152.879407 
L 222.839319 153.807032 
L 226.761376 154.287413 
L 228.900762 154.369003 
L 230.683433 154.226612 
L 232.109751 153.89417 
L 233.179353 153.465783 
L 234.249138 152.833538 
L 235.31874 151.937027 
L 236.388342 150.700891 
L 237.458127 149.039841 
L 238.527729 146.871242 
L 239.597331 144.133613 
L 240.667115 140.805594 
L 242.093252 135.510476 
L 243.876104 127.827859 
L 251.00715 95.611199 
L 252.790003 88.93962 
L 254.216321 84.285723 
L 255.642457 80.300425 
L 257.068776 77.007512 
L 258.138378 74.991288 
L 259.20798 73.356338 
L 260.277765 72.094624 
L 261.347367 71.199658 
L 262.416969 70.667626 
L 263.13022 70.51385 
L 263.843288 70.520741 
L 264.556356 70.68825 
L 265.62614 71.239723 
L 266.695742 72.147587 
L 267.765344 73.402939 
L 268.835129 74.990574 
L 270.261265 77.584176 
L 271.687584 80.652107 
L 273.470254 85.001824 
L 276.679425 93.586186 
L 280.601482 103.940994 
L 283.097403 109.910136 
L 285.593324 115.262425 
L 287.732528 119.361721 
L 289.871914 123.041414 
L 292.011301 126.34038 
L 294.507222 129.760844 
L 297.003143 132.775676 
L 299.499063 135.436804 
L 301.994802 137.789417 
L 304.847256 140.150289 
L 307.699711 142.209217 
L 310.552166 144.008725 
L 313.761155 145.767824 
L 317.32686 147.443016 
L 320.892383 148.870934 
L 324.81444 150.202882 
L 329.093213 151.418249 
L 333.728521 152.503546 
L 338.720179 153.451569 
L 344.425089 154.308285 
L 350.843249 155.043589 
L 357.617761 155.601971 
L 361.896352 155.764649 
L 362.253068 155.766656 
L 362.253068 155.766656 
" clip-path="url(#p8d3ec45b4a)" style="fill: none; stroke: #1e90ff; stroke-width: 1.5; stroke-linecap: square"/>
   </g>
   <g id="line2d_9">
    <path d="M 70.589432 157.416619 
L 104.105821 157.313731 
L 105.888674 157.090038 
L 107.31481 156.693075 
L 108.384412 156.19076 
L 109.454196 155.450787 
L 110.523798 154.418209 
L 111.593583 153.042434 
L 112.663185 151.275571 
L 113.732787 149.065514 
L 114.802572 146.347143 
L 115.872174 143.038174 
L 116.941959 139.046491 
L 118.011561 134.291326 
L 119.437697 126.704652 
L 120.864015 117.797661 
L 123.003402 102.724619 
L 127.638527 69.372764 
L 129.777914 55.58811 
L 131.560766 45.277866 
L 133.343437 36.238728 
L 134.769755 30.043862 
L 136.195891 24.846839 
L 137.265676 21.631984 
L 138.335278 19.018084 
L 139.40488 17.018085 
L 140.118131 16.032864 
L 140.831199 15.331531 
L 141.544267 14.918718 
L 142.257335 14.798437 
L 142.970586 14.973333 
L 143.683654 15.44388 
L 144.396722 16.207625 
L 145.10979 17.258623 
L 146.179574 19.351368 
L 147.249176 22.018969 
L 148.675495 26.355498 
L 150.458165 32.764905 
L 152.597552 41.394258 
L 160.085314 72.363793 
L 162.581235 81.503198 
L 165.076973 89.807134 
L 167.572894 97.286841 
L 170.068814 103.991025 
L 172.564735 109.982356 
L 175.060656 115.325983 
L 177.556577 120.084656 
L 180.052497 124.316897 
L 182.548236 128.076473 
L 185.044156 131.412423 
L 187.540077 134.369304 
L 190.035998 136.98753 
L 192.531919 139.303712 
L 195.384373 141.62329 
L 198.236828 143.635947 
L 201.089283 145.381151 
L 204.298272 147.068191 
L 207.50726 148.504471 
L 211.072783 149.851863 
L 214.995023 151.082322 
L 219.273613 152.178804 
L 223.552387 153.047786 
L 226.048308 153.375516 
L 227.830978 153.397835 
L 229.257296 153.172001 
L 230.326899 152.792183 
L 231.396683 152.179977 
L 232.466285 151.290175 
L 233.535887 150.079105 
L 234.605672 148.500301 
L 235.675274 146.49746 
L 236.745059 143.999308 
L 237.814661 140.92233 
L 238.884263 137.185247 
L 239.954047 132.733639 
L 241.380184 125.69482 
L 243.163036 115.427461 
L 250.294082 72.18183 
L 252.433469 61.318929 
L 254.216321 53.357444 
L 255.642457 47.797106 
L 257.068776 43.024882 
L 258.494912 39.08891 
L 259.564697 36.707365 
L 260.634299 34.830258 
L 261.703901 33.473312 
L 262.416969 32.866429 
L 263.13022 32.504101 
L 263.843288 32.391248 
L 264.556356 32.531539 
L 265.269606 32.926615 
L 265.982674 33.575364 
L 266.695742 34.473383 
L 267.765344 36.269333 
L 268.835129 38.565531 
L 270.261265 42.304767 
L 272.044118 47.834783 
L 274.540039 56.568486 
L 281.31455 80.829277 
L 284.167005 89.944492 
L 286.662926 97.174583 
L 289.158846 103.71377 
L 291.654767 109.59945 
L 294.150688 114.880619 
L 296.646426 119.608779 
L 299.142347 123.834094 
L 301.638268 127.6039 
L 304.134188 130.962199 
L 306.630109 133.949582 
L 309.12603 136.60333 
L 311.621951 138.957602 
L 314.474405 141.321444 
L 317.32686 143.377163 
L 320.179315 145.162801 
L 323.388304 146.891094 
L 326.597292 148.363555 
L 330.162815 149.745048 
L 334.085055 151.005968 
L 338.363645 152.128475 
L 342.998953 153.10558 
L 348.347328 153.9916 
L 354.408772 154.756253 
L 359.400431 155.187995 
L 362.253068 155.278387 
L 362.253068 155.278387 
" clip-path="url(#p8d3ec45b4a)" style="fill: none; stroke: #dc143c; stroke-width: 1.5; stroke-linecap: square"/>
   </g>
   <g id="patch_5">
    <path d="M 46.00625 164.547528 
L 46.00625 7.667528 
" style="fill: none; stroke: #000000; stroke-width: 0.8; stroke-linejoin: miter; stroke-linecap: square"/>
   </g>
   <g id="patch_6">
    <path d="M 56.00625 174.547528 
L 376.83625 174.547528 
" style="fill: none; stroke: #000000; stroke-width: 0.8; stroke-linejoin: miter; stroke-linecap: square"/>
   </g>
  </g>
  <g id="axes_2">
   <g id="patch_7">
    <path d="M 512.48625 164.547528 
L 757.23625 164.547528 
L 757.23625 7.667528 
L 512.48625 7.667528 
z
" style="fill: #ffffff"/>
   </g>
   <g id="patch_8">
    <path d="M 551.355771 164.547528 
L 551.355771 7.667528 
L 569.852025 7.667528 
L 569.852025 164.547528 
z
" clip-path="url(#p7a1808de73)" style="fill: #808080; opacity: 0.2"/>
   </g>
   <g id="patch_9">
    <path d="M 643.83732 164.547528 
L 643.83732 7.667528 
L 662.605701 7.667528 
L 662.605701 164.547528 
z
" clip-path="url(#p7a1808de73)" style="fill: #808080; opacity: 0.2"/>
   </g>
   <g id="matplotlib.axis_3">
    <g id="xtick_4">
     <g id="line2d_10">
      <g>
       <use xlink:href="#mb695e77aee" x="551.355771" y="174.547528" style="stroke: #000000; stroke-width: 0.8"/>
      </g>
     </g>
     <g id="text_7">
      <!-- 0.0 -->
      <g transform="translate(535.452646 196.744403)scale(0.2 -0.2)">
       <use xlink:href="#DejaVuSans-30"/>
       <use xlink:href="#DejaVuSans-2e" x="63.623047"/>
       <use xlink:href="#DejaVuSans-30" x="95.410156"/>
      </g>
     </g>
    </g>
    <g id="xtick_5">
     <g id="line2d_11">
      <g>
       <use xlink:href="#mb695e77aee" x="620.98899" y="174.547528" style="stroke: #000000; stroke-width: 0.8"/>
      </g>
     </g>
     <g id="text_8">
      <!-- 0.5 -->
      <g transform="translate(605.085865 196.744403)scale(0.2 -0.2)">
       <use xlink:href="#DejaVuSans-30"/>
       <use xlink:href="#DejaVuSans-2e" x="63.623047"/>
       <use xlink:href="#DejaVuSans-35" x="95.410156"/>
      </g>
     </g>
    </g>
    <g id="xtick_6">
     <g id="line2d_12">
      <g>
       <use xlink:href="#mb695e77aee" x="690.622209" y="174.547528" style="stroke: #000000; stroke-width: 0.8"/>
      </g>
     </g>
     <g id="text_9">
      <!-- 1.0 -->
      <g transform="translate(674.719084 196.744403)scale(0.2 -0.2)">
       <use xlink:href="#DejaVuSans-31"/>
       <use xlink:href="#DejaVuSans-2e" x="63.623047"/>
       <use xlink:href="#DejaVuSans-30" x="95.410156"/>
      </g>
     </g>
    </g>
   </g>
   <g id="matplotlib.axis_4">
    <g id="ytick_4">
     <g id="line2d_13">
      <g>
       <use xlink:href="#mb2b7f7487c" x="502.48625" y="157.416619" style="stroke: #000000; stroke-width: 0.8"/>
      </g>
     </g>
     <g id="text_10">
      <!-- 0.0 -->
      <g transform="translate(463.68 165.015057)scale(0.2 -0.2)">
       <use xlink:href="#DejaVuSans-30"/>
       <use xlink:href="#DejaVuSans-2e" x="63.623047"/>
       <use xlink:href="#DejaVuSans-30" x="95.410156"/>
      </g>
     </g>
    </g>
    <g id="ytick_5">
     <g id="line2d_14">
      <g>
       <use xlink:href="#mb2b7f7487c" x="502.48625" y="86.107528" style="stroke: #000000; stroke-width: 0.8"/>
      </g>
     </g>
     <g id="text_11">
      <!-- 0.5 -->
      <g transform="translate(463.68 93.705966)scale(0.2 -0.2)">
       <use xlink:href="#DejaVuSans-30"/>
       <use xlink:href="#DejaVuSans-2e" x="63.623047"/>
       <use xlink:href="#DejaVuSans-35" x="95.410156"/>
      </g>
     </g>
    </g>
    <g id="ytick_6">
     <g id="line2d_15">
      <g>
       <use xlink:href="#mb2b7f7487c" x="502.48625" y="14.798437" style="stroke: #000000; stroke-width: 0.8"/>
      </g>
     </g>
     <g id="text_12">
      <!-- 1.0 -->
      <g transform="translate(463.68 22.396875)scale(0.2 -0.2)">
       <use xlink:href="#DejaVuSans-31"/>
       <use xlink:href="#DejaVuSans-2e" x="63.623047"/>
       <use xlink:href="#DejaVuSans-30" x="95.410156"/>
      </g>
     </g>
    </g>
   </g>
   <g id="line2d_16">
    <path d="M 512.48625 157.416619 
L 757.23625 157.416619 
" clip-path="url(#p7a1808de73)" style="fill: none; stroke: #808080; stroke-opacity: 0.5; stroke-width: 0.5; stroke-linecap: square"/>
   </g>
   <g id="line2d_17">
    <path d="M 523.61125 157.416619 
L 552.44372 157.322415 
L 554.619897 157.084522 
L 555.979834 156.758827 
L 557.067923 156.316959 
L 558.155872 155.614972 
L 558.971974 154.839936 
L 559.787936 153.776306 
L 560.603898 152.347075 
L 561.419999 150.47222 
L 562.235961 148.07554 
L 563.051923 145.092966 
L 564.140012 140.13447 
L 565.227961 134.041086 
L 566.588037 124.96446 
L 568.220101 112.40944 
L 571.212101 87.102286 
L 574.204101 62.278019 
L 576.108152 48.15781 
L 577.740215 37.694802 
L 579.100291 30.435237 
L 580.188241 25.736642 
L 581.276329 22.121545 
L 582.092291 20.159452 
L 582.908253 18.854486 
L 583.452367 18.349435 
L 583.996342 18.131868 
L 584.540317 18.194549 
L 585.084431 18.527348 
L 585.628405 19.117549 
L 586.444367 20.452474 
L 587.26033 22.276108 
L 588.348418 25.362239 
L 589.708494 30.066856 
L 591.340418 36.600924 
L 594.06057 48.631066 
L 599.228609 71.613613 
L 601.948622 82.622034 
L 604.396647 91.624553 
L 606.844812 99.728719 
L 609.020711 106.191202 
L 611.196888 111.990312 
L 613.372787 117.170636 
L 615.548964 121.782222 
L 617.724863 125.876771 
L 619.90104 129.505155 
L 622.076939 132.715878 
L 624.253116 135.554189 
L 626.429015 138.061649 
L 628.87718 140.53391 
L 631.325205 142.683131 
L 633.773231 144.55165 
L 636.493244 146.343465 
L 639.213257 147.877392 
L 641.933409 149.179466 
L 644.381434 150.129371 
L 646.285485 150.65626 
L 647.917409 150.874089 
L 649.005498 150.83156 
L 650.093447 150.557373 
L 650.909548 150.135488 
L 651.72551 149.462823 
L 652.541473 148.469607 
L 653.357574 147.079985 
L 654.173536 145.217475 
L 654.989637 142.811772 
L 655.805599 139.806555 
L 656.893549 134.811648 
L 657.981637 128.692101 
L 659.341713 119.616419 
L 660.973638 107.12004 
L 663.965777 82.046919 
L 666.957777 57.568096 
L 668.861828 43.704579 
L 670.493891 33.473072 
L 671.853828 26.409748 
L 672.941917 21.868325 
L 673.757879 19.168715 
L 674.57398 17.105849 
L 675.389942 15.695962 
L 675.933917 15.120849 
L 676.478031 14.834781 
L 677.022006 14.831937 
L 677.56598 15.103526 
L 678.109955 15.638006 
L 678.926056 16.901672 
L 679.742018 18.670681 
L 680.830107 21.711367 
L 682.190044 26.402388 
L 683.822107 32.977357 
L 686.270133 43.92727 
L 691.982285 69.85617 
L 694.702298 81.057594 
L 697.150323 90.216086 
L 699.598349 98.460997 
L 701.774387 105.036943 
L 703.950425 110.93952 
L 706.126463 116.214167 
L 708.302501 120.911723 
L 710.478539 125.084615 
L 712.654577 128.784381 
L 714.830615 132.060136 
L 717.006653 134.957688 
L 719.182691 137.519108 
L 721.630717 140.046336 
L 724.078742 142.245032 
L 726.526768 144.158072 
L 729.24692 145.994175 
L 731.966933 147.568523 
L 734.958933 149.043412 
L 738.22306 150.393661 
L 741.487047 151.499626 
L 743.935073 152.097747 
L 745.567136 152.295504 
L 746.11125 152.314322 
L 746.11125 152.314322 
" clip-path="url(#p7a1808de73)" style="fill: none; stroke: #1e90ff; stroke-opacity: 0.3; stroke-width: 1.5; stroke-linecap: square"/>
   </g>
   <g id="line2d_18">
    <path d="M 523.61125 133.852869 
L 556.795796 133.754842 
L 558.971974 133.543778 
L 560.603898 133.176645 
L 561.963974 132.630811 
L 563.051923 131.972507 
L 564.140012 131.06498 
L 565.227961 129.860662 
L 566.31605 128.314356 
L 567.403999 126.385774 
L 568.492088 124.043865 
L 569.852025 120.512513 
L 571.212101 116.324347 
L 572.844164 110.524309 
L 575.020202 101.785901 
L 578.828304 85.202713 
L 582.092291 71.423072 
L 584.268329 63.221798 
L 585.900393 57.837712 
L 587.532456 53.250151 
L 588.892393 50.098318 
L 590.252469 47.572569 
L 591.340418 45.987648 
L 592.428507 44.761783 
L 593.516456 43.860283 
L 594.604545 43.245126 
L 595.692495 42.878471 
L 596.780583 42.724822 
L 598.140659 42.783743 
L 599.500596 43.071002 
L 601.132659 43.653004 
L 603.03671 44.578813 
L 605.484736 46.040103 
L 608.748723 48.274013 
L 614.460875 52.503957 
L 624.525104 59.937906 
L 631.597193 64.870401 
L 638.397295 69.344382 
L 644.925409 73.375342 
L 649.277485 75.824255 
L 651.72551 76.978335 
L 653.357574 77.546097 
L 654.71765 77.818027 
L 656.077587 77.840593 
L 657.165675 77.635534 
L 658.253625 77.193566 
L 659.341713 76.47508 
L 660.429663 75.438293 
L 661.517752 74.045324 
L 662.605701 72.27079 
L 663.69379 70.108838 
L 665.053726 66.88764 
L 666.68579 62.359445 
L 668.589841 56.385302 
L 672.125955 44.352283 
L 675.117955 34.457186 
L 677.022006 28.817037 
L 678.65393 24.599 
L 680.014006 21.616143 
L 681.374082 19.176599 
L 682.462031 17.633906 
L 683.55012 16.450982 
L 684.638069 15.609425 
L 685.726158 15.080612 
L 686.814107 14.830331 
L 687.902196 14.822814 
L 688.990145 15.023522 
L 690.350222 15.519135 
L 691.982285 16.40187 
L 693.886336 17.731312 
L 696.334361 19.767651 
L 699.598349 22.820646 
L 706.126463 29.32745 
L 713.470539 36.530959 
L 719.454679 42.090417 
L 725.438818 47.342653 
L 731.422958 52.293724 
L 737.407098 56.950933 
L 741.487047 59.901865 
L 743.391098 61.0399 
L 744.751174 61.594745 
L 745.839123 61.805213 
L 746.11125 61.820605 
L 746.11125 61.820605 
" clip-path="url(#p7a1808de73)" style="fill: none; stroke-dasharray: 7.4,3.2; stroke-dashoffset: 0; stroke: #1e90ff; stroke-width: 2"/>
   </g>
   <g id="patch_10">
    <path d="M 502.48625 164.547528 
L 502.48625 7.667528 
" style="fill: none; stroke: #000000; stroke-width: 0.8; stroke-linejoin: miter; stroke-linecap: square"/>
   </g>
   <g id="patch_11">
    <path d="M 512.48625 174.547528 
L 757.23625 174.547528 
" style="fill: none; stroke: #000000; stroke-width: 0.8; stroke-linejoin: miter; stroke-linecap: square"/>
   </g>
  </g>
  <g id="axes_3">
   <g id="patch_12">
    <path d="M 892.88625 164.547528 
L 1137.63625 164.547528 
L 1137.63625 7.667528 
L 892.88625 7.667528 
z
" style="fill: #ffffff"/>
   </g>
   <g id="patch_13">
    <path d="M 931.755771 164.547528 
L 931.755771 7.667528 
L 950.252025 7.667528 
L 950.252025 164.547528 
z
" clip-path="url(#pc13b3f8024)" style="fill: #808080; opacity: 0.2"/>
   </g>
   <g id="patch_14">
    <path d="M 1024.23732 164.547528 
L 1024.23732 7.667528 
L 1043.005701 7.667528 
L 1043.005701 164.547528 
z
" clip-path="url(#pc13b3f8024)" style="fill: #808080; opacity: 0.2"/>
   </g>
   <g id="matplotlib.axis_5">
    <g id="xtick_7">
     <g id="line2d_19">
      <g>
       <use xlink:href="#mb695e77aee" x="931.755771" y="174.547528" style="stroke: #000000; stroke-width: 0.8"/>
      </g>
     </g>
     <g id="text_13">
      <!-- 0.0 -->
      <g transform="translate(915.852646 196.744403)scale(0.2 -0.2)">
       <use xlink:href="#DejaVuSans-30"/>
       <use xlink:href="#DejaVuSans-2e" x="63.623047"/>
       <use xlink:href="#DejaVuSans-30" x="95.410156"/>
      </g>
     </g>
    </g>
    <g id="xtick_8">
     <g id="line2d_20">
      <g>
       <use xlink:href="#mb695e77aee" x="1001.38899" y="174.547528" style="stroke: #000000; stroke-width: 0.8"/>
      </g>
     </g>
     <g id="text_14">
      <!-- 0.5 -->
      <g transform="translate(985.485865 196.744403)scale(0.2 -0.2)">
       <use xlink:href="#DejaVuSans-30"/>
       <use xlink:href="#DejaVuSans-2e" x="63.623047"/>
       <use xlink:href="#DejaVuSans-35" x="95.410156"/>
      </g>
     </g>
    </g>
    <g id="xtick_9">
     <g id="line2d_21">
      <g>
       <use xlink:href="#mb695e77aee" x="1071.022209" y="174.547528" style="stroke: #000000; stroke-width: 0.8"/>
      </g>
     </g>
     <g id="text_15">
      <!-- 1.0 -->
      <g transform="translate(1055.119084 196.744403)scale(0.2 -0.2)">
       <use xlink:href="#DejaVuSans-31"/>
       <use xlink:href="#DejaVuSans-2e" x="63.623047"/>
       <use xlink:href="#DejaVuSans-30" x="95.410156"/>
      </g>
     </g>
    </g>
   </g>
   <g id="matplotlib.axis_6">
    <g id="ytick_7">
     <g id="line2d_22">
      <g>
       <use xlink:href="#mb2b7f7487c" x="882.88625" y="157.416619" style="stroke: #000000; stroke-width: 0.8"/>
      </g>
     </g>
     <g id="text_16">
      <!-- 0.0 -->
      <g transform="translate(844.08 165.015057)scale(0.2 -0.2)">
       <use xlink:href="#DejaVuSans-30"/>
       <use xlink:href="#DejaVuSans-2e" x="63.623047"/>
       <use xlink:href="#DejaVuSans-30" x="95.410156"/>
      </g>
     </g>
    </g>
    <g id="ytick_8">
     <g id="line2d_23">
      <g>
       <use xlink:href="#mb2b7f7487c" x="882.88625" y="86.107528" style="stroke: #000000; stroke-width: 0.8"/>
      </g>
     </g>
     <g id="text_17">
      <!-- 0.5 -->
      <g transform="translate(844.08 93.705966)scale(0.2 -0.2)">
       <use xlink:href="#DejaVuSans-30"/>
       <use xlink:href="#DejaVuSans-2e" x="63.623047"/>
       <use xlink:href="#DejaVuSans-35" x="95.410156"/>
      </g>
     </g>
    </g>
    <g id="ytick_9">
     <g id="line2d_24">
      <g>
       <use xlink:href="#mb2b7f7487c" x="882.88625" y="14.798437" style="stroke: #000000; stroke-width: 0.8"/>
      </g>
     </g>
     <g id="text_18">
      <!-- 1.0 -->
      <g transform="translate(844.08 22.396875)scale(0.2 -0.2)">
       <use xlink:href="#DejaVuSans-31"/>
       <use xlink:href="#DejaVuSans-2e" x="63.623047"/>
       <use xlink:href="#DejaVuSans-30" x="95.410156"/>
      </g>
     </g>
    </g>
   </g>
   <g id="line2d_25">
    <path d="M 892.88625 157.416619 
L 1137.63625 157.416619 
" clip-path="url(#pc13b3f8024)" style="fill: none; stroke: #808080; stroke-opacity: 0.5; stroke-width: 0.5; stroke-linecap: square"/>
   </g>
   <g id="line2d_26">
    <path d="M 904.01125 157.416619 
L 930.667821 157.318605 
L 932.299745 157.087724 
L 933.659821 156.656753 
L 934.747771 156.068587 
L 935.835859 155.190767 
L 936.923809 153.947596 
L 938.011898 152.24438 
L 938.82786 150.591867 
L 939.643961 148.549705 
L 940.73191 145.109425 
L 941.819999 140.728175 
L 942.907948 135.325999 
L 944.268024 127.14131 
L 945.627961 117.533368 
L 947.532012 102.328859 
L 953.516152 53.000446 
L 955.148215 41.88137 
L 956.508152 33.978352 
L 957.59624 28.675839 
L 958.68419 24.378488 
L 959.500291 21.866501 
L 960.316253 19.994619 
L 961.132355 18.776359 
L 961.676329 18.326479 
L 962.220304 18.160791 
L 962.764279 18.270765 
L 963.308253 18.645016 
L 963.852367 19.269825 
L 964.668329 20.642646 
L 965.484431 22.487419 
L 966.57238 25.579306 
L 967.932456 30.268538 
L 969.56438 36.784324 
L 972.012406 47.637693 
L 978.268533 75.867475 
L 980.716558 85.789072 
L 983.164723 94.778782 
L 985.340761 101.96206 
L 987.516799 108.404359 
L 989.692837 114.146587 
L 991.868875 119.241305 
L 994.044913 123.746149 
L 996.220951 127.719578 
L 998.39699 131.218208 
L 1000.573028 134.295251 
L 1002.749066 136.99969 
L 1004.925104 139.375954 
L 1007.373129 141.706432 
L 1009.821155 143.722014 
L 1012.26918 145.466327 
L 1014.989193 147.13204 
L 1017.981332 148.683418 
L 1020.973333 149.973653 
L 1023.149371 150.696073 
L 1024.781434 150.99453 
L 1025.869384 150.989808 
L 1026.957472 150.751134 
L 1027.773434 150.379358 
L 1028.589396 149.810121 
L 1029.405498 149.010619 
L 1030.22146 147.941245 
L 1031.037561 146.553292 
L 1031.853523 144.789402 
L 1032.669485 142.587845 
L 1033.757574 138.872075 
L 1034.845523 134.173911 
L 1035.933612 128.457689 
L 1037.293549 119.94844 
L 1038.925612 108.049388 
L 1041.10165 90.316297 
L 1045.453726 54.481015 
L 1047.08579 42.78327 
L 1048.445866 34.28541 
L 1049.805803 27.119317 
L 1050.893891 22.461298 
L 1051.981841 18.853617 
L 1052.797942 16.881677 
L 1053.613904 15.559674 
L 1054.157879 15.041162 
L 1054.701853 14.809118 
L 1055.245967 14.856475 
L 1055.789942 15.173103 
L 1056.333917 15.746285 
L 1057.150018 17.054413 
L 1057.96598 18.850905 
L 1059.05393 21.904261 
L 1060.414006 26.584384 
L 1062.046069 33.138814 
L 1064.494095 44.130443 
L 1071.022209 74.139971 
L 1073.470234 84.227394 
L 1075.91826 93.366689 
L 1078.094298 100.670624 
L 1080.270336 107.223086 
L 1082.446374 113.065932 
L 1084.622412 118.252585 
L 1086.79845 122.841465 
L 1088.974488 126.891738 
L 1091.150526 130.46066 
L 1093.326565 133.602021 
L 1095.502603 136.36533 
L 1097.678641 138.795489 
L 1100.126666 141.181185 
L 1102.574692 143.246783 
L 1105.022856 145.036405 
L 1107.742869 146.747483 
L 1110.734869 148.34379 
L 1113.727009 149.688958 
L 1116.990996 150.918588 
L 1120.52711 152.015806 
L 1123.519111 152.730747 
L 1125.695149 153.018338 
L 1126.51125 153.049506 
L 1126.51125 153.049506 
" clip-path="url(#pc13b3f8024)" style="fill: none; stroke: #dc143c; stroke-opacity: 0.3; stroke-width: 1.5; stroke-linecap: square"/>
   </g>
   <g id="line2d_27">
    <path d="M 904.01125 80.206273 
L 935.563872 80.105492 
L 938.011898 79.864443 
L 939.915948 79.443455 
L 941.275885 78.934497 
L 942.635961 78.189256 
L 943.996037 77.162926 
L 945.355974 75.827802 
L 946.71605 74.170081 
L 948.076126 72.183171 
L 949.70805 69.364749 
L 951.340113 66.098655 
L 953.516152 61.175659 
L 957.324253 51.807371 
L 960.316253 44.705847 
L 962.220304 40.675406 
L 963.852367 37.648706 
L 965.484431 35.073289 
L 966.844367 33.296161 
L 968.204444 31.86691 
L 969.56438 30.786709 
L 970.924456 30.042635 
L 972.284532 29.607105 
L 973.644469 29.441912 
L 975.004545 29.504394 
L 976.636609 29.821269 
L 978.540659 30.443929 
L 980.988685 31.518268 
L 984.252672 33.223089 
L 998.124863 40.752628 
L 1003.29304 43.173206 
L 1008.733066 45.464707 
L 1014.445218 47.626776 
L 1020.701345 49.755524 
L 1026.141371 51.395281 
L 1029.13351 52.090241 
L 1031.309548 52.378955 
L 1032.941473 52.395746 
L 1034.301549 52.22267 
L 1035.661625 51.8347 
L 1037.021561 51.200051 
L 1038.381637 50.300322 
L 1039.741713 49.124332 
L 1041.10165 47.661095 
L 1042.461726 45.902047 
L 1044.09379 43.408997 
L 1045.997701 40.044167 
L 1048.717853 34.695156 
L 1053.069929 26.118952 
L 1054.97398 22.83714 
L 1056.605904 20.407397 
L 1058.237968 18.386461 
L 1059.598044 17.038933 
L 1060.95798 16.010582 
L 1062.318056 15.304069 
L 1063.406006 14.963742 
L 1064.766082 14.799216 
L 1066.126158 14.8921 
L 1067.486095 15.202377 
L 1069.118158 15.805223 
L 1071.022209 16.747713 
L 1073.470234 18.213565 
L 1077.278336 20.788239 
L 1086.79845 27.316923 
L 1091.69464 30.351803 
L 1096.590691 33.116429 
L 1101.75873 35.767045 
L 1107.198894 38.301355 
L 1113.182895 40.833811 
L 1119.439022 43.238348 
L 1123.247123 44.50955 
L 1125.151174 44.924159 
L 1126.51125 45.034564 
L 1126.51125 45.034564 
" clip-path="url(#pc13b3f8024)" style="fill: none; stroke-dasharray: 7.4,3.2; stroke-dashoffset: 0; stroke: #dc143c; stroke-width: 2"/>
   </g>
   <g id="patch_15">
    <path d="M 882.88625 164.547528 
L 882.88625 7.667528 
" style="fill: none; stroke: #000000; stroke-width: 0.8; stroke-linejoin: miter; stroke-linecap: square"/>
   </g>
   <g id="patch_16">
    <path d="M 892.88625 174.547528 
L 1137.63625 174.547528 
" style="fill: none; stroke: #000000; stroke-width: 0.8; stroke-linejoin: miter; stroke-linecap: square"/>
   </g>
  </g>
 </g>
 <defs>
  <clipPath id="p8d3ec45b4a">
   <rect x="56.00625" y="7.667528" width="320.83" height="156.88"/>
  </clipPath>
  <clipPath id="p7a1808de73">
   <rect x="512.48625" y="7.667528" width="244.75" height="156.88"/>
  </clipPath>
  <clipPath id="pc13b3f8024">
   <rect x="892.88625" y="7.667528" width="244.75" height="156.88"/>
  </clipPath>
 </defs>
</svg>
