<?xml version="1.0" encoding="utf-8" standalone="no"?>
<!DOCTYPE svg PUBLIC "-//W3C//DTD SVG 1.1//EN"
  "http://www.w3.org/Graphics/SVG/1.1/DTD/svg11.dtd">
<svg xmlns:xlink="http://www.w3.org/1999/xlink" width="1144.83625pt" height="207.649233pt" viewBox="0 0 1144.83625 207.649233" xmlns="http://www.w3.org/2000/svg" version="1.1">
 <metadata>
  <rdf:RDF xmlns:dc="http://purl.org/dc/elements/1.1/" xmlns:cc="http://creativecommons.org/ns#" xmlns:rdf="http://www.w3.org/1999/02/22-rdf-syntax-ns#">
   <cc:Work>
    <dc:type rdf:resource="http://purl.org/dc/dcmitype/StillImage"/>
    <dc:date>2023-08-16T10:25:47.613905</dc:date>
    <dc:format>image/svg+xml</dc:format>
    <dc:creator>
     <cc:Agent>
      <dc:title>Matplotlib v3.5.2, https://matplotlib.org/</dc:title>
     </cc:Agent>
    </dc:creator>
   </cc:Work>
  </rdf:RDF>
 </metadata>
 <defs>
  <style type="text/css">*{stroke-linejoin: round; stroke-linecap: butt}</style>
 </defs>
 <g id="figure_1">
  <g id="patch_1">
   <path d="M 0 207.649233 
L 1144.83625 207.649233 
L 1144.83625 0 
L 0 0 
z
" style="fill: #ffffff"/>
  </g>
  <g id="axes_1">
   <g id="patch_2">
    <path d="M 46.00625 174.092983 
L 376.83625 174.092983 
L 376.83625 7.212983 
L 46.00625 7.212983 
z
" style="fill: #ffffff"/>
   </g>
   <g id="patch_3">
    <path d="M 98.546407 174.092983 
L 98.546407 7.212983 
L 123.547902 7.212983 
L 123.547902 174.092983 
z
" clip-path="url(#p502b7d985c)" style="fill: #808080; opacity: 0.2"/>
   </g>
   <g id="patch_4">
    <path d="M 223.554256 174.092983 
L 223.554256 7.212983 
L 248.923586 7.212983 
L 248.923586 174.092983 
z
" clip-path="url(#p502b7d985c)" style="fill: #808080; opacity: 0.2"/>
   </g>
   <g id="matplotlib.axis_1">
    <g id="xtick_1">
     <g id="line2d_1">
      <defs>
       <path id="mf6450ab12a" d="M 0 0 
L 0 3.5 
" style="stroke: #000000; stroke-width: 0.8"/>
      </defs>
      <g>
       <use xlink:href="#mf6450ab12a" x="98.546407" y="174.092983" style="stroke: #000000; stroke-width: 0.8"/>
      </g>
     </g>
     <g id="text_1">
      <!-- 0.0 -->
      <g transform="translate(82.643282 196.289858)scale(0.2 -0.2)">
       <defs>
        <path id="DejaVuSans-30" d="M 2034 4250 
Q 1547 4250 1301 3770 
Q 1056 3291 1056 2328 
Q 1056 1369 1301 889 
Q 1547 409 2034 409 
Q 2525 409 2770 889 
Q 3016 1369 3016 2328 
Q 3016 3291 2770 3770 
Q 2525 4250 2034 4250 
z
M 2034 4750 
Q 2819 4750 3233 4129 
Q 3647 3509 3647 2328 
Q 3647 1150 3233 529 
Q 2819 -91 2034 -91 
Q 1250 -91 836 529 
Q 422 1150 422 2328 
Q 422 3509 836 4129 
Q 1250 4750 2034 4750 
z
" transform="scale(0.015625)"/>
        <path id="DejaVuSans-2e" d="M 684 794 
L 1344 794 
L 1344 0 
L 684 0 
L 684 794 
z
" transform="scale(0.015625)"/>
       </defs>
       <use xlink:href="#DejaVuSans-30"/>
       <use xlink:href="#DejaVuSans-2e" x="63.623047"/>
       <use xlink:href="#DejaVuSans-30" x="95.410156"/>
      </g>
     </g>
    </g>
    <g id="xtick_2">
     <g id="line2d_2">
      <g>
       <use xlink:href="#mf6450ab12a" x="192.670035" y="174.092983" style="stroke: #000000; stroke-width: 0.8"/>
      </g>
     </g>
     <g id="text_2">
      <!-- 0.5 -->
      <g transform="translate(176.76691 196.289858)scale(0.2 -0.2)">
       <defs>
        <path id="DejaVuSans-35" d="M 691 4666 
L 3169 4666 
L 3169 4134 
L 1269 4134 
L 1269 2991 
Q 1406 3038 1543 3061 
Q 1681 3084 1819 3084 
Q 2600 3084 3056 2656 
Q 3513 2228 3513 1497 
Q 3513 744 3044 326 
Q 2575 -91 1722 -91 
Q 1428 -91 1123 -41 
Q 819 9 494 109 
L 494 744 
Q 775 591 1075 516 
Q 1375 441 1709 441 
Q 2250 441 2565 725 
Q 2881 1009 2881 1497 
Q 2881 1984 2565 2268 
Q 2250 2553 1709 2553 
Q 1456 2553 1204 2497 
Q 953 2441 691 2322 
L 691 4666 
z
" transform="scale(0.015625)"/>
       </defs>
       <use xlink:href="#DejaVuSans-30"/>
       <use xlink:href="#DejaVuSans-2e" x="63.623047"/>
       <use xlink:href="#DejaVuSans-35" x="95.410156"/>
      </g>
     </g>
    </g>
    <g id="xtick_3">
     <g id="line2d_3">
      <g>
       <use xlink:href="#mf6450ab12a" x="286.793663" y="174.092983" style="stroke: #000000; stroke-width: 0.8"/>
      </g>
     </g>
     <g id="text_3">
      <!-- 1.0 -->
      <g transform="translate(270.890538 196.289858)scale(0.2 -0.2)">
       <defs>
        <path id="DejaVuSans-31" d="M 794 531 
L 1825 531 
L 1825 4091 
L 703 3866 
L 703 4441 
L 1819 4666 
L 2450 4666 
L 2450 531 
L 3481 531 
L 3481 0 
L 794 0 
L 794 531 
z
" transform="scale(0.015625)"/>
       </defs>
       <use xlink:href="#DejaVuSans-31"/>
       <use xlink:href="#DejaVuSans-2e" x="63.623047"/>
       <use xlink:href="#DejaVuSans-30" x="95.410156"/>
      </g>
     </g>
    </g>
   </g>
   <g id="matplotlib.axis_2">
    <g id="ytick_1">
     <g id="line2d_4">
      <defs>
       <path id="mfef7086a8e" d="M 0 0 
L -3.5 0 
" style="stroke: #000000; stroke-width: 0.8"/>
      </defs>
      <g>
       <use xlink:href="#mfef7086a8e" x="46.00625" y="166.507528" style="stroke: #000000; stroke-width: 0.8"/>
      </g>
     </g>
     <g id="text_4">
      <!-- 0.0 -->
      <g transform="translate(7.2 174.105966)scale(0.2 -0.2)">
       <use xlink:href="#DejaVuSans-30"/>
       <use xlink:href="#DejaVuSans-2e" x="63.623047"/>
       <use xlink:href="#DejaVuSans-30" x="95.410156"/>
      </g>
     </g>
    </g>
    <g id="ytick_2">
     <g id="line2d_5">
      <g>
       <use xlink:href="#mfef7086a8e" x="46.00625" y="90.652983" style="stroke: #000000; stroke-width: 0.8"/>
      </g>
     </g>
     <g id="text_5">
      <!-- 0.5 -->
      <g transform="translate(7.2 98.25142)scale(0.2 -0.2)">
       <use xlink:href="#DejaVuSans-30"/>
       <use xlink:href="#DejaVuSans-2e" x="63.623047"/>
       <use xlink:href="#DejaVuSans-35" x="95.410156"/>
      </g>
     </g>
    </g>
    <g id="ytick_3">
     <g id="line2d_6">
      <g>
       <use xlink:href="#mfef7086a8e" x="46.00625" y="14.798437" style="stroke: #000000; stroke-width: 0.8"/>
      </g>
     </g>
     <g id="text_6">
      <!-- 1.0 -->
      <g transform="translate(7.2 22.396875)scale(0.2 -0.2)">
       <use xlink:href="#DejaVuSans-31"/>
       <use xlink:href="#DejaVuSans-2e" x="63.623047"/>
       <use xlink:href="#DejaVuSans-30" x="95.410156"/>
      </g>
     </g>
    </g>
   </g>
   <g id="line2d_7">
    <path d="M 46.00625 166.507528 
L 376.83625 166.507528 
" clip-path="url(#p502b7d985c)" style="fill: none; stroke: #808080; stroke-opacity: 0.5; stroke-width: 0.5; stroke-linecap: square"/>
   </g>
   <g id="line2d_8">
    <path d="M 61.043977 166.507528 
L 96.707985 166.418595 
L 98.914054 166.197976 
L 100.38483 165.878789 
L 101.855418 165.331784 
L 102.958546 164.708111 
L 104.061487 163.832834 
L 105.164428 162.619696 
L 106.267557 160.952833 
L 107.370497 158.686118 
L 108.473438 155.6532 
L 109.576567 151.688828 
L 110.679508 146.657354 
L 111.782448 140.479783 
L 112.885577 133.150836 
L 114.356165 121.72213 
L 116.194587 105.307376 
L 122.444961 46.979617 
L 123.915737 36.293503 
L 125.018678 29.650025 
L 126.121618 24.265513 
L 127.224747 20.150759 
L 127.960041 18.09438 
L 128.695335 16.561796 
L 129.430628 15.523961 
L 130.166111 14.947847 
L 130.901404 14.798437 
L 131.636698 15.0405 
L 132.37218 15.640109 
L 133.107474 16.565462 
L 133.842768 17.78762 
L 134.945708 20.121749 
L 136.048837 22.99184 
L 137.519425 27.547277 
L 138.990201 32.824398 
L 140.828435 40.266674 
L 143.034505 50.131712 
L 151.123301 87.321585 
L 153.329371 95.968478 
L 155.535252 103.670212 
L 157.741321 110.46384 
L 159.947391 116.433598 
L 162.153461 121.678774 
L 164.359342 126.295845 
L 166.565412 130.371009 
L 168.771481 133.978412 
L 170.977551 137.18088 
L 173.183432 140.031464 
L 175.757149 142.971928 
L 178.330865 145.554219 
L 180.904582 147.828317 
L 183.845945 150.103432 
L 186.787308 152.08292 
L 189.728672 153.810095 
L 193.037682 155.496129 
L 196.714339 157.099274 
L 200.391184 158.463015 
L 204.435488 159.731416 
L 208.847628 160.883962 
L 213.627225 161.907437 
L 218.774658 162.786994 
L 222.451316 163.211529 
L 224.657385 163.250173 
L 226.127973 163.09604 
L 227.598749 162.722072 
L 228.701689 162.245024 
L 229.804818 161.545079 
L 230.907759 160.557277 
L 232.010699 159.200766 
L 233.113828 157.384195 
L 234.216769 155.019265 
L 235.31971 152.040689 
L 236.422839 148.426665 
L 237.893426 142.687457 
L 239.731849 134.379604 
L 246.717516 101.391443 
L 248.555939 94.15971 
L 250.026715 89.107706 
L 251.497302 84.773063 
L 252.96789 81.18185 
L 254.071019 78.975207 
L 255.173959 77.176835 
L 256.277088 75.776477 
L 257.380029 74.765197 
L 258.48297 74.137111 
L 259.218452 73.929851 
L 259.953746 73.891492 
L 260.689039 74.022033 
L 261.424333 74.321351 
L 262.527462 75.085314 
L 263.630403 76.222131 
L 264.733343 77.720704 
L 265.836472 79.562736 
L 267.30706 82.505866 
L 269.145483 86.840662 
L 271.351552 92.707075 
L 278.33722 111.800485 
L 280.910936 117.947875 
L 283.117006 122.68318 
L 285.323075 126.941312 
L 287.528957 130.758995 
L 289.735026 134.179411 
L 291.941096 137.245289 
L 294.514812 140.426433 
L 297.088529 143.234058 
L 299.662057 145.716296 
L 302.235773 147.91469 
L 305.177137 150.12537 
L 308.1185 152.057885 
L 311.42751 153.947645 
L 314.736709 155.58085 
L 318.413366 157.141167 
L 322.45767 158.597609 
L 326.869809 159.927894 
L 331.649407 161.117355 
L 336.79684 162.157953 
L 342.31192 163.047696 
L 348.562293 163.830752 
L 355.547961 164.478602 
L 360.327747 164.736131 
L 361.798523 164.757299 
L 361.798523 164.757299 
" clip-path="url(#p502b7d985c)" style="fill: none; stroke: #1e90ff; stroke-width: 1.5; stroke-linecap: square"/>
   </g>
   <g id="line2d_9">
    <path d="M 61.043977 166.507528 
L 95.237397 166.419346 
L 97.07582 166.216849 
L 98.546407 165.845589 
L 99.649348 165.364339 
L 100.752477 164.641675 
L 101.855418 163.616295 
L 102.958546 162.231541 
L 104.061487 160.43576 
L 105.164428 158.176716 
L 106.267557 155.392088 
L 107.370497 152.002226 
L 108.473438 147.912969 
L 109.576567 143.033272 
L 110.679508 137.305118 
L 112.150283 128.370464 
L 113.988518 115.498573 
L 121.34202 61.684563 
L 123.180255 50.324725 
L 125.018678 40.27916 
L 126.489453 33.316181 
L 127.960041 27.395286 
L 129.062982 23.672433 
L 130.166111 20.582106 
L 131.269051 18.136282 
L 132.37218 16.347322 
L 133.107474 15.526652 
L 133.842768 15.008906 
L 134.578061 14.798437 
L 135.313355 14.898612 
L 136.048837 15.310966 
L 136.784131 16.034353 
L 137.519425 17.064215 
L 138.622554 19.164055 
L 139.725494 21.887941 
L 140.828435 25.171534 
L 142.299211 30.282622 
L 144.137634 37.553592 
L 147.078809 50.274247 
L 151.858595 70.895123 
L 154.432311 81.069673 
L 157.006028 90.365408 
L 159.579744 98.762224 
L 161.785814 105.272673 
L 163.991695 111.190823 
L 166.197765 116.561097 
L 168.403834 121.428039 
L 170.609716 125.834332 
L 173.183432 130.446057 
L 175.757149 134.543788 
L 178.330865 138.18087 
L 180.904582 141.40569 
L 183.478298 144.262066 
L 186.052014 146.789663 
L 188.625731 149.024371 
L 191.567094 151.261155 
L 194.508458 153.20108 
L 197.449821 154.882668 
L 200.758831 156.507903 
L 204.067842 157.891527 
L 207.744499 159.189723 
L 211.788803 160.37569 
L 216.200942 161.430975 
L 219.877599 162.106765 
L 222.083669 162.308469 
L 223.554256 162.243267 
L 224.657385 162.020601 
L 225.760326 161.59367 
L 226.863455 160.911017 
L 227.966395 159.923389 
L 229.069336 158.583818 
L 230.172465 156.843093 
L 231.275406 154.642183 
L 232.378535 151.906557 
L 233.481475 148.548888 
L 234.584416 144.484345 
L 235.687545 139.656818 
L 237.158132 132.045546 
L 238.996555 120.976274 
L 245.982222 76.768297 
L 248.188292 65.030217 
L 250.026715 56.424362 
L 251.497302 50.401733 
L 252.96789 45.21713 
L 254.438666 40.922023 
L 255.541606 38.30664 
L 256.644735 36.225269 
L 257.747676 34.692328 
L 258.48297 33.98334 
L 259.218452 33.53107 
L 259.953746 33.340798 
L 260.689039 33.416913 
L 261.424333 33.762099 
L 262.159815 34.376519 
L 262.895109 35.257118 
L 263.99805 37.061327 
L 265.101179 39.409611 
L 266.204119 42.245612 
L 267.674895 46.663923 
L 269.513129 52.949636 
L 272.454493 63.940611 
L 277.234279 81.76799 
L 280.175642 91.790449 
L 282.749359 99.767723 
L 285.323075 106.993368 
L 287.896603 113.501565 
L 290.47032 119.343972 
L 293.044036 124.576819 
L 295.617753 129.255366 
L 298.191469 133.431797 
L 300.765186 137.154555 
L 303.338902 140.468244 
L 305.912431 143.41376 
L 308.486147 146.028531 
L 311.059863 148.346764 
L 314.001227 150.673011 
L 316.94259 152.694898 
L 319.883954 154.450344 
L 323.192964 156.148807 
L 326.502162 157.595518 
L 330.178819 158.952747 
L 334.223124 160.191638 
L 338.635263 161.294861 
L 343.41486 162.255663 
L 348.92994 163.127516 
L 355.180314 163.875822 
L 359.592453 164.214327 
L 361.798523 164.270802 
L 361.798523 164.270802 
" clip-path="url(#p502b7d985c)" style="fill: none; stroke: #dc143c; stroke-width: 1.5; stroke-linecap: square"/>
   </g>
   <g id="patch_5">
    <path d="M 46.00625 174.092983 
L 46.00625 7.212983 
" style="fill: none; stroke: #000000; stroke-width: 0.8; stroke-linejoin: miter; stroke-linecap: square"/>
   </g>
   <g id="patch_6">
    <path d="M 46.00625 174.092983 
L 376.83625 174.092983 
" style="fill: none; stroke: #000000; stroke-width: 0.8; stroke-linejoin: miter; stroke-linecap: square"/>
   </g>
  </g>
  <g id="axes_2">
   <g id="patch_7">
    <path d="M 502.48625 174.092983 
L 757.23625 174.092983 
L 757.23625 7.212983 
L 502.48625 7.212983 
z
" style="fill: #ffffff"/>
   </g>
   <g id="patch_8">
    <path d="M 542.943902 174.092983 
L 542.943902 7.212983 
L 562.195877 7.212983 
L 562.195877 174.092983 
z
" clip-path="url(#p69d26acf67)" style="fill: #808080; opacity: 0.2"/>
   </g>
   <g id="patch_9">
    <path d="M 639.204065 174.092983 
L 639.204065 7.212983 
L 658.739284 7.212983 
L 658.739284 174.092983 
z
" clip-path="url(#p69d26acf67)" style="fill: #808080; opacity: 0.2"/>
   </g>
   <g id="matplotlib.axis_3">
    <g id="xtick_4">
     <g id="line2d_10">
      <g>
       <use xlink:href="#mf6450ab12a" x="542.943902" y="174.092983" style="stroke: #000000; stroke-width: 0.8"/>
      </g>
     </g>
     <g id="text_7">
      <!-- 0.0 -->
      <g transform="translate(527.040777 196.289858)scale(0.2 -0.2)">
       <use xlink:href="#DejaVuSans-30"/>
       <use xlink:href="#DejaVuSans-2e" x="63.623047"/>
       <use xlink:href="#DejaVuSans-30" x="95.410156"/>
      </g>
     </g>
    </g>
    <g id="xtick_5">
     <g id="line2d_11">
      <g>
       <use xlink:href="#mf6450ab12a" x="615.422197" y="174.092983" style="stroke: #000000; stroke-width: 0.8"/>
      </g>
     </g>
     <g id="text_8">
      <!-- 0.5 -->
      <g transform="translate(599.519072 196.289858)scale(0.2 -0.2)">
       <use xlink:href="#DejaVuSans-30"/>
       <use xlink:href="#DejaVuSans-2e" x="63.623047"/>
       <use xlink:href="#DejaVuSans-35" x="95.410156"/>
      </g>
     </g>
    </g>
    <g id="xtick_6">
     <g id="line2d_12">
      <g>
       <use xlink:href="#mf6450ab12a" x="687.900491" y="174.092983" style="stroke: #000000; stroke-width: 0.8"/>
      </g>
     </g>
     <g id="text_9">
      <!-- 1.0 -->
      <g transform="translate(671.997366 196.289858)scale(0.2 -0.2)">
       <use xlink:href="#DejaVuSans-31"/>
       <use xlink:href="#DejaVuSans-2e" x="63.623047"/>
       <use xlink:href="#DejaVuSans-30" x="95.410156"/>
      </g>
     </g>
    </g>
   </g>
   <g id="matplotlib.axis_4">
    <g id="ytick_4">
     <g id="line2d_13">
      <g>
       <use xlink:href="#mfef7086a8e" x="502.48625" y="166.507528" style="stroke: #000000; stroke-width: 0.8"/>
      </g>
     </g>
     <g id="text_10">
      <!-- 0.0 -->
      <g transform="translate(463.68 174.105966)scale(0.2 -0.2)">
       <use xlink:href="#DejaVuSans-30"/>
       <use xlink:href="#DejaVuSans-2e" x="63.623047"/>
       <use xlink:href="#DejaVuSans-30" x="95.410156"/>
      </g>
     </g>
    </g>
    <g id="ytick_5">
     <g id="line2d_14">
      <g>
       <use xlink:href="#mfef7086a8e" x="502.48625" y="90.652983" style="stroke: #000000; stroke-width: 0.8"/>
      </g>
     </g>
     <g id="text_11">
      <!-- 0.5 -->
      <g transform="translate(463.68 98.25142)scale(0.2 -0.2)">
       <use xlink:href="#DejaVuSans-30"/>
       <use xlink:href="#DejaVuSans-2e" x="63.623047"/>
       <use xlink:href="#DejaVuSans-35" x="95.410156"/>
      </g>
     </g>
    </g>
    <g id="ytick_6">
     <g id="line2d_15">
      <g>
       <use xlink:href="#mfef7086a8e" x="502.48625" y="14.798437" style="stroke: #000000; stroke-width: 0.8"/>
      </g>
     </g>
     <g id="text_12">
      <!-- 1.0 -->
      <g transform="translate(463.68 22.396875)scale(0.2 -0.2)">
       <use xlink:href="#DejaVuSans-31"/>
       <use xlink:href="#DejaVuSans-2e" x="63.623047"/>
       <use xlink:href="#DejaVuSans-30" x="95.410156"/>
      </g>
     </g>
    </g>
   </g>
   <g id="line2d_16">
    <path d="M 502.48625 166.507528 
L 757.23625 166.507528 
" clip-path="url(#p69d26acf67)" style="fill: none; stroke: #808080; stroke-opacity: 0.5; stroke-width: 0.5; stroke-linecap: square"/>
   </g>
   <g id="line2d_17">
    <path d="M 514.065795 166.507528 
L 544.076303 166.404312 
L 546.341395 166.144367 
L 547.756896 165.78997 
L 548.889442 165.310953 
L 550.021842 164.55237 
L 550.871288 163.71679 
L 551.720589 162.571974 
L 552.569889 161.035772 
L 553.419335 159.022958 
L 554.268636 156.452613 
L 555.117936 153.257041 
L 556.250482 147.950387 
L 557.382883 141.437448 
L 558.798529 131.749875 
L 560.497275 118.371784 
L 563.611523 91.452321 
L 566.72577 65.070001 
L 568.707617 50.070687 
L 570.406363 38.962666 
L 571.822009 31.261407 
L 572.95441 26.281783 
L 573.803855 23.300065 
L 574.653156 20.997313 
L 575.502457 19.390969 
L 576.068802 18.709169 
L 576.635002 18.335646 
L 577.201203 18.264171 
L 577.767403 18.485339 
L 578.333749 18.986819 
L 578.899949 19.753761 
L 579.74925 21.364643 
L 580.598695 23.472236 
L 581.731096 26.941757 
L 583.146742 32.122722 
L 585.128589 40.457118 
L 588.525936 56.051954 
L 592.489629 74.020705 
L 595.320777 85.84583 
L 597.868823 95.536608 
L 600.13377 103.349205 
L 602.398717 110.414184 
L 604.663664 116.76262 
L 606.92861 122.43944 
L 609.193557 127.496749 
L 611.458504 131.989329 
L 613.72345 135.971684 
L 615.988397 139.49617 
L 618.253344 142.611894 
L 620.51829 145.364141 
L 622.783237 147.794152 
L 625.331284 150.188919 
L 627.879476 152.269978 
L 630.427523 154.0787 
L 633.25867 155.812469 
L 636.089817 157.291949 
L 638.920964 158.515985 
L 641.185911 159.24426 
L 642.884657 159.559359 
L 644.300303 159.580674 
L 645.432704 159.350777 
L 646.28215 158.967504 
L 647.13145 158.33815 
L 647.980751 157.391369 
L 648.830197 156.047836 
L 649.679497 154.225589 
L 650.528943 151.846913 
L 651.378244 148.846438 
L 652.510645 143.805826 
L 653.64319 137.560445 
L 655.058836 128.19187 
L 656.757438 115.142348 
L 659.58873 91.074692 
L 662.986077 62.399741 
L 664.967924 47.406796 
L 666.66667 36.239843 
L 668.082171 28.440732 
L 669.214717 23.352549 
L 670.347118 19.395869 
L 671.196564 17.21556 
L 672.045864 15.730034 
L 672.612065 15.127681 
L 673.17841 14.832601 
L 673.74461 14.838469 
L 674.310811 15.135793 
L 674.877011 15.71217 
L 675.443212 16.552686 
L 676.292657 18.271351 
L 677.141958 20.483541 
L 678.274504 24.087487 
L 679.690005 29.428437 
L 681.671851 37.972332 
L 685.352444 55.230567 
L 689.316137 73.434332 
L 692.147284 85.355127 
L 694.695331 95.102884 
L 696.960278 102.951595 
L 699.225225 110.043947 
L 701.490171 116.414197 
L 703.755118 122.109398 
L 706.020065 127.183042 
L 708.285011 131.69079 
L 710.549958 135.687671 
L 712.814905 139.226332 
L 715.079852 142.356021 
L 717.344798 145.122063 
L 719.609745 147.565687 
L 722.157792 149.97549 
L 724.705839 152.071213 
L 727.253886 153.894146 
L 730.085178 155.643387 
L 732.916325 157.142998 
L 736.030572 158.547595 
L 739.428065 159.828172 
L 742.259212 160.671037 
L 744.241058 161.046051 
L 745.656705 161.144007 
L 745.656705 161.144007 
" clip-path="url(#p69d26acf67)" style="fill: none; stroke: #1e90ff; stroke-opacity: 0.3; stroke-width: 1.5; stroke-linecap: square"/>
   </g>
   <g id="line2d_18">
    <path d="M 514.065795 141.562025 
L 548.606196 141.45467 
L 550.871288 141.225348 
L 552.569889 140.828207 
L 553.985535 140.239251 
L 555.117936 139.530037 
L 556.250482 138.553389 
L 557.382883 137.258477 
L 558.515429 135.597 
L 559.64783 133.525864 
L 560.780376 131.011805 
L 562.195877 127.22199 
L 563.611523 122.728383 
L 565.310269 116.5071 
L 567.292115 108.360474 
L 570.689463 93.218824 
L 574.370056 77.007991 
L 576.635002 67.997294 
L 578.333749 62.011124 
L 580.03235 56.843607 
L 581.447996 53.242237 
L 582.863642 50.31476 
L 583.996043 48.451998 
L 585.128589 46.991197 
L 586.26099 45.898162 
L 587.393536 45.132756 
L 588.525936 44.653368 
L 589.658482 44.41999 
L 590.790883 44.3959 
L 592.206529 44.610579 
L 593.62203 45.046206 
L 595.320777 45.796316 
L 597.585723 47.079212 
L 600.41687 48.980509 
L 604.663664 52.153388 
L 620.51829 64.246159 
L 627.313131 69.044597 
L 634.107971 73.56724 
L 640.33661 77.461937 
L 644.583404 79.894674 
L 647.13145 81.136822 
L 648.830197 81.765534 
L 650.245698 82.087797 
L 651.378244 82.166376 
L 652.510645 82.047636 
L 653.64319 81.694738 
L 654.775591 81.067171 
L 655.908137 80.120523 
L 657.040538 78.810747 
L 658.173084 77.10262 
L 659.305485 74.97882 
L 660.721131 71.750647 
L 662.136777 67.94336 
L 663.835378 62.749478 
L 666.383425 54.11154 
L 671.762764 35.529881 
L 673.74461 29.517526 
L 675.443212 25.03188 
L 676.858858 21.86897 
L 678.274504 19.292471 
L 679.406905 17.672233 
L 680.539451 16.439541 
L 681.671851 15.574136 
L 682.804397 15.044728 
L 683.936798 14.814018 
L 685.069344 14.843085 
L 686.201745 15.094402 
L 687.617391 15.668919 
L 689.032892 16.477989 
L 690.731638 17.688755 
L 692.996585 19.597619 
L 696.110977 22.565881 
L 701.490171 28.086807 
L 709.983758 36.771321 
L 715.929152 42.518474 
L 721.874692 47.946759 
L 727.820231 53.066491 
L 733.765626 57.891459 
L 739.428065 62.205592 
L 741.976112 63.928013 
L 743.391613 64.671894 
L 744.524159 65.065776 
L 745.656705 65.225835 
L 745.656705 65.225835 
" clip-path="url(#p69d26acf67)" style="fill: none; stroke-dasharray: 7.4,3.2; stroke-dashoffset: 0; stroke: #1e90ff; stroke-width: 2"/>
   </g>
   <g id="patch_10">
    <path d="M 502.48625 174.092983 
L 502.48625 7.212983 
" style="fill: none; stroke: #000000; stroke-width: 0.8; stroke-linejoin: miter; stroke-linecap: square"/>
   </g>
   <g id="patch_11">
    <path d="M 502.48625 174.092983 
L 757.23625 174.092983 
" style="fill: none; stroke: #000000; stroke-width: 0.8; stroke-linejoin: miter; stroke-linecap: square"/>
   </g>
  </g>
  <g id="axes_3">
   <g id="patch_12">
    <path d="M 882.88625 174.092983 
L 1137.63625 174.092983 
L 1137.63625 7.212983 
L 882.88625 7.212983 
z
" style="fill: #ffffff"/>
   </g>
   <g id="patch_13">
    <path d="M 923.343902 174.092983 
L 923.343902 7.212983 
L 942.595877 7.212983 
L 942.595877 174.092983 
z
" clip-path="url(#pd9306d666d)" style="fill: #808080; opacity: 0.2"/>
   </g>
   <g id="patch_14">
    <path d="M 1019.604065 174.092983 
L 1019.604065 7.212983 
L 1039.139284 7.212983 
L 1039.139284 174.092983 
z
" clip-path="url(#pd9306d666d)" style="fill: #808080; opacity: 0.2"/>
   </g>
   <g id="matplotlib.axis_5">
    <g id="xtick_7">
     <g id="line2d_19">
      <g>
       <use xlink:href="#mf6450ab12a" x="923.343902" y="174.092983" style="stroke: #000000; stroke-width: 0.8"/>
      </g>
     </g>
     <g id="text_13">
      <!-- 0.0 -->
      <g transform="translate(907.440777 196.289858)scale(0.2 -0.2)">
       <use xlink:href="#DejaVuSans-30"/>
       <use xlink:href="#DejaVuSans-2e" x="63.623047"/>
       <use xlink:href="#DejaVuSans-30" x="95.410156"/>
      </g>
     </g>
    </g>
    <g id="xtick_8">
     <g id="line2d_20">
      <g>
       <use xlink:href="#mf6450ab12a" x="995.822197" y="174.092983" style="stroke: #000000; stroke-width: 0.8"/>
      </g>
     </g>
     <g id="text_14">
      <!-- 0.5 -->
      <g transform="translate(979.919072 196.289858)scale(0.2 -0.2)">
       <use xlink:href="#DejaVuSans-30"/>
       <use xlink:href="#DejaVuSans-2e" x="63.623047"/>
       <use xlink:href="#DejaVuSans-35" x="95.410156"/>
      </g>
     </g>
    </g>
    <g id="xtick_9">
     <g id="line2d_21">
      <g>
       <use xlink:href="#mf6450ab12a" x="1068.300491" y="174.092983" style="stroke: #000000; stroke-width: 0.8"/>
      </g>
     </g>
     <g id="text_15">
      <!-- 1.0 -->
      <g transform="translate(1052.397366 196.289858)scale(0.2 -0.2)">
       <use xlink:href="#DejaVuSans-31"/>
       <use xlink:href="#DejaVuSans-2e" x="63.623047"/>
       <use xlink:href="#DejaVuSans-30" x="95.410156"/>
      </g>
     </g>
    </g>
   </g>
   <g id="matplotlib.axis_6">
    <g id="ytick_7">
     <g id="line2d_22">
      <g>
       <use xlink:href="#mfef7086a8e" x="882.88625" y="166.507528" style="stroke: #000000; stroke-width: 0.8"/>
      </g>
     </g>
     <g id="text_16">
      <!-- 0.0 -->
      <g transform="translate(844.08 174.105966)scale(0.2 -0.2)">
       <use xlink:href="#DejaVuSans-30"/>
       <use xlink:href="#DejaVuSans-2e" x="63.623047"/>
       <use xlink:href="#DejaVuSans-30" x="95.410156"/>
      </g>
     </g>
    </g>
    <g id="ytick_8">
     <g id="line2d_23">
      <g>
       <use xlink:href="#mfef7086a8e" x="882.88625" y="90.652983" style="stroke: #000000; stroke-width: 0.8"/>
      </g>
     </g>
     <g id="text_17">
      <!-- 0.5 -->
      <g transform="translate(844.08 98.25142)scale(0.2 -0.2)">
       <use xlink:href="#DejaVuSans-30"/>
       <use xlink:href="#DejaVuSans-2e" x="63.623047"/>
       <use xlink:href="#DejaVuSans-35" x="95.410156"/>
      </g>
     </g>
    </g>
    <g id="ytick_9">
     <g id="line2d_24">
      <g>
       <use xlink:href="#mfef7086a8e" x="882.88625" y="14.798437" style="stroke: #000000; stroke-width: 0.8"/>
      </g>
     </g>
     <g id="text_18">
      <!-- 1.0 -->
      <g transform="translate(844.08 22.396875)scale(0.2 -0.2)">
       <use xlink:href="#DejaVuSans-31"/>
       <use xlink:href="#DejaVuSans-2e" x="63.623047"/>
       <use xlink:href="#DejaVuSans-30" x="95.410156"/>
      </g>
     </g>
    </g>
   </g>
   <g id="line2d_25">
    <path d="M 882.88625 166.507528 
L 1137.63625 166.507528 
" clip-path="url(#pd9306d666d)" style="fill: none; stroke: #808080; stroke-opacity: 0.5; stroke-width: 0.5; stroke-linecap: square"/>
   </g>
   <g id="line2d_26">
    <path d="M 894.465795 166.507528 
L 922.211501 166.399278 
L 923.910103 166.144277 
L 925.042648 165.789719 
L 926.175049 165.208861 
L 927.307595 164.328823 
L 928.439996 163.071094 
L 929.289442 161.824086 
L 930.138742 160.262052 
L 930.988043 158.32487 
L 931.837489 155.945324 
L 932.969889 151.969359 
L 934.102435 146.959464 
L 935.234836 140.852861 
L 936.650482 131.720999 
L 938.349228 118.888753 
L 940.614175 99.726277 
L 944.860968 63.358402 
L 946.84267 48.536562 
L 948.258316 39.395873 
L 949.673962 31.68158 
L 950.806363 26.659357 
L 951.938909 22.75849 
L 952.788209 20.615461 
L 953.63751 19.164997 
L 954.203855 18.584366 
L 954.770056 18.308565 
L 955.336256 18.329873 
L 955.902457 18.637304 
L 956.468802 19.217118 
L 957.318103 20.562354 
L 958.167403 22.424875 
L 959.299949 25.604121 
L 960.71545 30.489709 
L 962.414197 37.341437 
L 964.679143 47.519246 
L 972.040329 81.454578 
L 974.588376 91.890949 
L 976.853322 100.324301 
L 979.118269 107.945317 
L 981.383216 114.776079 
L 983.648162 120.861175 
L 985.913109 126.257271 
L 988.178056 131.026201 
L 990.443003 135.230499 
L 992.707949 138.930617 
L 994.972896 142.183295 
L 997.237843 145.040713 
L 999.502789 147.55016 
L 1001.767736 149.754029 
L 1004.315783 151.91489 
L 1006.86383 153.783688 
L 1009.694977 155.566967 
L 1012.526124 157.08746 
L 1015.640517 158.495344 
L 1017.905463 159.314738 
L 1019.604065 159.714144 
L 1020.73661 159.795258 
L 1021.869156 159.654968 
L 1022.718457 159.362437 
L 1023.567758 158.875547 
L 1024.417203 158.161965 
L 1025.266504 157.184642 
L 1026.115804 155.898501 
L 1026.96525 154.248711 
L 1027.814551 152.172432 
L 1028.663851 149.60471 
L 1029.796397 145.318237 
L 1030.928943 139.966484 
L 1032.061344 133.535205 
L 1033.47699 124.085725 
L 1035.175591 111.057512 
L 1037.723638 89.480888 
L 1041.404231 58.490414 
L 1043.102977 45.859475 
L 1044.518623 36.642328 
L 1045.934124 28.82493 
L 1047.06667 23.698145 
L 1048.199071 19.671913 
L 1049.048517 17.423554 
L 1049.897817 15.8624 
L 1050.464018 15.20762 
L 1051.030218 14.859372 
L 1051.596564 14.811578 
L 1052.162764 15.054704 
L 1052.728964 15.576211 
L 1053.295165 16.361108 
L 1054.14461 17.995196 
L 1054.993911 20.122563 
L 1056.126457 23.616975 
L 1057.541958 28.838126 
L 1059.240704 36.015779 
L 1061.788751 47.872455 
L 1067.734291 75.96164 
L 1070.282338 86.888692 
L 1072.830385 96.818173 
L 1075.095331 104.76846 
L 1077.360278 111.909139 
L 1079.625225 118.281354 
L 1081.890171 123.940455 
L 1084.155118 128.948333 
L 1086.420065 133.368432 
L 1088.685011 137.262605 
L 1090.949958 140.689249 
L 1093.214905 143.702293 
L 1095.479852 146.350769 
L 1097.744798 148.678739 
L 1100.292845 150.963314 
L 1102.840892 152.940943 
L 1105.388939 154.654211 
L 1108.220231 156.292309 
L 1111.334478 157.820672 
L 1114.448726 159.108775 
L 1117.846218 160.285996 
L 1121.243566 161.249422 
L 1123.791613 161.770382 
L 1125.773459 161.953547 
L 1126.056705 161.959025 
L 1126.056705 161.959025 
" clip-path="url(#pd9306d666d)" style="fill: none; stroke: #dc143c; stroke-opacity: 0.3; stroke-width: 1.5; stroke-linecap: square"/>
   </g>
   <g id="line2d_27">
    <path d="M 894.465795 84.626679 
L 927.024495 84.531167 
L 929.572542 84.293961 
L 931.271288 83.952929 
L 932.686789 83.483375 
L 934.102435 82.781236 
L 935.517936 81.792677 
L 936.933582 80.480808 
L 938.349228 78.826096 
L 939.76473 76.819287 
L 941.180376 74.45706 
L 942.879122 71.164727 
L 944.860968 66.76295 
L 947.409015 60.483779 
L 953.07131 46.338343 
L 955.053156 42.030527 
L 956.751902 38.805092 
L 958.450649 36.070118 
L 959.86615 34.191142 
L 961.281796 32.688817 
L 962.414197 31.759203 
L 963.546742 31.064978 
L 964.679143 30.592854 
L 965.811689 30.323815 
L 967.22719 30.238403 
L 968.642836 30.388007 
L 970.341582 30.814822 
L 972.323429 31.568479 
L 974.871476 32.809464 
L 978.551924 34.891892 
L 989.593557 41.301382 
L 994.689796 43.927132 
L 999.78589 46.296599 
L 1005.165084 48.548991 
L 1011.110623 50.787058 
L 1017.339263 52.895259 
L 1022.152256 54.324312 
L 1024.983404 54.951643 
L 1026.96525 55.193839 
L 1028.663851 55.195799 
L 1030.079497 54.994736 
L 1031.495143 54.561506 
L 1032.910645 53.862249 
L 1034.326291 52.877411 
L 1035.741937 51.59506 
L 1037.157438 50.003378 
L 1038.573084 48.093237 
L 1040.27183 45.390166 
L 1042.253532 41.747981 
L 1045.084824 35.972013 
L 1049.331617 27.29016 
L 1051.313318 23.713172 
L 1053.012065 21.053469 
L 1054.710811 18.831376 
L 1056.126457 17.341267 
L 1057.541958 16.195222 
L 1058.674504 15.529823 
L 1059.806905 15.084227 
L 1060.939451 14.847981 
L 1062.071851 14.804587 
L 1063.487498 14.989766 
L 1064.902999 15.399541 
L 1066.601745 16.126871 
L 1068.583591 17.216781 
L 1071.414739 19.06485 
L 1075.944632 22.34427 
L 1083.305817 27.649464 
L 1088.118811 30.829454 
L 1092.931805 33.732715 
L 1097.744798 36.376536 
L 1102.840892 38.928004 
L 1108.503331 41.508687 
L 1114.448726 43.975914 
L 1120.394265 46.218659 
L 1123.225412 47.098265 
L 1124.924159 47.422962 
L 1126.056705 47.501215 
L 1126.056705 47.501215 
" clip-path="url(#pd9306d666d)" style="fill: none; stroke-dasharray: 7.4,3.2; stroke-dashoffset: 0; stroke: #dc143c; stroke-width: 2"/>
   </g>
   <g id="patch_15">
    <path d="M 882.88625 174.092983 
L 882.88625 7.212983 
" style="fill: none; stroke: #000000; stroke-width: 0.8; stroke-linejoin: miter; stroke-linecap: square"/>
   </g>
   <g id="patch_16">
    <path d="M 882.88625 174.092983 
L 1137.63625 174.092983 
" style="fill: none; stroke: #000000; stroke-width: 0.8; stroke-linejoin: miter; stroke-linecap: square"/>
   </g>
  </g>
 </g>
 <defs>
  <clipPath id="p502b7d985c">
   <rect x="46.00625" y="7.212983" width="330.83" height="166.88"/>
  </clipPath>
  <clipPath id="p69d26acf67">
   <rect x="502.48625" y="7.212983" width="254.75" height="166.88"/>
  </clipPath>
  <clipPath id="pd9306d666d">
   <rect x="882.88625" y="7.212983" width="254.75" height="166.88"/>
  </clipPath>
 </defs>
</svg>
