<?xml version="1.0" encoding="utf-8" standalone="no"?>
<!DOCTYPE svg PUBLIC "-//W3C//DTD SVG 1.1//EN"
  "http://www.w3.org/Graphics/SVG/1.1/DTD/svg11.dtd">
<svg xmlns:xlink="http://www.w3.org/1999/xlink" width="1144.83625pt" height="208.103778pt" viewBox="0 0 1144.83625 208.103778" xmlns="http://www.w3.org/2000/svg" version="1.1">
 <metadata>
  <rdf:RDF xmlns:dc="http://purl.org/dc/elements/1.1/" xmlns:cc="http://creativecommons.org/ns#" xmlns:rdf="http://www.w3.org/1999/02/22-rdf-syntax-ns#">
   <cc:Work>
    <dc:type rdf:resource="http://purl.org/dc/dcmitype/StillImage"/>
    <dc:date>2024-01-11T16:58:29.758747</dc:date>
    <dc:format>image/svg+xml</dc:format>
    <dc:creator>
     <cc:Agent>
      <dc:title>Matplotlib v3.5.2, https://matplotlib.org/</dc:title>
     </cc:Agent>
    </dc:creator>
   </cc:Work>
  </rdf:RDF>
 </metadata>
 <defs>
  <style type="text/css">*{stroke-linejoin: round; stroke-linecap: butt}</style>
 </defs>
 <g id="figure_1">
  <g id="patch_1">
   <path d="M 0 208.103778 
L 1144.83625 208.103778 
L 1144.83625 0 
L 0 0 
z
" style="fill: #ffffff"/>
  </g>
  <g id="axes_1">
   <g id="patch_2">
    <path d="M 56.00625 164.547528 
L 376.83625 164.547528 
L 376.83625 7.667528 
L 56.00625 7.667528 
z
" style="fill: #ffffff"/>
   </g>
   <g id="patch_3">
    <path d="M 106.958276 164.547528 
L 106.958276 7.667528 
L 131.20405 7.667528 
L 131.20405 164.547528 
z
" clip-path="url(#pa4764b0ee5)" style="fill: #808080; opacity: 0.2"/>
   </g>
   <g id="patch_4">
    <path d="M 228.187512 164.547528 
L 228.187512 7.667528 
L 252.790003 7.667528 
L 252.790003 164.547528 
z
" clip-path="url(#pa4764b0ee5)" style="fill: #808080; opacity: 0.2"/>
   </g>
   <g id="matplotlib.axis_1">
    <g id="xtick_1">
     <g id="line2d_1">
      <defs>
       <path id="m44a1db92fa" d="M 0 0 
L 0 3.5 
" style="stroke: #000000; stroke-width: 0.8"/>
      </defs>
      <g>
       <use xlink:href="#m44a1db92fa" x="106.958276" y="174.547528" style="stroke: #000000; stroke-width: 0.8"/>
      </g>
     </g>
     <g id="text_1">
      <!-- 0.0 -->
      <g transform="translate(91.055151 196.744403)scale(0.2 -0.2)">
       <defs>
        <path id="DejaVuSans-30" d="M 2034 4250 
Q 1547 4250 1301 3770 
Q 1056 3291 1056 2328 
Q 1056 1369 1301 889 
Q 1547 409 2034 409 
Q 2525 409 2770 889 
Q 3016 1369 3016 2328 
Q 3016 3291 2770 3770 
Q 2525 4250 2034 4250 
z
M 2034 4750 
Q 2819 4750 3233 4129 
Q 3647 3509 3647 2328 
Q 3647 1150 3233 529 
Q 2819 -91 2034 -91 
Q 1250 -91 836 529 
Q 422 1150 422 2328 
Q 422 3509 836 4129 
Q 1250 4750 2034 4750 
z
" transform="scale(0.015625)"/>
        <path id="DejaVuSans-2e" d="M 684 794 
L 1344 794 
L 1344 0 
L 684 0 
L 684 794 
z
" transform="scale(0.015625)"/>
       </defs>
       <use xlink:href="#DejaVuSans-30"/>
       <use xlink:href="#DejaVuSans-2e" x="63.623047"/>
       <use xlink:href="#DejaVuSans-30" x="95.410156"/>
      </g>
     </g>
    </g>
    <g id="xtick_2">
     <g id="line2d_2">
      <g>
       <use xlink:href="#m44a1db92fa" x="198.236828" y="174.547528" style="stroke: #000000; stroke-width: 0.8"/>
      </g>
     </g>
     <g id="text_2">
      <!-- 0.5 -->
      <g transform="translate(182.333703 196.744403)scale(0.2 -0.2)">
       <defs>
        <path id="DejaVuSans-35" d="M 691 4666 
L 3169 4666 
L 3169 4134 
L 1269 4134 
L 1269 2991 
Q 1406 3038 1543 3061 
Q 1681 3084 1819 3084 
Q 2600 3084 3056 2656 
Q 3513 2228 3513 1497 
Q 3513 744 3044 326 
Q 2575 -91 1722 -91 
Q 1428 -91 1123 -41 
Q 819 9 494 109 
L 494 744 
Q 775 591 1075 516 
Q 1375 441 1709 441 
Q 2250 441 2565 725 
Q 2881 1009 2881 1497 
Q 2881 1984 2565 2268 
Q 2250 2553 1709 2553 
Q 1456 2553 1204 2497 
Q 953 2441 691 2322 
L 691 4666 
z
" transform="scale(0.015625)"/>
       </defs>
       <use xlink:href="#DejaVuSans-30"/>
       <use xlink:href="#DejaVuSans-2e" x="63.623047"/>
       <use xlink:href="#DejaVuSans-35" x="95.410156"/>
      </g>
     </g>
    </g>
    <g id="xtick_3">
     <g id="line2d_3">
      <g>
       <use xlink:href="#m44a1db92fa" x="289.51538" y="174.547528" style="stroke: #000000; stroke-width: 0.8"/>
      </g>
     </g>
     <g id="text_3">
      <!-- 1.0 -->
      <g transform="translate(273.612255 196.744403)scale(0.2 -0.2)">
       <defs>
        <path id="DejaVuSans-31" d="M 794 531 
L 1825 531 
L 1825 4091 
L 703 3866 
L 703 4441 
L 1819 4666 
L 2450 4666 
L 2450 531 
L 3481 531 
L 3481 0 
L 794 0 
L 794 531 
z
" transform="scale(0.015625)"/>
       </defs>
       <use xlink:href="#DejaVuSans-31"/>
       <use xlink:href="#DejaVuSans-2e" x="63.623047"/>
       <use xlink:href="#DejaVuSans-30" x="95.410156"/>
      </g>
     </g>
    </g>
   </g>
   <g id="matplotlib.axis_2">
    <g id="ytick_1">
     <g id="line2d_4">
      <defs>
       <path id="m8c30fe0b7a" d="M 0 0 
L -3.5 0 
" style="stroke: #000000; stroke-width: 0.8"/>
      </defs>
      <g>
       <use xlink:href="#m8c30fe0b7a" x="46.00625" y="157.416619" style="stroke: #000000; stroke-width: 0.8"/>
      </g>
     </g>
     <g id="text_4">
      <!-- 0.0 -->
      <g transform="translate(7.2 165.015057)scale(0.2 -0.2)">
       <use xlink:href="#DejaVuSans-30"/>
       <use xlink:href="#DejaVuSans-2e" x="63.623047"/>
       <use xlink:href="#DejaVuSans-30" x="95.410156"/>
      </g>
     </g>
    </g>
    <g id="ytick_2">
     <g id="line2d_5">
      <g>
       <use xlink:href="#m8c30fe0b7a" x="46.00625" y="86.107528" style="stroke: #000000; stroke-width: 0.8"/>
      </g>
     </g>
     <g id="text_5">
      <!-- 0.5 -->
      <g transform="translate(7.2 93.705966)scale(0.2 -0.2)">
       <use xlink:href="#DejaVuSans-30"/>
       <use xlink:href="#DejaVuSans-2e" x="63.623047"/>
       <use xlink:href="#DejaVuSans-35" x="95.410156"/>
      </g>
     </g>
    </g>
    <g id="ytick_3">
     <g id="line2d_6">
      <g>
       <use xlink:href="#m8c30fe0b7a" x="46.00625" y="14.798437" style="stroke: #000000; stroke-width: 0.8"/>
      </g>
     </g>
     <g id="text_6">
      <!-- 1.0 -->
      <g transform="translate(7.2 22.396875)scale(0.2 -0.2)">
       <use xlink:href="#DejaVuSans-31"/>
       <use xlink:href="#DejaVuSans-2e" x="63.623047"/>
       <use xlink:href="#DejaVuSans-30" x="95.410156"/>
      </g>
     </g>
    </g>
   </g>
   <g id="line2d_7">
    <path d="M 56.00625 157.416619 
L 376.83625 157.416619 
" clip-path="url(#pa4764b0ee5)" style="fill: none; stroke: #808080; stroke-opacity: 0.5; stroke-width: 0.5; stroke-linecap: square"/>
   </g>
   <g id="line2d_8">
    <path d="M 70.589432 157.416619 
L 108.741128 157.329107 
L 110.167264 157.126996 
L 111.237049 156.770199 
L 111.950117 156.358108 
L 112.663185 155.73854 
L 113.376253 154.838642 
L 114.089321 153.575154 
L 114.802572 151.859169 
L 115.51564 149.603134 
L 116.228708 146.729488 
L 117.298493 141.140597 
L 118.368095 133.96233 
L 119.437697 125.294025 
L 120.864015 111.904757 
L 126.212391 59.107408 
L 127.638527 47.851561 
L 129.064846 38.418317 
L 130.134448 32.531788 
L 131.20405 27.614149 
L 132.273835 23.601082 
L 133.343437 20.421623 
L 134.413221 18.006048 
L 135.482823 16.292901 
L 136.195891 15.517057 
L 136.908959 15.022687 
L 137.62221 14.804495 
L 138.335278 14.861272 
L 139.048346 15.195428 
L 139.761597 15.812012 
L 140.474665 16.717231 
L 141.187733 17.916593 
L 142.257335 20.272 
L 143.32712 23.282542 
L 144.396722 26.903308 
L 145.82304 32.537684 
L 147.962244 42.16598 
L 153.667154 68.604435 
L 155.806541 77.380697 
L 157.945927 85.309665 
L 160.085314 92.418274 
L 162.224518 98.770278 
L 164.363905 104.440542 
L 166.503292 109.50355 
L 168.642678 114.028623 
L 170.781883 118.078249 
L 172.921269 121.707849 
L 175.41719 125.476202 
L 177.913111 128.806031 
L 180.409031 131.754676 
L 182.904952 134.371109 
L 185.400873 136.69718 
L 188.253145 139.045679 
L 191.105782 141.106853 
L 194.314771 143.129503 
L 197.52376 144.882204 
L 201.089283 146.55923 
L 204.654806 147.993865 
L 208.577045 149.335888 
L 212.855636 150.564545 
L 217.490943 151.66806 
L 222.839319 152.704805 
L 228.544228 153.5763 
L 231.040149 153.785581 
L 232.466285 153.698127 
L 233.535887 153.401463 
L 234.249138 153.026005 
L 234.962206 152.454747 
L 235.675274 151.636352 
L 236.388342 150.518763 
L 237.101593 149.054184 
L 237.814661 147.204673 
L 238.884263 143.664243 
L 239.954047 139.219076 
L 241.380184 132.099169 
L 243.876104 117.902137 
L 246.372025 104.178719 
L 248.154878 95.769003 
L 249.581014 90.034156 
L 251.00715 85.132402 
L 252.433469 80.966539 
L 253.859787 77.433404 
L 255.285923 74.447026 
L 256.712059 71.951407 
L 258.138378 69.930434 
L 259.20798 68.74324 
L 260.277765 67.871145 
L 261.347367 67.358032 
L 262.060435 67.239795 
L 262.773686 67.316907 
L 263.486754 67.600567 
L 264.199822 68.097854 
L 264.91289 68.810519 
L 265.982674 70.272318 
L 267.052276 72.168006 
L 268.478595 75.255618 
L 270.261265 79.740964 
L 278.462095 101.367107 
L 280.958016 107.027025 
L 283.453937 112.134876 
L 285.949858 116.720999 
L 288.445778 120.828234 
L 290.941517 124.502443 
L 293.437437 127.788307 
L 295.933358 130.727516 
L 298.429279 133.358075 
L 301.281734 136.030151 
L 304.134188 138.388662 
L 306.986643 140.472781 
L 310.195632 142.531418 
L 313.404621 144.326743 
L 316.970326 146.055032 
L 320.535849 147.541754 
L 324.457906 148.93892 
L 328.736679 150.222489 
L 333.371804 151.377624 
L 338.720179 152.46356 
L 344.425089 153.390471 
L 350.843249 154.211973 
L 357.617761 154.864109 
L 361.539818 155.055054 
L 362.253068 155.062325 
L 362.253068 155.062325 
" clip-path="url(#pa4764b0ee5)" style="fill: none; stroke: #1e90ff; stroke-width: 1.5; stroke-linecap: square"/>
   </g>
   <g id="line2d_9">
    <path d="M 70.589432 157.416619 
L 108.741128 157.32485 
L 110.167264 157.116405 
L 111.237049 156.752378 
L 111.950117 156.335557 
L 112.663185 155.713855 
L 113.376253 154.818733 
L 114.089321 153.574018 
L 114.802572 151.901401 
L 115.51564 149.727951 
L 116.228708 146.994809 
L 117.298493 141.774395 
L 118.368095 135.226522 
L 119.794231 124.750357 
L 122.290152 103.915647 
L 124.786072 83.686611 
L 126.568925 70.94222 
L 128.351778 59.729139 
L 130.134448 49.857388 
L 131.9173 41.144933 
L 133.699971 33.485824 
L 135.482823 26.8591 
L 136.908959 22.3627 
L 137.978744 19.540459 
L 139.048346 17.282784 
L 139.761597 16.14252 
L 140.474665 15.331898 
L 141.187733 14.881006 
L 141.900801 14.814411 
L 142.613869 15.148149 
L 143.32712 15.887376 
L 144.040188 17.025057 
L 144.753256 18.541915 
L 145.82304 21.459357 
L 146.892642 25.023323 
L 148.318778 30.507355 
L 150.814699 41.13063 
L 155.093473 59.287986 
L 157.945927 70.288366 
L 160.441848 79.033321 
L 162.937769 86.976708 
L 165.433507 94.166854 
L 167.929428 100.659545 
L 170.425348 106.511106 
L 172.921269 111.775862 
L 175.41719 116.505248 
L 177.913111 120.747557 
L 180.409031 124.547938 
L 182.904952 127.948497 
L 185.400873 130.988404 
L 187.896611 133.703987 
L 190.749066 136.453283 
L 193.601521 138.868389 
L 196.453975 140.99041 
L 199.30643 142.855999 
L 202.515601 144.688451 
L 205.72459 146.277402 
L 209.290113 147.799009 
L 213.21217 149.222 
L 217.490943 150.524591 
L 222.126068 151.693827 
L 227.11791 152.720428 
L 229.970364 153.145747 
L 231.396683 153.193871 
L 232.466285 153.039732 
L 233.179353 152.780081 
L 233.892421 152.336708 
L 234.605672 151.648355 
L 235.31874 150.646445 
L 236.031808 149.259842 
L 236.745059 147.421481 
L 237.458127 145.076184 
L 238.527729 140.537276 
L 239.597331 134.779547 
L 241.02365 125.480436 
L 243.163036 109.543515 
L 245.658957 91.137399 
L 247.441627 79.502771 
L 249.22448 69.364475 
L 251.00715 60.552896 
L 252.790003 52.854155 
L 254.572855 46.115347 
L 256.355525 40.26155 
L 257.781844 36.22805 
L 259.20798 32.856173 
L 260.277765 30.854639 
L 261.347367 29.406146 
L 262.060435 28.797783 
L 262.773686 28.508346 
L 263.486754 28.56071 
L 264.199822 28.969765 
L 264.91289 29.740236 
L 265.62614 30.865489 
L 266.695742 33.17637 
L 267.765344 36.141123 
L 269.191663 40.875561 
L 271.33105 48.958894 
L 276.322709 68.216159 
L 278.818629 76.955743 
L 281.31455 84.933491 
L 283.810471 92.175709 
L 286.306392 98.733643 
L 288.802312 104.662507 
L 291.298233 110.015355 
L 293.794154 114.84162 
L 296.289892 119.187069 
L 298.785813 123.094117 
L 301.281734 126.602191 
L 303.777654 129.748035 
L 306.273575 132.56593 
L 309.12603 135.425705 
L 311.978485 137.942914 
L 314.830939 140.15786 
L 317.683394 142.107045 
L 320.892383 144.022833 
L 324.101372 145.684703 
L 327.666894 147.276548 
L 331.589134 148.765607 
L 335.867725 150.129196 
L 340.503032 151.353943 
L 345.494874 152.434511 
L 351.199783 153.427545 
L 356.904693 154.198832 
L 360.470215 154.498452 
L 362.253068 154.54757 
L 362.253068 154.54757 
" clip-path="url(#pa4764b0ee5)" style="fill: none; stroke: #dc143c; stroke-width: 1.5; stroke-linecap: square"/>
   </g>
   <g id="patch_5">
    <path d="M 46.00625 164.547528 
L 46.00625 7.667528 
" style="fill: none; stroke: #000000; stroke-width: 0.8; stroke-linejoin: miter; stroke-linecap: square"/>
   </g>
   <g id="patch_6">
    <path d="M 56.00625 174.547528 
L 376.83625 174.547528 
" style="fill: none; stroke: #000000; stroke-width: 0.8; stroke-linejoin: miter; stroke-linecap: square"/>
   </g>
  </g>
  <g id="axes_2">
   <g id="patch_7">
    <path d="M 512.48625 164.547528 
L 757.23625 164.547528 
L 757.23625 7.667528 
L 512.48625 7.667528 
z
" style="fill: #ffffff"/>
   </g>
   <g id="patch_8">
    <path d="M 551.355771 164.547528 
L 551.355771 7.667528 
L 569.852025 7.667528 
L 569.852025 164.547528 
z
" clip-path="url(#p0e6294948d)" style="fill: #808080; opacity: 0.2"/>
   </g>
   <g id="patch_9">
    <path d="M 643.83732 164.547528 
L 643.83732 7.667528 
L 662.605701 7.667528 
L 662.605701 164.547528 
z
" clip-path="url(#p0e6294948d)" style="fill: #808080; opacity: 0.2"/>
   </g>
   <g id="matplotlib.axis_3">
    <g id="xtick_4">
     <g id="line2d_10">
      <g>
       <use xlink:href="#m44a1db92fa" x="551.355771" y="174.547528" style="stroke: #000000; stroke-width: 0.8"/>
      </g>
     </g>
     <g id="text_7">
      <!-- 0.0 -->
      <g transform="translate(535.452646 196.744403)scale(0.2 -0.2)">
       <use xlink:href="#DejaVuSans-30"/>
       <use xlink:href="#DejaVuSans-2e" x="63.623047"/>
       <use xlink:href="#DejaVuSans-30" x="95.410156"/>
      </g>
     </g>
    </g>
    <g id="xtick_5">
     <g id="line2d_11">
      <g>
       <use xlink:href="#m44a1db92fa" x="620.98899" y="174.547528" style="stroke: #000000; stroke-width: 0.8"/>
      </g>
     </g>
     <g id="text_8">
      <!-- 0.5 -->
      <g transform="translate(605.085865 196.744403)scale(0.2 -0.2)">
       <use xlink:href="#DejaVuSans-30"/>
       <use xlink:href="#DejaVuSans-2e" x="63.623047"/>
       <use xlink:href="#DejaVuSans-35" x="95.410156"/>
      </g>
     </g>
    </g>
    <g id="xtick_6">
     <g id="line2d_12">
      <g>
       <use xlink:href="#m44a1db92fa" x="690.622209" y="174.547528" style="stroke: #000000; stroke-width: 0.8"/>
      </g>
     </g>
     <g id="text_9">
      <!-- 1.0 -->
      <g transform="translate(674.719084 196.744403)scale(0.2 -0.2)">
       <use xlink:href="#DejaVuSans-31"/>
       <use xlink:href="#DejaVuSans-2e" x="63.623047"/>
       <use xlink:href="#DejaVuSans-30" x="95.410156"/>
      </g>
     </g>
    </g>
   </g>
   <g id="matplotlib.axis_4">
    <g id="ytick_4">
     <g id="line2d_13">
      <g>
       <use xlink:href="#m8c30fe0b7a" x="502.48625" y="157.416619" style="stroke: #000000; stroke-width: 0.8"/>
      </g>
     </g>
     <g id="text_10">
      <!-- 0.0 -->
      <g transform="translate(463.68 165.015057)scale(0.2 -0.2)">
       <use xlink:href="#DejaVuSans-30"/>
       <use xlink:href="#DejaVuSans-2e" x="63.623047"/>
       <use xlink:href="#DejaVuSans-30" x="95.410156"/>
      </g>
     </g>
    </g>
    <g id="ytick_5">
     <g id="line2d_14">
      <g>
       <use xlink:href="#m8c30fe0b7a" x="502.48625" y="86.107528" style="stroke: #000000; stroke-width: 0.8"/>
      </g>
     </g>
     <g id="text_11">
      <!-- 0.5 -->
      <g transform="translate(463.68 93.705966)scale(0.2 -0.2)">
       <use xlink:href="#DejaVuSans-30"/>
       <use xlink:href="#DejaVuSans-2e" x="63.623047"/>
       <use xlink:href="#DejaVuSans-35" x="95.410156"/>
      </g>
     </g>
    </g>
    <g id="ytick_6">
     <g id="line2d_15">
      <g>
       <use xlink:href="#m8c30fe0b7a" x="502.48625" y="14.798437" style="stroke: #000000; stroke-width: 0.8"/>
      </g>
     </g>
     <g id="text_12">
      <!-- 1.0 -->
      <g transform="translate(463.68 22.396875)scale(0.2 -0.2)">
       <use xlink:href="#DejaVuSans-31"/>
       <use xlink:href="#DejaVuSans-2e" x="63.623047"/>
       <use xlink:href="#DejaVuSans-30" x="95.410156"/>
      </g>
     </g>
    </g>
   </g>
   <g id="line2d_16">
    <path d="M 512.48625 157.416619 
L 757.23625 157.416619 
" clip-path="url(#p0e6294948d)" style="fill: none; stroke: #808080; stroke-opacity: 0.5; stroke-width: 0.5; stroke-linecap: square"/>
   </g>
   <g id="line2d_17">
    <path d="M 523.61125 157.416619 
L 554.075783 157.328198 
L 555.435859 157.094686 
L 556.251821 156.78064 
L 557.067923 156.240947 
L 557.883885 155.37568 
L 558.699847 154.077071 
L 559.515948 152.245377 
L 560.33191 149.806113 
L 561.147872 146.723266 
L 562.235961 141.630219 
L 563.596037 133.869458 
L 565.227961 123.012739 
L 567.676126 104.866207 
L 575.836164 42.584383 
L 577.19624 34.133266 
L 578.28419 28.533363 
L 579.100291 25.167963 
L 579.916253 22.588447 
L 580.732355 20.813443 
L 581.276329 20.067207 
L 581.820304 19.653322 
L 582.364279 19.5509 
L 582.908253 19.735575 
L 583.452367 20.181157 
L 584.268329 21.280743 
L 585.084431 22.821747 
L 586.17238 25.430445 
L 587.532456 29.369002 
L 589.436507 35.741183 
L 592.15652 45.788023 
L 599.228609 72.314853 
L 602.220609 82.550311 
L 604.940761 91.08984 
L 607.660774 98.85994 
L 610.108799 105.198958 
L 612.556825 110.941084 
L 615.00485 116.118986 
L 617.452876 120.771 
L 619.90104 124.937979 
L 622.349066 128.661184 
L 624.797091 131.980914 
L 627.245117 134.935642 
L 629.693142 137.561505 
L 632.413155 140.134132 
L 635.133168 142.384215 
L 637.85332 144.349805 
L 640.84532 146.22401 
L 643.83732 147.832372 
L 646.285485 148.917929 
L 647.645422 149.311969 
L 648.461523 149.383706 
L 649.277485 149.246018 
L 650.093447 148.804004 
L 650.637561 148.287219 
L 651.453523 147.098858 
L 652.269485 145.331444 
L 653.085586 142.92002 
L 653.901549 139.841178 
L 654.989637 134.738665 
L 656.349574 126.975209 
L 657.981637 116.157548 
L 660.429663 98.159321 
L 668.317853 38.642234 
L 669.67779 30.125221 
L 670.765879 24.402008 
L 671.853828 19.918854 
L 672.669929 17.468885 
L 673.485891 15.825279 
L 674.029866 15.16747 
L 674.57398 14.842514 
L 675.117955 14.829371 
L 675.66193 15.103518 
L 676.205904 15.638609 
L 677.022006 16.87219 
L 677.837968 18.54644 
L 678.926056 21.330885 
L 680.285993 25.484862 
L 682.190044 32.148437 
L 685.182183 43.659323 
L 691.438171 67.975571 
L 694.43031 78.668661 
L 697.150323 87.609072 
L 699.870336 95.756118 
L 702.318361 102.409983 
L 704.766387 108.442324 
L 707.214552 113.885641 
L 709.662577 118.778904 
L 712.110602 123.164098 
L 714.558628 127.083914 
L 717.006653 130.580219 
L 719.454679 133.69311 
L 721.902704 136.460328 
L 724.350869 138.916968 
L 727.070882 141.321522 
L 729.790895 143.4228 
L 732.510907 145.257047 
L 735.503047 147.004848 
L 738.495047 148.505782 
L 741.487047 149.769105 
L 743.663085 150.462904 
L 745.295149 150.756167 
L 746.11125 150.803948 
L 746.11125 150.803948 
" clip-path="url(#p0e6294948d)" style="fill: none; stroke: #1e90ff; stroke-opacity: 0.3; stroke-width: 1.5; stroke-linecap: square"/>
   </g>
   <g id="line2d_18">
    <path d="M 523.61125 132.290582 
L 556.795796 132.190172 
L 558.42786 131.960289 
L 559.787936 131.537211 
L 560.875885 130.967692 
L 561.963974 130.136224 
L 563.051923 129.004689 
L 564.140012 127.552032 
L 565.227961 125.772786 
L 566.588037 123.099029 
L 567.948113 119.949722 
L 569.580037 115.588301 
L 571.484088 109.773425 
L 573.660126 102.296872 
L 576.380278 92.012495 
L 581.276329 73.300954 
L 583.18038 67.004773 
L 584.812304 62.308665 
L 586.444367 58.278509 
L 588.076431 54.882641 
L 589.708494 52.068641 
L 591.068431 50.126045 
L 592.428507 48.513643 
L 593.788583 47.199889 
L 595.14852 46.155592 
L 596.508596 45.354114 
L 597.868533 44.77137 
L 599.500596 44.330495 
L 601.132659 44.140412 
L 602.764723 44.172143 
L 604.668634 44.455843 
L 606.572685 44.972006 
L 608.748723 45.8078 
L 611.196888 47.015084 
L 613.916901 48.632124 
L 616.908901 50.681001 
L 620.445015 53.382353 
L 624.797091 56.998426 
L 631.325205 62.749472 
L 643.83732 73.814454 
L 648.73351 77.865563 
L 650.909548 79.419488 
L 652.269485 80.157216 
L 653.357574 80.533755 
L 654.445523 80.660989 
L 655.261625 80.565097 
L 656.077587 80.289527 
L 656.893549 79.825595 
L 657.981637 78.907461 
L 659.069726 77.647664 
L 660.157675 76.054117 
L 661.517752 73.612467 
L 662.877688 70.700223 
L 664.509752 66.634493 
L 666.413802 61.193783 
L 668.589841 54.240585 
L 674.845967 33.70526 
L 676.478031 29.313288 
L 678.109955 25.57018 
L 679.470031 22.947958 
L 680.830107 20.75566 
L 682.190044 18.963206 
L 683.55012 17.537415 
L 684.910057 16.444988 
L 686.270133 15.654004 
L 687.630209 15.13465 
L 688.990145 14.859522 
L 690.350222 14.803705 
L 691.710158 14.944707 
L 693.342222 15.345397 
L 694.974285 15.96951 
L 696.878336 16.943936 
L 699.054374 18.336814 
L 701.502399 20.202919 
L 704.222412 22.58026 
L 707.486539 25.764581 
L 711.29464 29.81547 
L 716.462679 35.678688 
L 736.047022 58.26073 
L 740.671085 63.135969 
L 742.575136 64.909832 
L 743.935073 65.911936 
L 745.023161 66.442316 
L 745.839123 66.635942 
L 746.11125 66.657798 
L 746.11125 66.657798 
" clip-path="url(#p0e6294948d)" style="fill: none; stroke-dasharray: 7.4,3.2; stroke-dashoffset: 0; stroke: #1e90ff; stroke-width: 2"/>
   </g>
   <g id="patch_10">
    <path d="M 502.48625 164.547528 
L 502.48625 7.667528 
" style="fill: none; stroke: #000000; stroke-width: 0.8; stroke-linejoin: miter; stroke-linecap: square"/>
   </g>
   <g id="patch_11">
    <path d="M 512.48625 174.547528 
L 757.23625 174.547528 
" style="fill: none; stroke: #000000; stroke-width: 0.8; stroke-linejoin: miter; stroke-linecap: square"/>
   </g>
  </g>
  <g id="axes_3">
   <g id="patch_12">
    <path d="M 892.88625 164.547528 
L 1137.63625 164.547528 
L 1137.63625 7.667528 
L 892.88625 7.667528 
z
" style="fill: #ffffff"/>
   </g>
   <g id="patch_13">
    <path d="M 931.755771 164.547528 
L 931.755771 7.667528 
L 950.252025 7.667528 
L 950.252025 164.547528 
z
" clip-path="url(#pd0ee00811f)" style="fill: #808080; opacity: 0.2"/>
   </g>
   <g id="patch_14">
    <path d="M 1024.23732 164.547528 
L 1024.23732 7.667528 
L 1043.005701 7.667528 
L 1043.005701 164.547528 
z
" clip-path="url(#pd0ee00811f)" style="fill: #808080; opacity: 0.2"/>
   </g>
   <g id="matplotlib.axis_5">
    <g id="xtick_7">
     <g id="line2d_19">
      <g>
       <use xlink:href="#m44a1db92fa" x="931.755771" y="174.547528" style="stroke: #000000; stroke-width: 0.8"/>
      </g>
     </g>
     <g id="text_13">
      <!-- 0.0 -->
      <g transform="translate(915.852646 196.744403)scale(0.2 -0.2)">
       <use xlink:href="#DejaVuSans-30"/>
       <use xlink:href="#DejaVuSans-2e" x="63.623047"/>
       <use xlink:href="#DejaVuSans-30" x="95.410156"/>
      </g>
     </g>
    </g>
    <g id="xtick_8">
     <g id="line2d_20">
      <g>
       <use xlink:href="#m44a1db92fa" x="1001.38899" y="174.547528" style="stroke: #000000; stroke-width: 0.8"/>
      </g>
     </g>
     <g id="text_14">
      <!-- 0.5 -->
      <g transform="translate(985.485865 196.744403)scale(0.2 -0.2)">
       <use xlink:href="#DejaVuSans-30"/>
       <use xlink:href="#DejaVuSans-2e" x="63.623047"/>
       <use xlink:href="#DejaVuSans-35" x="95.410156"/>
      </g>
     </g>
    </g>
    <g id="xtick_9">
     <g id="line2d_21">
      <g>
       <use xlink:href="#m44a1db92fa" x="1071.022209" y="174.547528" style="stroke: #000000; stroke-width: 0.8"/>
      </g>
     </g>
     <g id="text_15">
      <!-- 1.0 -->
      <g transform="translate(1055.119084 196.744403)scale(0.2 -0.2)">
       <use xlink:href="#DejaVuSans-31"/>
       <use xlink:href="#DejaVuSans-2e" x="63.623047"/>
       <use xlink:href="#DejaVuSans-30" x="95.410156"/>
      </g>
     </g>
    </g>
   </g>
   <g id="matplotlib.axis_6">
    <g id="ytick_7">
     <g id="line2d_22">
      <g>
       <use xlink:href="#m8c30fe0b7a" x="882.88625" y="157.416619" style="stroke: #000000; stroke-width: 0.8"/>
      </g>
     </g>
     <g id="text_16">
      <!-- 0.0 -->
      <g transform="translate(844.08 165.015057)scale(0.2 -0.2)">
       <use xlink:href="#DejaVuSans-30"/>
       <use xlink:href="#DejaVuSans-2e" x="63.623047"/>
       <use xlink:href="#DejaVuSans-30" x="95.410156"/>
      </g>
     </g>
    </g>
    <g id="ytick_8">
     <g id="line2d_23">
      <g>
       <use xlink:href="#m8c30fe0b7a" x="882.88625" y="86.107528" style="stroke: #000000; stroke-width: 0.8"/>
      </g>
     </g>
     <g id="text_17">
      <!-- 0.5 -->
      <g transform="translate(844.08 93.705966)scale(0.2 -0.2)">
       <use xlink:href="#DejaVuSans-30"/>
       <use xlink:href="#DejaVuSans-2e" x="63.623047"/>
       <use xlink:href="#DejaVuSans-35" x="95.410156"/>
      </g>
     </g>
    </g>
    <g id="ytick_9">
     <g id="line2d_24">
      <g>
       <use xlink:href="#m8c30fe0b7a" x="882.88625" y="14.798437" style="stroke: #000000; stroke-width: 0.8"/>
      </g>
     </g>
     <g id="text_18">
      <!-- 1.0 -->
      <g transform="translate(844.08 22.396875)scale(0.2 -0.2)">
       <use xlink:href="#DejaVuSans-31"/>
       <use xlink:href="#DejaVuSans-2e" x="63.623047"/>
       <use xlink:href="#DejaVuSans-30" x="95.410156"/>
      </g>
     </g>
    </g>
   </g>
   <g id="line2d_25">
    <path d="M 892.88625 157.416619 
L 1137.63625 157.416619 
" clip-path="url(#pd0ee00811f)" style="fill: none; stroke: #808080; stroke-opacity: 0.5; stroke-width: 0.5; stroke-linecap: square"/>
   </g>
   <g id="line2d_26">
    <path d="M 904.01125 157.416619 
L 933.931809 157.331532 
L 935.291885 157.08758 
L 936.107847 156.745778 
L 936.923809 156.141122 
L 937.73991 155.147408 
L 938.555872 153.625982 
L 939.371974 151.448615 
L 940.187936 148.52415 
L 941.003898 144.820204 
L 942.091986 138.738425 
L 943.451923 129.656623 
L 945.627961 113.195974 
L 953.244164 54.194789 
L 955.420202 38.984994 
L 956.780278 30.808119 
L 957.868228 25.506828 
L 958.68419 22.463144 
L 959.500291 20.321875 
L 960.044266 19.414468 
L 960.588241 18.918151 
L 961.132355 18.815323 
L 961.676329 19.078512 
L 962.220304 19.672991 
L 963.036266 21.100018 
L 963.852367 23.048978 
L 964.940317 26.244608 
L 966.57238 31.850837 
L 969.292393 42.208022 
L 976.908596 71.625907 
L 979.900596 82.15414 
L 982.620609 90.943474 
L 985.068634 98.171731 
L 987.516799 104.749746 
L 989.964825 110.696002 
L 992.41285 116.042736 
L 994.860875 120.830147 
L 997.308901 125.10228 
L 999.756926 128.904208 
L 1002.204952 132.280188 
L 1004.653116 135.272498 
L 1007.101142 137.920763 
L 1009.549167 140.261615 
L 1012.26918 142.54268 
L 1014.989193 144.527046 
L 1017.709345 146.251736 
L 1020.701345 147.888029 
L 1023.693345 149.285541 
L 1026.141371 150.218505 
L 1027.501447 150.526443 
L 1028.317409 150.532402 
L 1029.13351 150.300668 
L 1029.677485 149.956673 
L 1030.22146 149.41453 
L 1030.765574 148.632501 
L 1031.581536 146.923875 
L 1032.397498 144.479545 
L 1033.213599 141.24436 
L 1034.301549 135.729583 
L 1035.661625 127.21095 
L 1037.565675 113.382064 
L 1047.357777 39.555916 
L 1048.989841 29.218945 
L 1050.07779 23.46305 
L 1050.893891 19.981016 
L 1051.709853 17.348232 
L 1052.253828 16.102735 
L 1052.797942 15.274532 
L 1053.341917 14.857701 
L 1053.885891 14.834556 
L 1054.429866 15.177524 
L 1054.97398 15.85177 
L 1055.789942 17.398164 
L 1056.605904 19.465793 
L 1057.693993 22.817884 
L 1059.326056 28.653367 
L 1062.046069 39.373146 
L 1069.118158 67.592657 
L 1072.110158 78.548077 
L 1074.83031 87.714852 
L 1077.278336 95.265632 
L 1079.726361 102.145394 
L 1082.174387 108.370341 
L 1084.622412 113.97192 
L 1087.070438 118.990569 
L 1089.518463 123.471251 
L 1091.966628 127.460367 
L 1094.414653 131.003723 
L 1096.862679 134.145235 
L 1099.310704 136.926175 
L 1101.75873 139.384768 
L 1104.478742 141.780971 
L 1107.198894 143.865816 
L 1109.918907 145.67807 
L 1112.910907 147.397642 
L 1115.903047 148.869115 
L 1119.167034 150.231111 
L 1122.159174 151.263674 
L 1124.335073 151.811405 
L 1125.967136 152.020559 
L 1126.51125 152.040472 
L 1126.51125 152.040472 
" clip-path="url(#pd0ee00811f)" style="fill: none; stroke: #dc143c; stroke-opacity: 0.3; stroke-width: 1.5; stroke-linecap: square"/>
   </g>
   <g id="line2d_27">
    <path d="M 904.01125 74.668218 
L 936.923809 74.578702 
L 938.555872 74.371939 
L 939.915948 73.994221 
L 941.003898 73.493458 
L 942.091986 72.777912 
L 943.179936 71.831291 
L 944.540012 70.329399 
L 946.172075 68.111162 
L 948.076126 65.059563 
L 950.252025 61.10707 
L 952.972177 55.653622 
L 957.59624 45.714083 
L 960.044266 40.769233 
L 961.676329 37.929681 
L 963.036266 35.932775 
L 964.396342 34.286572 
L 965.756418 32.971804 
L 967.116355 31.952335 
L 968.476431 31.187313 
L 970.108494 30.551009 
L 971.740418 30.16791 
L 973.644469 29.9782 
L 975.54852 30.008669 
L 977.724558 30.25299 
L 980.444571 30.794845 
L 983.708698 31.692278 
L 987.788786 33.065306 
L 993.228812 35.155535 
L 1001.660977 38.669248 
L 1017.709345 45.378788 
L 1025.869384 48.527491 
L 1029.677485 49.829298 
L 1031.581536 50.254207 
L 1032.941473 50.322878 
L 1034.029561 50.169787 
L 1035.11765 49.795254 
L 1036.205599 49.184456 
L 1037.293549 48.341264 
L 1038.653625 46.988112 
L 1040.285688 44.989016 
L 1042.189739 42.238747 
L 1044.365777 38.662779 
L 1047.08579 33.708162 
L 1052.797942 23.033572 
L 1054.429866 20.543101 
L 1055.789942 18.830267 
L 1057.150018 17.463309 
L 1058.509955 16.42403 
L 1059.870031 15.6771 
L 1061.230107 15.182216 
L 1062.590044 14.901017 
L 1064.222107 14.798437 
L 1065.854171 14.906166 
L 1067.758082 15.244721 
L 1069.934259 15.851044 
L 1072.654272 16.853814 
L 1075.91826 18.307921 
L 1080.270336 20.514535 
L 1086.526463 23.965876 
L 1107.470882 35.700702 
L 1114.542971 39.327169 
L 1120.799098 42.300408 
L 1123.519111 43.398668 
L 1125.151174 43.835915 
L 1126.51125 43.977557 
L 1126.51125 43.977557 
" clip-path="url(#pd0ee00811f)" style="fill: none; stroke-dasharray: 7.4,3.2; stroke-dashoffset: 0; stroke: #dc143c; stroke-width: 2"/>
   </g>
   <g id="patch_15">
    <path d="M 882.88625 164.547528 
L 882.88625 7.667528 
" style="fill: none; stroke: #000000; stroke-width: 0.8; stroke-linejoin: miter; stroke-linecap: square"/>
   </g>
   <g id="patch_16">
    <path d="M 892.88625 174.547528 
L 1137.63625 174.547528 
" style="fill: none; stroke: #000000; stroke-width: 0.8; stroke-linejoin: miter; stroke-linecap: square"/>
   </g>
  </g>
 </g>
 <defs>
  <clipPath id="pa4764b0ee5">
   <rect x="56.00625" y="7.667528" width="320.83" height="156.88"/>
  </clipPath>
  <clipPath id="p0e6294948d">
   <rect x="512.48625" y="7.667528" width="244.75" height="156.88"/>
  </clipPath>
  <clipPath id="pd0ee00811f">
   <rect x="892.88625" y="7.667528" width="244.75" height="156.88"/>
  </clipPath>
 </defs>
</svg>
